M48
; DRILL file {KiCad 8.0.9-8.0.9-0~ubuntu24.04.1} date 2026-03-23T21:41:57-0300
; FORMAT={-:-/ absolute / metric / decimal}
; #@! TF.CreationDate,2026-03-23T21:41:57-03:00
; #@! TF.GenerationSoftware,Kicad,Pcbnew,8.0.9-8.0.9-0~ubuntu24.04.1
; #@! TF.FileFunction,Plated,1,2,PTH
FMAT,2
METRIC
; #@! TA.AperFunction,Plated,PTH,ComponentDrill
T1C0.750
; #@! TA.AperFunction,Plated,PTH,ComponentDrill
T2C0.800
; #@! TA.AperFunction,Plated,PTH,ComponentDrill
T3C0.900
; #@! TA.AperFunction,Plated,PTH,ComponentDrill
T4C0.950
; #@! TA.AperFunction,Plated,PTH,ViaDrill
T5C1.000
; #@! TA.AperFunction,Plated,PTH,ComponentDrill
T6C1.000
; #@! TA.AperFunction,Plated,PTH,ComponentDrill
T7C1.100
%
G90
G05
T1
X65.25Y72.97
X67.25Y72.97
X69.25Y72.97
X71.25Y72.97
T2
X4.63Y62.25
X12.25Y62.25
X18.75Y55.75
X22.25Y55.75
X34.305Y20.775
X34.305Y15.775
X61.25Y56.56
X61.25Y48.94
X64.375Y56.56
X64.375Y48.94
X67.5Y56.56
X67.5Y48.94
X79.0Y39.04
X79.0Y36.5
X79.25Y25.097
X79.25Y20.097
X81.54Y39.0
X81.54Y36.5
X84.08Y39.0
X84.08Y36.5
X85.5Y24.347
X85.5Y20.847
X86.62Y39.0
X86.62Y36.5
T3
X15.21Y63.75
X17.75Y63.75
T4
X9.5Y32.75
X9.5Y30.25
X9.5Y27.75
X41.75Y71.42
X44.25Y71.42
X46.75Y71.42
X53.75Y71.42
X56.25Y71.42
X58.75Y71.42
T5
X20.5Y50.0
X25.75Y50.0
X26.5Y45.5
X27.116Y33.884
X37.75Y74.25
X37.75Y66.5
X46.187Y66.937
X46.5Y61.0
X52.5Y51.5
X52.5Y44.0
X54.0Y61.0
X59.69Y66.94
X64.0Y39.42
X64.0Y29.0
X67.193Y46.56
X67.25Y30.7
X67.352Y42.648
X72.25Y46.75
X74.75Y36.25
X75.0Y48.0
X76.5Y38.25
X76.75Y45.8
T6
X5.75Y55.25
X10.75Y55.25
X16.75Y68.25
X16.76Y73.33
X31.67Y70.75
X31.71Y65.75
X34.21Y70.75
X34.25Y65.75
X34.25Y12.15
X34.25Y9.61
X34.25Y7.07
X40.5Y55.4
X40.5Y52.86
X40.5Y50.32
X40.5Y47.78
X40.5Y45.24
X40.5Y42.7
X40.5Y40.16
X40.5Y37.62
X40.5Y35.08
X40.5Y32.54
X40.5Y30.0
X40.5Y27.46
X40.5Y24.92
X40.5Y22.38
X40.5Y19.84
X40.5Y17.3
X40.5Y14.76
X40.5Y12.22
X40.5Y9.68
X40.5Y7.14
X41.56Y64.48
X44.1Y64.48
X46.64Y64.48
X53.65Y64.48
X56.0Y55.4
X56.0Y52.86
X56.0Y50.32
X56.0Y47.78
X56.0Y45.24
X56.0Y42.7
X56.0Y40.16
X56.0Y37.62
X56.0Y35.08
X56.0Y32.54
X56.0Y30.0
X56.0Y27.46
X56.0Y24.92
X56.0Y22.38
X56.0Y19.84
X56.0Y17.3
X56.0Y14.76
X56.0Y12.22
X56.0Y9.68
X56.0Y7.14
X56.19Y64.48
X58.73Y64.48
X62.92Y64.48
X65.46Y64.48
X68.0Y64.48
X75.0Y25.152
X75.0Y22.612
X75.0Y20.072
T7
X8.695Y45.79
X8.695Y43.25
X8.695Y40.71
X20.75Y73.91
X20.75Y63.75
T6
G00X6.25Y71.75
M15
G01X6.25Y69.75
M16
G05
G00X8.25Y66.05
M15
G01X10.25Y66.05
M16
G05
G00X12.25Y71.75
M15
G01X12.25Y69.75
M16
G05
M30
