%TF.GenerationSoftware,KiCad,Pcbnew,8.0.9-8.0.9-0~ubuntu24.04.1*%
%TF.CreationDate,2026-03-23T20:51:19-03:00*%
%TF.ProjectId,case,63617365-2e6b-4696-9361-645f70636258,rev?*%
%TF.SameCoordinates,Original*%
%TF.FileFunction,Copper,L2,Bot*%
%TF.FilePolarity,Positive*%
%FSLAX46Y46*%
G04 Gerber Fmt 4.6, Leading zero omitted, Abs format (unit mm)*
G04 Created by KiCad (PCBNEW 8.0.9-8.0.9-0~ubuntu24.04.1) date 2026-03-23 20:51:19*
%MOMM*%
%LPD*%
G01*
G04 APERTURE LIST*
G04 Aperture macros list*
%AMRoundRect*
0 Rectangle with rounded corners*
0 $1 Rounding radius*
0 $2 $3 $4 $5 $6 $7 $8 $9 X,Y pos of 4 corners*
0 Add a 4 corners polygon primitive as box body*
4,1,4,$2,$3,$4,$5,$6,$7,$8,$9,$2,$3,0*
0 Add four circle primitives for the rounded corners*
1,1,$1+$1,$2,$3*
1,1,$1+$1,$4,$5*
1,1,$1+$1,$6,$7*
1,1,$1+$1,$8,$9*
0 Add four rect primitives between the rounded corners*
20,1,$1+$1,$2,$3,$4,$5,0*
20,1,$1+$1,$4,$5,$6,$7,0*
20,1,$1+$1,$6,$7,$8,$9,0*
20,1,$1+$1,$8,$9,$2,$3,0*%
G04 Aperture macros list end*
%TA.AperFunction,ComponentPad*%
%ADD10C,2.000000*%
%TD*%
%TA.AperFunction,ComponentPad*%
%ADD11R,2.000000X2.000000*%
%TD*%
%TA.AperFunction,ComponentPad*%
%ADD12O,1.700000X1.700000*%
%TD*%
%TA.AperFunction,ComponentPad*%
%ADD13R,1.700000X1.700000*%
%TD*%
%TA.AperFunction,ComponentPad*%
%ADD14C,1.600000*%
%TD*%
%TA.AperFunction,ComponentPad*%
%ADD15R,2.000000X1.905000*%
%TD*%
%TA.AperFunction,ComponentPad*%
%ADD16O,2.000000X1.905000*%
%TD*%
%TA.AperFunction,SMDPad,CuDef*%
%ADD17C,2.000000*%
%TD*%
%TA.AperFunction,ComponentPad*%
%ADD18O,1.700000X1.950000*%
%TD*%
%TA.AperFunction,ComponentPad*%
%ADD19RoundRect,0.250000X-0.600000X-0.725000X0.600000X-0.725000X0.600000X0.725000X-0.600000X0.725000X0*%
%TD*%
%TA.AperFunction,ComponentPad*%
%ADD20O,1.950000X1.700000*%
%TD*%
%TA.AperFunction,ComponentPad*%
%ADD21RoundRect,0.250000X-0.725000X0.600000X-0.725000X-0.600000X0.725000X-0.600000X0.725000X0.600000X0*%
%TD*%
%TA.AperFunction,ComponentPad*%
%ADD22O,1.200000X1.750000*%
%TD*%
%TA.AperFunction,ComponentPad*%
%ADD23RoundRect,0.250000X-0.350000X-0.625000X0.350000X-0.625000X0.350000X0.625000X-0.350000X0.625000X0*%
%TD*%
%TA.AperFunction,ComponentPad*%
%ADD24R,3.500000X3.500000*%
%TD*%
%TA.AperFunction,ComponentPad*%
%ADD25RoundRect,0.750000X-0.750000X-1.000000X0.750000X-1.000000X0.750000X1.000000X-0.750000X1.000000X0*%
%TD*%
%TA.AperFunction,ComponentPad*%
%ADD26RoundRect,0.875000X-0.875000X-0.875000X0.875000X-0.875000X0.875000X0.875000X-0.875000X0.875000X0*%
%TD*%
%TA.AperFunction,ComponentPad*%
%ADD27R,1.800000X1.800000*%
%TD*%
%TA.AperFunction,ComponentPad*%
%ADD28C,1.800000*%
%TD*%
%TA.AperFunction,ComponentPad*%
%ADD29R,2.200000X2.200000*%
%TD*%
%TA.AperFunction,ComponentPad*%
%ADD30O,2.200000X2.200000*%
%TD*%
%TA.AperFunction,ComponentPad*%
%ADD31R,1.600000X1.600000*%
%TD*%
%TA.AperFunction,SMDPad,CuDef*%
%ADD32RoundRect,0.375000X-0.625000X-0.375000X0.625000X-0.375000X0.625000X0.375000X-0.625000X0.375000X0*%
%TD*%
%TA.AperFunction,SMDPad,CuDef*%
%ADD33RoundRect,0.500000X-0.500000X-1.400000X0.500000X-1.400000X0.500000X1.400000X-0.500000X1.400000X0*%
%TD*%
%TA.AperFunction,ViaPad*%
%ADD34C,2.000000*%
%TD*%
%TA.AperFunction,Conductor*%
%ADD35C,1.500000*%
%TD*%
%TA.AperFunction,Conductor*%
%ADD36C,0.800000*%
%TD*%
%TA.AperFunction,Profile*%
%ADD37C,0.050000*%
%TD*%
G04 APERTURE END LIST*
D10*
%TO.P,J7,8,Pin_8*%
%TO.N,B0*%
X118370000Y-79750000D03*
%TO.P,J7,7,Pin_7*%
%TO.N,A6*%
X118370000Y-82250000D03*
%TO.P,J7,6,Pin_6*%
%TO.N,A7*%
X115830000Y-79750000D03*
%TO.P,J7,5,Pin_5*%
%TO.N,A5*%
X115830000Y-82250000D03*
%TO.P,J7,4,Pin_4*%
%TO.N,A4*%
X113290000Y-79750000D03*
%TO.P,J7,3,Pin_3*%
%TO.N,A3*%
X113290000Y-82250000D03*
%TO.P,J7,2,Pin_2*%
%TO.N,/3v3_nrf*%
X110750000Y-79710000D03*
D11*
%TO.P,J7,1,Pin_1*%
%TO.N,GND*%
X110750000Y-82250000D03*
%TD*%
D12*
%TO.P,J14,3,Pin_3*%
%TO.N,unconnected-(J14-Pin_3-Pad3)*%
X78390000Y-54270000D03*
%TO.P,J14,2,Pin_2*%
%TO.N,Net-(J13-Pin_1)*%
X75850000Y-54270000D03*
D13*
%TO.P,J14,1,Pin_1*%
%TO.N,5v*%
X73310000Y-54270000D03*
%TD*%
%TO.P,U3,1,B12*%
%TO.N,B12*%
X72250000Y-63350000D03*
D12*
%TO.P,U3,2,B13*%
%TO.N,B13*%
X72250000Y-65890000D03*
%TO.P,U3,3,B14*%
%TO.N,B14*%
X72250000Y-68430000D03*
%TO.P,U3,4,B15*%
%TO.N,B15*%
X72250000Y-70970000D03*
%TO.P,U3,5,A8*%
%TO.N,A8*%
X72250000Y-73510000D03*
%TO.P,U3,6,A9*%
%TO.N,A9*%
X72250000Y-76050000D03*
%TO.P,U3,7,A10*%
%TO.N,A10*%
X72250000Y-78590000D03*
%TO.P,U3,8,A11*%
%TO.N,A11*%
X72250000Y-81130000D03*
%TO.P,U3,9,A12*%
%TO.N,A12*%
X72250000Y-83670000D03*
%TO.P,U3,10,A15*%
%TO.N,A15*%
X72250000Y-86210000D03*
%TO.P,U3,11,B3*%
%TO.N,B3*%
X72250000Y-88750000D03*
%TO.P,U3,12,B4*%
%TO.N,B4*%
X72250000Y-91290000D03*
%TO.P,U3,13,B5*%
%TO.N,B5*%
X72250000Y-93830000D03*
%TO.P,U3,14,B6*%
%TO.N,B6*%
X72250000Y-96370000D03*
%TO.P,U3,15,B7*%
%TO.N,B7*%
X72250000Y-98910000D03*
%TO.P,U3,16,B8*%
%TO.N,B8*%
X72250000Y-101450000D03*
%TO.P,U3,17,B9*%
%TO.N,B9*%
X72250000Y-103990000D03*
%TO.P,U3,18,5V*%
%TO.N,unconnected-(U3-5V-Pad18)*%
X72250000Y-106530000D03*
%TO.P,U3,19,GND*%
%TO.N,GND*%
X72250000Y-109070000D03*
%TO.P,U3,20,3V3*%
%TO.N,3v3_uC*%
X72250000Y-111610000D03*
%TO.P,U3,21,VB*%
%TO.N,Vb*%
X87750000Y-111610000D03*
%TO.P,U3,22,C13*%
%TO.N,C13*%
X87750000Y-109070000D03*
%TO.P,U3,23,C14*%
%TO.N,C14*%
X87750000Y-106530000D03*
%TO.P,U3,24,C15*%
%TO.N,C15*%
X87750000Y-103990000D03*
%TO.P,U3,25,A0*%
%TO.N,A0*%
X87750000Y-101450000D03*
%TO.P,U3,26,A1*%
%TO.N,A1*%
X87750000Y-98910000D03*
%TO.P,U3,27,A2*%
%TO.N,A2*%
X87750000Y-96370000D03*
%TO.P,U3,28,A3*%
%TO.N,A3*%
X87750000Y-93830000D03*
%TO.P,U3,29,A4*%
%TO.N,A4*%
X87750000Y-91290000D03*
%TO.P,U3,30,A5*%
%TO.N,A5*%
X87750000Y-88750000D03*
%TO.P,U3,31,A6*%
%TO.N,A6*%
X87750000Y-86210000D03*
%TO.P,U3,32,A7*%
%TO.N,A7*%
X87750000Y-83670000D03*
%TO.P,U3,33,B0*%
%TO.N,B0*%
X87750000Y-81130000D03*
%TO.P,U3,34,B1*%
%TO.N,B1*%
X87750000Y-78590000D03*
%TO.P,U3,35,B10*%
%TO.N,B10*%
X87750000Y-76050000D03*
%TO.P,U3,36,B11*%
%TO.N,B11*%
X87750000Y-73510000D03*
%TO.P,U3,37,R*%
%TO.N,R*%
X87750000Y-70970000D03*
%TO.P,U3,38,3V3*%
%TO.N,3v3_uC*%
X87750000Y-68430000D03*
%TO.P,U3,39,GND*%
%TO.N,GND*%
X87750000Y-65890000D03*
D13*
%TO.P,U3,40,GND*%
X87750000Y-63350000D03*
%TD*%
D14*
%TO.P,C3,2*%
%TO.N,GND*%
X66055000Y-102975000D03*
%TO.P,C3,1*%
%TO.N,3v3_uC*%
X66055000Y-97975000D03*
%TD*%
D15*
%TO.P,U1,1,VI*%
%TO.N,/vcc_in*%
X40445000Y-78040000D03*
D16*
%TO.P,U1,2,GND*%
%TO.N,GND*%
X40445000Y-75500000D03*
%TO.P,U1,3,VO*%
%TO.N,/5v_reg*%
X40445000Y-72960000D03*
%TD*%
D17*
%TO.P,TP3,1,1*%
%TO.N,GND*%
X59750000Y-59500000D03*
%TD*%
%TO.P,TP2,1,1*%
%TO.N,/3v3_reg*%
X59750000Y-53000000D03*
%TD*%
%TO.P,TP1,1,1*%
%TO.N,/5v_reg*%
X58500000Y-46000000D03*
%TD*%
D10*
%TO.P,R4,2*%
%TO.N,GND*%
X99250000Y-62190000D03*
%TO.P,R4,1*%
%TO.N,A0*%
X99250000Y-69810000D03*
%TD*%
%TO.P,R3,2*%
%TO.N,GND*%
X96125000Y-62190000D03*
%TO.P,R3,1*%
%TO.N,A0*%
X96125000Y-69810000D03*
%TD*%
%TO.P,R2,2*%
%TO.N,A0*%
X93000000Y-62190000D03*
%TO.P,R2,1*%
%TO.N,Echo*%
X93000000Y-69810000D03*
%TD*%
%TO.P,R1,1*%
%TO.N,Net-(D2-K)*%
X44000000Y-56500000D03*
%TO.P,R1,2*%
%TO.N,GND*%
X36380000Y-56500000D03*
%TD*%
D12*
%TO.P,J15,3,Pin_3*%
%TO.N,3v3*%
X66000000Y-111680000D03*
%TO.P,J15,2,Pin_2*%
%TO.N,3v3_uC*%
X66000000Y-109140000D03*
D13*
%TO.P,J15,1,Pin_1*%
%TO.N,unconnected-(J15-Pin_1-Pad1)*%
X66000000Y-106600000D03*
%TD*%
%TO.P,J12,1,Pin_1*%
%TO.N,5v*%
X85400000Y-54270000D03*
D12*
%TO.P,J12,2,Pin_2*%
%TO.N,Net-(J10-Pin_1)*%
X87940000Y-54270000D03*
%TO.P,J12,3,Pin_3*%
%TO.N,unconnected-(J12-Pin_3-Pad3)*%
X90480000Y-54270000D03*
%TD*%
%TO.P,J11,3,Pin_3*%
%TO.N,unconnected-(J11-Pin_3-Pad3)*%
X106750000Y-93597651D03*
%TO.P,J11,2,Pin_2*%
%TO.N,/3v3_nrf*%
X106750000Y-96137651D03*
D13*
%TO.P,J11,1,Pin_1*%
%TO.N,3v3*%
X106750000Y-98677651D03*
%TD*%
D18*
%TO.P,J10,3,Pin_3*%
%TO.N,GND*%
X90500000Y-47330000D03*
%TO.P,J10,2,Pin_2*%
%TO.N,B9*%
X88000000Y-47330000D03*
D19*
%TO.P,J10,1,Pin_1*%
%TO.N,Net-(J10-Pin_1)*%
X85500000Y-47330000D03*
%TD*%
D13*
%TO.P,J9,1,Pin_1*%
%TO.N,5v*%
X99750000Y-54270000D03*
D12*
%TO.P,J9,2,Pin_2*%
%TO.N,Net-(J4-Pin_1)*%
X97210000Y-54270000D03*
%TO.P,J9,3,Pin_3*%
%TO.N,unconnected-(J9-Pin_3-Pad3)*%
X94670000Y-54270000D03*
%TD*%
D20*
%TO.P,J8,3,Pin_3*%
%TO.N,GND*%
X41250000Y-91000000D03*
%TO.P,J8,2,Pin_2*%
%TO.N,A10*%
X41250000Y-88500000D03*
D21*
%TO.P,J8,1,Pin_1*%
%TO.N,A9*%
X41250000Y-86000000D03*
%TD*%
D22*
%TO.P,J4,4,Pin_4*%
%TO.N,GND*%
X103000000Y-45780000D03*
%TO.P,J4,3,Pin_3*%
%TO.N,Echo*%
X101000000Y-45780000D03*
%TO.P,J4,2,Pin_2*%
%TO.N,A1*%
X99000000Y-45780000D03*
D23*
%TO.P,J4,1,Pin_1*%
%TO.N,Net-(J4-Pin_1)*%
X97000000Y-45780000D03*
%TD*%
D13*
%TO.P,J3,1,Pin_1*%
%TO.N,5v*%
X65960000Y-48000000D03*
D12*
%TO.P,J3,2,Pin_2*%
%TO.N,/5v_reg*%
X63420000Y-48000000D03*
%TD*%
%TO.P,J2,2,Pin_2*%
%TO.N,/3v3_reg*%
X63460000Y-53000000D03*
D13*
%TO.P,J2,1,Pin_1*%
%TO.N,3v3*%
X66000000Y-53000000D03*
%TD*%
D24*
%TO.P,J1,1,Pin_1*%
%TO.N,Net-(J1-Pin_1)*%
X44000000Y-48000000D03*
D25*
%TO.P,J1,2,Pin_2*%
%TO.N,GND*%
X38000000Y-48000000D03*
D26*
%TO.P,J1,3,Pin_3*%
%TO.N,unconnected-(J1-Pin_3-Pad3)*%
X41000000Y-52700000D03*
%TD*%
D10*
%TO.P,F1,2*%
%TO.N,Net-(D1-A)*%
X48500000Y-50500000D03*
%TO.P,F1,1*%
%TO.N,Net-(J1-Pin_1)*%
X48510000Y-45420000D03*
%TD*%
D27*
%TO.P,D2,1,K*%
%TO.N,Net-(D2-K)*%
X46960000Y-55000000D03*
D28*
%TO.P,D2,2,A*%
%TO.N,/vcc_in*%
X49500000Y-55000000D03*
%TD*%
D29*
%TO.P,D1,1,K*%
%TO.N,/vcc_in*%
X52500000Y-55000000D03*
D30*
%TO.P,D1,2,A*%
%TO.N,Net-(D1-A)*%
X52500000Y-44840000D03*
%TD*%
D14*
%TO.P,C5,2*%
%TO.N,GND*%
X111000000Y-93652651D03*
%TO.P,C5,1*%
%TO.N,3v3*%
X111000000Y-98652651D03*
%TD*%
%TO.P,C4,2*%
%TO.N,GND*%
X117250000Y-94402651D03*
D31*
%TO.P,C4,1*%
%TO.N,3v3*%
X117250000Y-97902651D03*
%TD*%
%TO.P,C2,1*%
%TO.N,/5v_reg*%
X50500000Y-63000000D03*
D14*
%TO.P,C2,2*%
%TO.N,GND*%
X54000000Y-63000000D03*
%TD*%
D11*
%TO.P,C1,1*%
%TO.N,/vcc_in*%
X42500000Y-63500000D03*
D10*
%TO.P,C1,2*%
%TO.N,GND*%
X37500000Y-63500000D03*
%TD*%
D32*
%TO.P,U2,1,ADJ*%
%TO.N,GND*%
X46000000Y-75600000D03*
%TO.P,U2,2,VO*%
%TO.N,/3v3_reg*%
X46000000Y-73300000D03*
D33*
X52300000Y-73300000D03*
D32*
%TO.P,U2,3,VI*%
%TO.N,/5v_reg*%
X46000000Y-71000000D03*
%TD*%
D18*
%TO.P,J13,3,Pin_3*%
%TO.N,GND*%
X78500000Y-47330000D03*
%TO.P,J13,2,Pin_2*%
%TO.N,B1*%
X76000000Y-47330000D03*
D19*
%TO.P,J13,1,Pin_1*%
%TO.N,Net-(J13-Pin_1)*%
X73500000Y-47330000D03*
%TD*%
D34*
%TO.N,GND*%
X106750000Y-70750000D03*
X106500000Y-82500000D03*
%TO.N,/3v3_nrf*%
X108250000Y-80500000D03*
%TO.N,A1*%
X95750000Y-79330000D03*
X95750000Y-89750000D03*
%TO.N,A0*%
X99000000Y-88050000D03*
X99102207Y-76102207D03*
%TO.N,Echo*%
X98943258Y-72190320D03*
X104000000Y-72000000D03*
%TO.N,5v*%
X78250000Y-57750000D03*
X85750000Y-57750000D03*
%TO.N,B9*%
X91440000Y-51810000D03*
X77937207Y-51812793D03*
%TO.N,B1*%
X84250000Y-67250000D03*
X84250000Y-74750000D03*
%TO.N,5v*%
X69500000Y-44500000D03*
X69500000Y-52250000D03*
%TO.N,3v3*%
X58866296Y-84866296D03*
X58250000Y-73250000D03*
%TO.N,/3v3_reg*%
X57500000Y-68750000D03*
X52250000Y-68750000D03*
%TO.N,/3v3_nrf*%
X108500000Y-72950000D03*
%TD*%
D35*
%TO.N,3v3*%
X58250000Y-73250000D02*
X60000000Y-71500000D01*
X60000000Y-71500000D02*
X60000000Y-67500000D01*
X60000000Y-67500000D02*
X65000000Y-62500000D01*
X65000000Y-62500000D02*
X65000000Y-54288428D01*
X65000000Y-54288428D02*
X66000000Y-53288428D01*
X66000000Y-53288428D02*
X66000000Y-53000000D01*
X62250000Y-98500000D02*
X61000000Y-99750000D01*
X58866296Y-84866296D02*
X62250000Y-88250000D01*
X62250000Y-88250000D02*
X62250000Y-98500000D01*
X64797919Y-111680000D02*
X66000000Y-111680000D01*
X61000000Y-99750000D02*
X61000000Y-107882081D01*
X61000000Y-107882081D02*
X64797919Y-111680000D01*
%TO.N,/3v3_reg*%
X57500000Y-68750000D02*
X57500000Y-66500000D01*
X62750000Y-61250000D02*
X62750000Y-53710000D01*
X57500000Y-66500000D02*
X62750000Y-61250000D01*
X62750000Y-53710000D02*
X63460000Y-53000000D01*
%TO.N,3v3*%
X66000000Y-111680000D02*
X70570000Y-116250000D01*
X70570000Y-116250000D02*
X91000000Y-116250000D01*
X104822349Y-98677651D02*
X106750000Y-98677651D01*
X91000000Y-116250000D02*
X96500000Y-110750000D01*
X96500000Y-110750000D02*
X96500000Y-107000000D01*
X96500000Y-107000000D02*
X104822349Y-98677651D01*
D36*
%TO.N,A0*%
X99000000Y-88050000D02*
X99000000Y-90200000D01*
X99000000Y-90200000D02*
X87750000Y-101450000D01*
%TO.N,A1*%
X95750000Y-89750000D02*
X95750000Y-90910000D01*
X95750000Y-90910000D02*
X87750000Y-98910000D01*
X98420000Y-79330000D02*
X101400000Y-76350000D01*
X95750000Y-79330000D02*
X98420000Y-79330000D01*
X101400000Y-76350000D02*
X101400000Y-52620000D01*
X101400000Y-52620000D02*
X99000000Y-50220000D01*
X99000000Y-50220000D02*
X99000000Y-45780000D01*
%TO.N,A0*%
X99102207Y-76102207D02*
X95602207Y-76102207D01*
X95602207Y-76102207D02*
X91200000Y-71700000D01*
X91200000Y-63990000D02*
X93000000Y-62190000D01*
X91200000Y-71700000D02*
X91200000Y-63990000D01*
%TO.N,A4*%
X113290000Y-79750000D02*
X113290000Y-79704415D01*
X107840000Y-77910000D02*
X100880000Y-84870000D01*
X113290000Y-79704415D02*
X111495585Y-77910000D01*
X111495585Y-77910000D02*
X107840000Y-77910000D01*
X100880000Y-84870000D02*
X94170000Y-84870000D01*
X94170000Y-84870000D02*
X87750000Y-91290000D01*
%TO.N,A3*%
X113290000Y-82250000D02*
X113290000Y-83664213D01*
X111904213Y-85050000D02*
X105700000Y-85050000D01*
X113290000Y-83664213D02*
X111904213Y-85050000D01*
X105700000Y-85050000D02*
X104500000Y-86250000D01*
X104500000Y-86250000D02*
X96000000Y-86250000D01*
X96000000Y-86250000D02*
X88420000Y-93830000D01*
X88420000Y-93830000D02*
X87750000Y-93830000D01*
%TO.N,A6*%
X118370000Y-82250000D02*
X118370000Y-83664213D01*
X118370000Y-83664213D02*
X113534213Y-88500000D01*
X86569491Y-114460000D02*
X84900000Y-112790509D01*
X113534213Y-88500000D02*
X109447056Y-88500000D01*
X109447056Y-88500000D02*
X90600000Y-107347056D01*
X90600000Y-107347056D02*
X90600000Y-112790509D01*
X90600000Y-112790509D02*
X88930509Y-114460000D01*
X88930509Y-114460000D02*
X86569491Y-114460000D01*
X84900000Y-112790509D02*
X84900000Y-89060000D01*
X84900000Y-89060000D02*
X87750000Y-86210000D01*
%TO.N,A5*%
X115830000Y-82250000D02*
X115830000Y-83664213D01*
X115830000Y-83664213D02*
X113244213Y-86250000D01*
X107700000Y-87304415D02*
X107700000Y-88550000D01*
X113244213Y-86250000D02*
X108754415Y-86250000D01*
X87066547Y-113260000D02*
X86100000Y-112293453D01*
X108754415Y-86250000D02*
X107700000Y-87304415D01*
X107700000Y-88550000D02*
X89400000Y-106850000D01*
X89400000Y-106850000D02*
X89400000Y-112293453D01*
X89400000Y-112293453D02*
X88433453Y-113260000D01*
X88433453Y-113260000D02*
X87066547Y-113260000D01*
X86100000Y-112293453D02*
X86100000Y-90400000D01*
X86100000Y-90400000D02*
X87750000Y-88750000D01*
D35*
%TO.N,GND*%
X72250000Y-109070000D02*
X71910000Y-109070000D01*
X71910000Y-109070000D02*
X66155000Y-103315000D01*
X66155000Y-103315000D02*
X66155000Y-102975000D01*
X106750000Y-70750000D02*
X109000000Y-70750000D01*
X109000000Y-70750000D02*
X115663251Y-70750000D01*
X109000000Y-51780000D02*
X103000000Y-45780000D01*
X109000000Y-70750000D02*
X109000000Y-51780000D01*
X117250000Y-91000000D02*
X117250000Y-94402651D01*
X115663251Y-70750000D02*
X123750000Y-78836749D01*
X123750000Y-78836749D02*
X123750000Y-84500000D01*
X123750000Y-84500000D02*
X117250000Y-91000000D01*
X106650000Y-82650000D02*
X106500000Y-82500000D01*
X110350000Y-82650000D02*
X106650000Y-82650000D01*
X110750000Y-82250000D02*
X110350000Y-82650000D01*
%TO.N,/3v3_nrf*%
X109040000Y-79710000D02*
X108250000Y-80500000D01*
X110750000Y-79710000D02*
X109040000Y-79710000D01*
X106750000Y-96137651D02*
X107952081Y-96137651D01*
X107952081Y-96137651D02*
X109050000Y-95039732D01*
X115176245Y-72950000D02*
X108500000Y-72950000D01*
X109050000Y-95039732D02*
X109050000Y-92844934D01*
X109050000Y-92844934D02*
X111644934Y-90250000D01*
X111644934Y-90250000D02*
X113976245Y-90250000D01*
X113976245Y-90250000D02*
X121500000Y-82726245D01*
X121500000Y-79273755D02*
X115176245Y-72950000D01*
X121500000Y-82726245D02*
X121500000Y-79273755D01*
%TO.N,GND*%
X117250000Y-94402651D02*
X111750000Y-94402651D01*
X111750000Y-94402651D02*
X111000000Y-93652651D01*
%TO.N,3v3*%
X117250000Y-97902651D02*
X111750000Y-97902651D01*
X111750000Y-97902651D02*
X111000000Y-98652651D01*
X106750000Y-98677651D02*
X110975000Y-98677651D01*
X110975000Y-98677651D02*
X111000000Y-98652651D01*
D36*
%TO.N,A7*%
X87750000Y-83670000D02*
X99580000Y-83670000D01*
%TO.N,B0*%
X87750000Y-81130000D02*
X100120000Y-81130000D01*
%TO.N,3v3_uC*%
X66055000Y-97975000D02*
X63000000Y-101030000D01*
X63000000Y-101030000D02*
X63000000Y-107690049D01*
X63000000Y-107690049D02*
X64449951Y-109140000D01*
X64449951Y-109140000D02*
X66000000Y-109140000D01*
%TO.N,GND*%
X66155000Y-102975000D02*
X66055000Y-102975000D01*
D35*
X96125000Y-62190000D02*
X93975000Y-60040000D01*
X93975000Y-60040000D02*
X91060000Y-60040000D01*
X91060000Y-60040000D02*
X87750000Y-63350000D01*
D36*
%TO.N,Echo*%
X95380320Y-72190320D02*
X93000000Y-69810000D01*
X101000000Y-45780000D02*
X101000000Y-46055000D01*
X98943258Y-72190320D02*
X95380320Y-72190320D01*
X101000000Y-46055000D02*
X104000000Y-49055000D01*
X104000000Y-49055000D02*
X104000000Y-72000000D01*
%TO.N,5v*%
X98100000Y-55920000D02*
X87050000Y-55920000D01*
X87050000Y-55920000D02*
X85400000Y-54270000D01*
X99750000Y-54270000D02*
X98100000Y-55920000D01*
X85400000Y-54270000D02*
X85400000Y-57400000D01*
X85400000Y-57400000D02*
X85750000Y-57750000D01*
X78250000Y-57750000D02*
X76790000Y-57750000D01*
X76790000Y-57750000D02*
X73310000Y-54270000D01*
%TO.N,B9*%
X91440000Y-51810000D02*
X88000000Y-48370000D01*
X88000000Y-48370000D02*
X88000000Y-47330000D01*
X73900000Y-102340000D02*
X72250000Y-103990000D01*
X77937207Y-51812793D02*
X78266246Y-51812793D01*
X78266246Y-51812793D02*
X80250000Y-53796547D01*
X80250000Y-53796547D02*
X80250000Y-71750000D01*
X80250000Y-71750000D02*
X73900000Y-78100000D01*
X73900000Y-78100000D02*
X73900000Y-102340000D01*
%TO.N,B1*%
X76000000Y-47330000D02*
X81850000Y-53180000D01*
X81850000Y-53180000D02*
X81850000Y-64850000D01*
X81850000Y-64850000D02*
X84250000Y-67250000D01*
X84250000Y-75090000D02*
X87750000Y-78590000D01*
X84250000Y-74750000D02*
X84250000Y-75090000D01*
%TO.N,Net-(J13-Pin_1)*%
X73500000Y-47330000D02*
X73500000Y-50500000D01*
X73500000Y-50500000D02*
X75850000Y-52850000D01*
X75850000Y-52850000D02*
X75850000Y-54270000D01*
D35*
%TO.N,GND*%
X96125000Y-62190000D02*
X99250000Y-62190000D01*
%TO.N,5v*%
X73310000Y-54270000D02*
X71520000Y-54270000D01*
X71520000Y-54270000D02*
X69500000Y-52250000D01*
X69500000Y-44500000D02*
X69460000Y-44500000D01*
X69460000Y-44500000D02*
X65960000Y-48000000D01*
%TO.N,/5v_reg*%
X54750000Y-56750000D02*
X54750000Y-48750000D01*
X50500000Y-63000000D02*
X50500000Y-61000000D01*
X50500000Y-61000000D02*
X54750000Y-56750000D01*
X54750000Y-48750000D02*
X57500000Y-46000000D01*
X57500000Y-46000000D02*
X58500000Y-46000000D01*
X58500000Y-46000000D02*
X61420000Y-46000000D01*
X61420000Y-46000000D02*
X63420000Y-48000000D01*
%TO.N,GND*%
X78500000Y-47330000D02*
X78500000Y-46876573D01*
X76828427Y-45205000D02*
X72295000Y-45205000D01*
X58250000Y-49500000D02*
X57000000Y-50750000D01*
X57500000Y-59500000D02*
X54000000Y-63000000D01*
X78500000Y-46876573D02*
X76828427Y-45205000D01*
X72295000Y-45205000D02*
X67500000Y-50000000D01*
X67500000Y-50000000D02*
X61750000Y-50000000D01*
X61250000Y-49500000D02*
X58250000Y-49500000D01*
X57000000Y-56750000D02*
X59750000Y-59500000D01*
X61750000Y-50000000D02*
X61250000Y-49500000D01*
X57000000Y-50750000D02*
X57000000Y-56750000D01*
X59750000Y-59500000D02*
X57500000Y-59500000D01*
%TO.N,/3v3_reg*%
X63460000Y-53000000D02*
X59750000Y-53000000D01*
%TO.N,GND*%
X90500000Y-47330000D02*
X90500000Y-46876573D01*
X90500000Y-46876573D02*
X88828427Y-45205000D01*
X88828427Y-45205000D02*
X80625000Y-45205000D01*
X80625000Y-45205000D02*
X78500000Y-47330000D01*
X103000000Y-45780000D02*
X103000000Y-45030126D01*
X103000000Y-45030126D02*
X101724874Y-43755000D01*
X101724874Y-43755000D02*
X94075000Y-43755000D01*
X94075000Y-43755000D02*
X90500000Y-47330000D01*
X87750000Y-63350000D02*
X83400000Y-59000000D01*
X83400000Y-59000000D02*
X83400000Y-52230000D01*
X83400000Y-52230000D02*
X78500000Y-47330000D01*
X87750000Y-65890000D02*
X87750000Y-63350000D01*
%TO.N,3v3_uC*%
X72250000Y-111610000D02*
X72890000Y-111610000D01*
X72890000Y-111610000D02*
X80250000Y-104250000D01*
X80250000Y-104250000D02*
X80250000Y-75641572D01*
X87461572Y-68430000D02*
X87750000Y-68430000D01*
X80250000Y-75641572D02*
X87461572Y-68430000D01*
X66000000Y-109140000D02*
X68640000Y-109140000D01*
X68640000Y-109140000D02*
X71110000Y-111610000D01*
X71110000Y-111610000D02*
X72250000Y-111610000D01*
%TO.N,GND*%
X66055000Y-102975000D02*
X68150000Y-100880000D01*
X68150000Y-100880000D02*
X68150000Y-83359440D01*
X68150000Y-83359440D02*
X66790560Y-82000000D01*
X58692032Y-82000000D02*
X49692032Y-91000000D01*
X66790560Y-82000000D02*
X58692032Y-82000000D01*
X49692032Y-91000000D02*
X41250000Y-91000000D01*
X38295000Y-80142500D02*
X38295000Y-90270000D01*
X38295000Y-90270000D02*
X39025000Y-91000000D01*
X39025000Y-91000000D02*
X41250000Y-91000000D01*
D36*
%TO.N,A10*%
X41250000Y-88500000D02*
X50000000Y-88500000D01*
X50000000Y-88500000D02*
X59910000Y-78590000D01*
X59910000Y-78590000D02*
X72250000Y-78590000D01*
%TO.N,A9*%
X41250000Y-86000000D02*
X47000000Y-86000000D01*
X47000000Y-86000000D02*
X56950000Y-76050000D01*
X56950000Y-76050000D02*
X72250000Y-76050000D01*
%TO.N,Net-(J10-Pin_1)*%
X87940000Y-54270000D02*
X87940000Y-52270000D01*
X87940000Y-52270000D02*
X85500000Y-49830000D01*
X85500000Y-49830000D02*
X85500000Y-47330000D01*
%TO.N,A0*%
X96125000Y-69810000D02*
X99250000Y-69810000D01*
X93000000Y-62190000D02*
X93000000Y-64190000D01*
X93000000Y-64190000D02*
X96125000Y-67315000D01*
X96125000Y-67315000D02*
X96125000Y-69810000D01*
D35*
%TO.N,/3v3_reg*%
X52300000Y-73300000D02*
X52300000Y-68800000D01*
X52300000Y-68800000D02*
X52250000Y-68750000D01*
%TO.N,/5v_reg*%
X46000000Y-71000000D02*
X46000000Y-67500000D01*
X46000000Y-67500000D02*
X50500000Y-63000000D01*
%TO.N,GND*%
X54000000Y-63000000D02*
X55000000Y-64000000D01*
X55000000Y-64000000D02*
X55000000Y-74840724D01*
X46900000Y-76500000D02*
X46000000Y-75600000D01*
X55000000Y-74840724D02*
X53340724Y-76500000D01*
X53340724Y-76500000D02*
X46900000Y-76500000D01*
X46000000Y-75600000D02*
X46000000Y-76737500D01*
X46000000Y-76737500D02*
X42595000Y-80142500D01*
X36000000Y-77847500D02*
X36000000Y-65000000D01*
X42595000Y-80142500D02*
X38295000Y-80142500D01*
X38295000Y-80142500D02*
X36000000Y-77847500D01*
X36000000Y-65000000D02*
X37500000Y-63500000D01*
%TO.N,/vcc_in*%
X40445000Y-78040000D02*
X39817110Y-78040000D01*
X39817110Y-78040000D02*
X38000000Y-76222890D01*
X38000000Y-76222890D02*
X38000000Y-68000000D01*
X38000000Y-68000000D02*
X42500000Y-63500000D01*
X49500000Y-55000000D02*
X49500000Y-56500000D01*
X49500000Y-56500000D02*
X42500000Y-63500000D01*
%TO.N,GND*%
X36380000Y-56500000D02*
X36380000Y-62380000D01*
X36380000Y-62380000D02*
X37500000Y-63500000D01*
%TO.N,/3v3_reg*%
X46000000Y-73300000D02*
X52300000Y-73300000D01*
%TO.N,/5v_reg*%
X46000000Y-71000000D02*
X42405000Y-71000000D01*
X42405000Y-71000000D02*
X40445000Y-72960000D01*
%TO.N,GND*%
X46000000Y-75600000D02*
X40545000Y-75600000D01*
X40545000Y-75600000D02*
X40445000Y-75500000D01*
X40445000Y-75500000D02*
X39964116Y-75500000D01*
%TO.N,Net-(J1-Pin_1)*%
X48510000Y-45420000D02*
X46580000Y-45420000D01*
X46580000Y-45420000D02*
X44000000Y-48000000D01*
%TO.N,Net-(D1-A)*%
X48500000Y-50500000D02*
X52500000Y-46500000D01*
X52500000Y-46500000D02*
X52500000Y-44840000D01*
%TO.N,Net-(D2-K)*%
X46960000Y-55000000D02*
X45500000Y-55000000D01*
X45500000Y-55000000D02*
X44000000Y-56500000D01*
%TO.N,/vcc_in*%
X49500000Y-55000000D02*
X52500000Y-55000000D01*
%TO.N,GND*%
X38000000Y-48000000D02*
X38000000Y-54880000D01*
X38000000Y-54880000D02*
X36380000Y-56500000D01*
D36*
%TO.N,Net-(J4-Pin_1)*%
X97210000Y-54270000D02*
X97210000Y-51480000D01*
X97210000Y-51480000D02*
X97000000Y-51270000D01*
X97000000Y-51270000D02*
X97000000Y-45780000D01*
%TO.N,B0*%
X106500000Y-74750000D02*
X114784213Y-74750000D01*
%TO.N,A7*%
X113744213Y-76250000D02*
X115830000Y-78335787D01*
X115830000Y-78335787D02*
X115830000Y-79750000D01*
X107000000Y-76250000D02*
X113744213Y-76250000D01*
X99580000Y-83670000D02*
X107000000Y-76250000D01*
%TO.N,B0*%
X114784213Y-74750000D02*
X118370000Y-78335787D01*
X118370000Y-78335787D02*
X118370000Y-79750000D01*
X100120000Y-81130000D02*
X106500000Y-74750000D01*
%TD*%
%TA.AperFunction,NonConductor*%
G36*
X125442539Y-41770185D02*
G01*
X125488294Y-41822989D01*
X125499500Y-41874500D01*
X125499500Y-118125500D01*
X125479815Y-118192539D01*
X125427011Y-118238294D01*
X125375500Y-118249500D01*
X32374500Y-118249500D01*
X32307461Y-118229815D01*
X32261706Y-118177011D01*
X32250500Y-118125500D01*
X32250500Y-110635258D01*
X36249500Y-110635258D01*
X36249500Y-110864741D01*
X36267594Y-111002169D01*
X36279452Y-111092238D01*
X36279453Y-111092240D01*
X36338842Y-111313887D01*
X36426650Y-111525876D01*
X36426657Y-111525890D01*
X36541392Y-111724617D01*
X36681081Y-111906661D01*
X36681089Y-111906670D01*
X36843330Y-112068911D01*
X36843338Y-112068918D01*
X37025382Y-112208607D01*
X37025385Y-112208608D01*
X37025388Y-112208611D01*
X37224112Y-112323344D01*
X37224117Y-112323346D01*
X37224123Y-112323349D01*
X37315480Y-112361190D01*
X37436113Y-112411158D01*
X37657762Y-112470548D01*
X37885266Y-112500500D01*
X37885273Y-112500500D01*
X38114727Y-112500500D01*
X38114734Y-112500500D01*
X38342238Y-112470548D01*
X38563887Y-112411158D01*
X38775888Y-112323344D01*
X38974612Y-112208611D01*
X39156661Y-112068919D01*
X39156665Y-112068914D01*
X39156670Y-112068911D01*
X39318911Y-111906670D01*
X39318914Y-111906665D01*
X39318919Y-111906661D01*
X39458611Y-111724612D01*
X39573344Y-111525888D01*
X39661158Y-111313887D01*
X39720548Y-111092238D01*
X39750500Y-110864734D01*
X39750500Y-110635266D01*
X39720548Y-110407762D01*
X39661158Y-110186113D01*
X39573344Y-109974112D01*
X39458611Y-109775388D01*
X39458608Y-109775385D01*
X39458607Y-109775382D01*
X39318918Y-109593338D01*
X39318911Y-109593330D01*
X39156670Y-109431089D01*
X39156661Y-109431081D01*
X38974617Y-109291392D01*
X38775890Y-109176657D01*
X38775876Y-109176650D01*
X38563887Y-109088842D01*
X38342238Y-109029452D01*
X38304215Y-109024446D01*
X38114741Y-108999500D01*
X38114734Y-108999500D01*
X37885266Y-108999500D01*
X37885258Y-108999500D01*
X37668715Y-109028009D01*
X37657762Y-109029452D01*
X37564076Y-109054554D01*
X37436112Y-109088842D01*
X37224123Y-109176650D01*
X37224109Y-109176657D01*
X37025382Y-109291392D01*
X36843338Y-109431081D01*
X36681081Y-109593338D01*
X36541392Y-109775382D01*
X36426657Y-109974109D01*
X36426650Y-109974123D01*
X36338842Y-110186112D01*
X36279453Y-110407759D01*
X36279451Y-110407770D01*
X36249500Y-110635258D01*
X32250500Y-110635258D01*
X32250500Y-64901577D01*
X34749500Y-64901577D01*
X34749500Y-77945922D01*
X34780290Y-78140326D01*
X34841117Y-78327530D01*
X34923304Y-78488830D01*
X34930476Y-78502905D01*
X35046172Y-78662146D01*
X35046174Y-78662148D01*
X37008181Y-80624155D01*
X37041666Y-80685478D01*
X37044500Y-80711836D01*
X37044500Y-90368422D01*
X37075290Y-90562826D01*
X37136117Y-90750030D01*
X37190998Y-90857738D01*
X37225476Y-90925405D01*
X37341172Y-91084646D01*
X38210354Y-91953828D01*
X38369595Y-92069524D01*
X38544974Y-92158884D01*
X38552721Y-92161401D01*
X38687310Y-92205132D01*
X38732173Y-92219709D01*
X38926578Y-92250500D01*
X38926583Y-92250500D01*
X38926584Y-92250500D01*
X39123417Y-92250500D01*
X40583694Y-92250500D01*
X40622012Y-92256569D01*
X40681852Y-92276012D01*
X40808757Y-92317246D01*
X41018713Y-92350500D01*
X41018714Y-92350500D01*
X41481286Y-92350500D01*
X41481287Y-92350500D01*
X41691243Y-92317246D01*
X41822226Y-92274686D01*
X41877988Y-92256569D01*
X41916306Y-92250500D01*
X49790454Y-92250500D01*
X49984858Y-92219709D01*
X50004998Y-92213165D01*
X50172058Y-92158884D01*
X50347437Y-92069524D01*
X50506678Y-91953828D01*
X57219844Y-85240660D01*
X57281165Y-85207177D01*
X57350857Y-85212161D01*
X57406790Y-85254033D01*
X57427729Y-85297902D01*
X57442233Y-85355178D01*
X57542122Y-85582902D01*
X57678129Y-85791078D01*
X57678132Y-85791081D01*
X57846552Y-85974034D01*
X58042787Y-86126770D01*
X58108221Y-86162181D01*
X58196582Y-86210000D01*
X58261486Y-86245124D01*
X58379240Y-86285549D01*
X58496676Y-86325865D01*
X58496681Y-86325867D01*
X58530369Y-86331488D01*
X58593255Y-86361937D01*
X58597642Y-86366116D01*
X60963181Y-88731655D01*
X60996666Y-88792978D01*
X60999500Y-88819336D01*
X60999500Y-97930664D01*
X60979815Y-97997703D01*
X60963181Y-98018345D01*
X60046174Y-98935351D01*
X60046174Y-98935352D01*
X60046172Y-98935354D01*
X59996485Y-99003741D01*
X59930476Y-99094594D01*
X59841115Y-99269973D01*
X59841114Y-99269976D01*
X59804095Y-99383913D01*
X59780290Y-99457176D01*
X59780290Y-99457177D01*
X59749500Y-99651577D01*
X59749500Y-107980503D01*
X59780290Y-108174907D01*
X59841117Y-108362111D01*
X59856434Y-108392171D01*
X59930476Y-108537486D01*
X60046172Y-108696727D01*
X63983274Y-112633829D01*
X64055033Y-112685965D01*
X64142514Y-112749524D01*
X64225374Y-112791743D01*
X64317889Y-112838882D01*
X64317891Y-112838882D01*
X64317894Y-112838884D01*
X64384421Y-112860500D01*
X64505092Y-112899709D01*
X64699497Y-112930500D01*
X64699502Y-112930500D01*
X64699503Y-112930500D01*
X64896336Y-112930500D01*
X65430664Y-112930500D01*
X65497703Y-112950185D01*
X65518345Y-112966819D01*
X69755354Y-117203828D01*
X69914595Y-117319524D01*
X69997454Y-117361742D01*
X70089969Y-117408882D01*
X70089971Y-117408882D01*
X70089974Y-117408884D01*
X70190318Y-117441487D01*
X70277173Y-117469709D01*
X70471578Y-117500500D01*
X70471583Y-117500500D01*
X91098422Y-117500500D01*
X91292826Y-117469709D01*
X91480026Y-117408884D01*
X91655405Y-117319524D01*
X91814646Y-117203828D01*
X97453829Y-111564645D01*
X97569524Y-111405405D01*
X97658884Y-111230026D01*
X97719709Y-111042826D01*
X97726148Y-111002169D01*
X97750500Y-110848421D01*
X97750500Y-110635258D01*
X119249500Y-110635258D01*
X119249500Y-110864741D01*
X119267594Y-111002169D01*
X119279452Y-111092238D01*
X119279453Y-111092240D01*
X119338842Y-111313887D01*
X119426650Y-111525876D01*
X119426657Y-111525890D01*
X119541392Y-111724617D01*
X119681081Y-111906661D01*
X119681089Y-111906670D01*
X119843330Y-112068911D01*
X119843338Y-112068918D01*
X120025382Y-112208607D01*
X120025385Y-112208608D01*
X120025388Y-112208611D01*
X120224112Y-112323344D01*
X120224117Y-112323346D01*
X120224123Y-112323349D01*
X120315480Y-112361190D01*
X120436113Y-112411158D01*
X120657762Y-112470548D01*
X120885266Y-112500500D01*
X120885273Y-112500500D01*
X121114727Y-112500500D01*
X121114734Y-112500500D01*
X121342238Y-112470548D01*
X121563887Y-112411158D01*
X121775888Y-112323344D01*
X121974612Y-112208611D01*
X122156661Y-112068919D01*
X122156665Y-112068914D01*
X122156670Y-112068911D01*
X122318911Y-111906670D01*
X122318914Y-111906665D01*
X122318919Y-111906661D01*
X122458611Y-111724612D01*
X122573344Y-111525888D01*
X122661158Y-111313887D01*
X122720548Y-111092238D01*
X122750500Y-110864734D01*
X122750500Y-110635266D01*
X122720548Y-110407762D01*
X122661158Y-110186113D01*
X122573344Y-109974112D01*
X122458611Y-109775388D01*
X122458608Y-109775385D01*
X122458607Y-109775382D01*
X122318918Y-109593338D01*
X122318911Y-109593330D01*
X122156670Y-109431089D01*
X122156661Y-109431081D01*
X121974617Y-109291392D01*
X121775890Y-109176657D01*
X121775876Y-109176650D01*
X121563887Y-109088842D01*
X121342238Y-109029452D01*
X121304215Y-109024446D01*
X121114741Y-108999500D01*
X121114734Y-108999500D01*
X120885266Y-108999500D01*
X120885258Y-108999500D01*
X120668715Y-109028009D01*
X120657762Y-109029452D01*
X120564076Y-109054554D01*
X120436112Y-109088842D01*
X120224123Y-109176650D01*
X120224109Y-109176657D01*
X120025382Y-109291392D01*
X119843338Y-109431081D01*
X119681081Y-109593338D01*
X119541392Y-109775382D01*
X119426657Y-109974109D01*
X119426650Y-109974123D01*
X119338842Y-110186112D01*
X119279453Y-110407759D01*
X119279451Y-110407770D01*
X119249500Y-110635258D01*
X97750500Y-110635258D01*
X97750500Y-107569336D01*
X97770185Y-107502297D01*
X97786819Y-107481655D01*
X105304004Y-99964470D01*
X105365327Y-99930985D01*
X105391685Y-99928151D01*
X105558561Y-99928151D01*
X105625600Y-99947836D01*
X105632872Y-99952884D01*
X105657668Y-99971446D01*
X105657671Y-99971448D01*
X105792517Y-100021742D01*
X105792516Y-100021742D01*
X105799444Y-100022486D01*
X105852127Y-100028151D01*
X107647872Y-100028150D01*
X107707483Y-100021742D01*
X107842331Y-99971447D01*
X107867128Y-99952884D01*
X107932592Y-99928467D01*
X107941439Y-99928151D01*
X110719158Y-99928151D01*
X110751250Y-99932376D01*
X110759006Y-99934453D01*
X110773308Y-99938286D01*
X110935230Y-99952452D01*
X110999998Y-99958119D01*
X111000000Y-99958119D01*
X111000002Y-99958119D01*
X111059836Y-99952884D01*
X111226692Y-99938286D01*
X111446496Y-99879390D01*
X111652734Y-99783219D01*
X111839139Y-99652698D01*
X112000047Y-99491790D01*
X112130568Y-99305385D01*
X112134282Y-99297417D01*
X112158985Y-99262139D01*
X112231657Y-99189469D01*
X112292981Y-99155984D01*
X112319337Y-99153151D01*
X116203271Y-99153151D01*
X116246604Y-99160969D01*
X116342517Y-99196742D01*
X116342516Y-99196742D01*
X116349444Y-99197486D01*
X116402127Y-99203151D01*
X118097872Y-99203150D01*
X118157483Y-99196742D01*
X118292331Y-99146447D01*
X118407546Y-99060197D01*
X118493796Y-98944982D01*
X118544091Y-98810134D01*
X118550500Y-98750524D01*
X118550499Y-97054779D01*
X118544091Y-96995168D01*
X118536551Y-96974953D01*
X118493797Y-96860322D01*
X118493793Y-96860315D01*
X118407547Y-96745106D01*
X118407544Y-96745103D01*
X118292335Y-96658857D01*
X118292328Y-96658853D01*
X118157482Y-96608559D01*
X118157483Y-96608559D01*
X118097883Y-96602152D01*
X118097881Y-96602151D01*
X118097873Y-96602151D01*
X118097864Y-96602151D01*
X116402129Y-96602151D01*
X116402123Y-96602152D01*
X116342516Y-96608559D01*
X116246604Y-96644333D01*
X116203271Y-96652151D01*
X111651578Y-96652151D01*
X111457173Y-96682941D01*
X111269969Y-96743768D01*
X111094594Y-96833127D01*
X111003741Y-96899136D01*
X110935354Y-96948823D01*
X110935352Y-96948825D01*
X110935351Y-96948825D01*
X110493345Y-97390832D01*
X110432022Y-97424317D01*
X110405664Y-97427151D01*
X108686348Y-97427151D01*
X108619309Y-97407466D01*
X108573554Y-97354662D01*
X108563610Y-97285504D01*
X108592635Y-97221948D01*
X108613462Y-97202833D01*
X108766727Y-97091479D01*
X110003828Y-95854378D01*
X110119524Y-95695137D01*
X110208884Y-95519758D01*
X110269709Y-95332558D01*
X110274367Y-95303151D01*
X110300500Y-95138153D01*
X110300500Y-95020987D01*
X110320185Y-94953948D01*
X110372989Y-94908193D01*
X110442147Y-94898249D01*
X110505703Y-94927274D01*
X110512181Y-94933306D01*
X110935354Y-95356479D01*
X111094595Y-95472175D01*
X111146451Y-95498597D01*
X111269969Y-95561533D01*
X111269971Y-95561533D01*
X111269974Y-95561535D01*
X111370318Y-95594138D01*
X111457173Y-95622360D01*
X111651578Y-95653151D01*
X111651583Y-95653151D01*
X111848416Y-95653151D01*
X116875857Y-95653151D01*
X116907949Y-95657375D01*
X117023308Y-95688286D01*
X117185230Y-95702452D01*
X117249998Y-95708119D01*
X117250000Y-95708119D01*
X117250002Y-95708119D01*
X117306673Y-95703160D01*
X117476692Y-95688286D01*
X117696496Y-95629390D01*
X117902734Y-95533219D01*
X118089139Y-95402698D01*
X118250047Y-95241790D01*
X118380568Y-95055385D01*
X118476739Y-94849147D01*
X118535635Y-94629343D01*
X118555468Y-94402651D01*
X118535635Y-94175959D01*
X118504725Y-94060600D01*
X118500500Y-94028507D01*
X118500500Y-91569336D01*
X118520185Y-91502297D01*
X118536819Y-91481655D01*
X121579754Y-88438720D01*
X124703828Y-85314646D01*
X124819524Y-85155405D01*
X124908884Y-84980026D01*
X124969709Y-84792826D01*
X124983066Y-84708493D01*
X125000500Y-84598422D01*
X125000500Y-78738326D01*
X124969709Y-78543924D01*
X124966773Y-78534886D01*
X124955863Y-78501309D01*
X124908884Y-78356723D01*
X124819524Y-78181344D01*
X124703828Y-78022103D01*
X116477897Y-69796172D01*
X116318656Y-69680476D01*
X116270429Y-69655903D01*
X116143281Y-69591117D01*
X115956077Y-69530290D01*
X115761673Y-69499500D01*
X115761668Y-69499500D01*
X110374500Y-69499500D01*
X110307461Y-69479815D01*
X110261706Y-69427011D01*
X110250500Y-69375500D01*
X110250500Y-51681578D01*
X110240932Y-51621173D01*
X110240932Y-51621171D01*
X110219710Y-51487177D01*
X110219709Y-51487176D01*
X110219709Y-51487173D01*
X110181474Y-51369500D01*
X110177964Y-51358696D01*
X110158885Y-51299977D01*
X110123133Y-51229810D01*
X110069524Y-51124595D01*
X109953828Y-50965354D01*
X109814646Y-50826172D01*
X104286819Y-45298345D01*
X104253334Y-45237022D01*
X104250500Y-45210664D01*
X104250500Y-44931704D01*
X104235975Y-44840001D01*
X104235975Y-44839999D01*
X104219710Y-44737303D01*
X104219709Y-44737301D01*
X104219709Y-44737299D01*
X104189024Y-44642861D01*
X104158884Y-44550101D01*
X104158882Y-44550098D01*
X104158882Y-44550096D01*
X104111743Y-44457581D01*
X104069524Y-44374721D01*
X103953828Y-44215480D01*
X103814646Y-44076298D01*
X102539520Y-42801172D01*
X102380279Y-42685476D01*
X102204904Y-42596117D01*
X102017700Y-42535290D01*
X101823296Y-42504500D01*
X101823291Y-42504500D01*
X94173416Y-42504500D01*
X93976583Y-42504500D01*
X93976578Y-42504500D01*
X93782172Y-42535291D01*
X93721348Y-42555053D01*
X93721348Y-42555054D01*
X93678103Y-42569105D01*
X93594970Y-42596117D01*
X93461799Y-42663972D01*
X93419595Y-42685476D01*
X93419594Y-42685477D01*
X93411696Y-42691215D01*
X93411691Y-42691217D01*
X93260352Y-42801173D01*
X90814394Y-45247131D01*
X90753071Y-45280616D01*
X90683379Y-45275632D01*
X90639032Y-45247131D01*
X89643075Y-44251174D01*
X89643073Y-44251172D01*
X89483832Y-44135476D01*
X89308457Y-44046117D01*
X89121253Y-43985290D01*
X88926849Y-43954500D01*
X88926844Y-43954500D01*
X80526583Y-43954500D01*
X80526578Y-43954500D01*
X80332173Y-43985290D01*
X80144969Y-44046117D01*
X79969594Y-44135476D01*
X79880387Y-44200290D01*
X79810354Y-44251172D01*
X79810352Y-44251174D01*
X79810351Y-44251174D01*
X78814394Y-45247131D01*
X78753071Y-45280616D01*
X78683379Y-45275632D01*
X78639032Y-45247131D01*
X77643075Y-44251174D01*
X77643073Y-44251172D01*
X77483832Y-44135476D01*
X77308457Y-44046117D01*
X77121253Y-43985290D01*
X76926849Y-43954500D01*
X76926844Y-43954500D01*
X72393417Y-43954500D01*
X72196583Y-43954500D01*
X72196578Y-43954500D01*
X72002173Y-43985290D01*
X71814969Y-44046117D01*
X71639594Y-44135476D01*
X71480355Y-44251171D01*
X71212093Y-44519432D01*
X71150770Y-44552916D01*
X71081078Y-44547932D01*
X71025145Y-44506060D01*
X71000836Y-44441992D01*
X70985108Y-44252179D01*
X70985107Y-44252175D01*
X70924063Y-44011118D01*
X70824173Y-43783393D01*
X70688166Y-43575217D01*
X70656814Y-43541160D01*
X70519744Y-43392262D01*
X70323509Y-43239526D01*
X70323507Y-43239525D01*
X70323506Y-43239524D01*
X70104811Y-43121172D01*
X70104802Y-43121169D01*
X69869616Y-43040429D01*
X69624335Y-42999500D01*
X69375665Y-42999500D01*
X69130383Y-43040429D01*
X68895197Y-43121169D01*
X68895188Y-43121172D01*
X68676493Y-43239524D01*
X68480257Y-43392261D01*
X68311833Y-43575217D01*
X68175826Y-43783393D01*
X68075935Y-44011122D01*
X68075934Y-44011123D01*
X68048890Y-44117918D01*
X68016366Y-44175158D01*
X65578343Y-46613181D01*
X65517020Y-46646666D01*
X65490662Y-46649500D01*
X65062129Y-46649500D01*
X65062123Y-46649501D01*
X65002516Y-46655908D01*
X64867671Y-46706202D01*
X64867664Y-46706206D01*
X64752455Y-46792452D01*
X64752452Y-46792455D01*
X64666206Y-46907664D01*
X64666203Y-46907669D01*
X64617189Y-47039083D01*
X64575317Y-47095016D01*
X64509853Y-47119433D01*
X64441580Y-47104581D01*
X64413326Y-47083430D01*
X64291402Y-46961506D01*
X64291395Y-46961501D01*
X64097831Y-46825965D01*
X64097829Y-46825964D01*
X63961390Y-46762341D01*
X63926114Y-46737640D01*
X62234648Y-45046174D01*
X62234646Y-45046172D01*
X62075405Y-44930476D01*
X61900030Y-44841117D01*
X61712826Y-44780290D01*
X61518422Y-44749500D01*
X61518417Y-44749500D01*
X59373341Y-44749500D01*
X59314324Y-44734555D01*
X59104816Y-44621175D01*
X59104813Y-44621174D01*
X59104810Y-44621172D01*
X59104804Y-44621170D01*
X59104802Y-44621169D01*
X58869616Y-44540429D01*
X58624335Y-44499500D01*
X58375665Y-44499500D01*
X58130383Y-44540429D01*
X57895197Y-44621169D01*
X57895183Y-44621175D01*
X57685676Y-44734555D01*
X57626659Y-44749500D01*
X57401578Y-44749500D01*
X57207176Y-44780290D01*
X57207171Y-44780291D01*
X57168594Y-44792825D01*
X57168595Y-44792826D01*
X57019970Y-44841117D01*
X56919595Y-44892262D01*
X56844594Y-44930476D01*
X56753741Y-44996485D01*
X56685354Y-45046172D01*
X56685352Y-45046174D01*
X56685351Y-45046174D01*
X53796174Y-47935351D01*
X53796174Y-47935352D01*
X53796172Y-47935354D01*
X53746485Y-48003741D01*
X53680476Y-48094594D01*
X53591115Y-48269973D01*
X53591114Y-48269976D01*
X53549023Y-48399523D01*
X53530290Y-48457176D01*
X53530290Y-48457177D01*
X53499500Y-48651577D01*
X53499500Y-53275500D01*
X53479815Y-53342539D01*
X53427011Y-53388294D01*
X53375500Y-53399500D01*
X51352129Y-53399500D01*
X51352123Y-53399501D01*
X51292516Y-53405908D01*
X51157671Y-53456202D01*
X51157664Y-53456206D01*
X51042455Y-53542452D01*
X51042452Y-53542455D01*
X50956206Y-53657664D01*
X50956204Y-53657668D01*
X50956204Y-53657669D01*
X50952039Y-53668834D01*
X50910171Y-53724766D01*
X50844707Y-53749184D01*
X50835859Y-53749500D01*
X50163232Y-53749500D01*
X50104214Y-53734554D01*
X50064513Y-53713069D01*
X50064507Y-53713066D01*
X50064503Y-53713064D01*
X50064500Y-53713063D01*
X50064498Y-53713062D01*
X49844984Y-53637702D01*
X49654450Y-53605908D01*
X49616049Y-53599500D01*
X49383951Y-53599500D01*
X49360256Y-53603454D01*
X49155015Y-53637702D01*
X48935504Y-53713061D01*
X48935495Y-53713064D01*
X48731371Y-53823531D01*
X48731365Y-53823535D01*
X48548222Y-53966081D01*
X48548218Y-53966085D01*
X48539866Y-53975158D01*
X48479979Y-54011148D01*
X48410141Y-54009047D01*
X48352525Y-53969522D01*
X48332455Y-53934507D01*
X48303797Y-53857671D01*
X48303793Y-53857664D01*
X48217547Y-53742455D01*
X48217544Y-53742452D01*
X48102335Y-53656206D01*
X48102328Y-53656202D01*
X47967482Y-53605908D01*
X47967483Y-53605908D01*
X47907883Y-53599501D01*
X47907881Y-53599500D01*
X47907873Y-53599500D01*
X47907864Y-53599500D01*
X46012129Y-53599500D01*
X46012123Y-53599501D01*
X45952516Y-53605908D01*
X45817671Y-53656202D01*
X45817668Y-53656204D01*
X45726080Y-53724767D01*
X45660615Y-53749184D01*
X45651769Y-53749500D01*
X45401578Y-53749500D01*
X45207176Y-53780290D01*
X45207171Y-53780291D01*
X45169545Y-53792516D01*
X45169546Y-53792517D01*
X45019970Y-53841117D01*
X44855764Y-53924785D01*
X44855763Y-53924784D01*
X44844597Y-53930474D01*
X44795581Y-53966087D01*
X44685354Y-54046172D01*
X44685352Y-54046174D01*
X44685351Y-54046174D01*
X43731345Y-55000179D01*
X43670022Y-55033664D01*
X43664075Y-55034807D01*
X43630382Y-55040429D01*
X43395197Y-55121169D01*
X43395188Y-55121172D01*
X43176493Y-55239524D01*
X42980257Y-55392261D01*
X42811833Y-55575217D01*
X42675826Y-55783393D01*
X42575936Y-56011118D01*
X42514892Y-56252175D01*
X42514890Y-56252187D01*
X42494357Y-56499994D01*
X42494357Y-56500005D01*
X42514890Y-56747812D01*
X42514892Y-56747824D01*
X42575936Y-56988881D01*
X42675826Y-57216606D01*
X42811833Y-57424782D01*
X42811836Y-57424785D01*
X42980256Y-57607738D01*
X43176491Y-57760474D01*
X43395190Y-57878828D01*
X43630386Y-57959571D01*
X43875665Y-58000500D01*
X44124335Y-58000500D01*
X44369614Y-57959571D01*
X44604810Y-57878828D01*
X44823509Y-57760474D01*
X45019744Y-57607738D01*
X45188164Y-57424785D01*
X45324173Y-57216607D01*
X45424063Y-56988881D01*
X45464673Y-56828513D01*
X45497195Y-56771277D01*
X45840420Y-56428052D01*
X45901741Y-56394569D01*
X45944621Y-56394955D01*
X45944804Y-56393262D01*
X45960553Y-56394955D01*
X46012127Y-56400500D01*
X47531663Y-56400499D01*
X47598702Y-56420184D01*
X47644457Y-56472987D01*
X47654401Y-56542146D01*
X47625376Y-56605702D01*
X47619344Y-56612180D01*
X42268343Y-61963181D01*
X42207020Y-61996666D01*
X42180662Y-61999500D01*
X41452129Y-61999500D01*
X41452123Y-61999501D01*
X41392516Y-62005908D01*
X41257671Y-62056202D01*
X41257664Y-62056206D01*
X41142455Y-62142452D01*
X41142452Y-62142455D01*
X41056206Y-62257664D01*
X41056202Y-62257671D01*
X41005908Y-62392517D01*
X41001038Y-62437821D01*
X40999501Y-62452123D01*
X40999500Y-62452135D01*
X40999500Y-63180663D01*
X40979815Y-63247702D01*
X40963181Y-63268344D01*
X37462181Y-66769344D01*
X37400858Y-66802829D01*
X37331166Y-66797845D01*
X37275233Y-66755973D01*
X37250816Y-66690509D01*
X37250500Y-66681663D01*
X37250500Y-65569335D01*
X37270185Y-65502296D01*
X37286815Y-65481658D01*
X37768654Y-64999818D01*
X37829975Y-64966335D01*
X37835926Y-64965192D01*
X37869614Y-64959571D01*
X38104810Y-64878828D01*
X38323509Y-64760474D01*
X38519744Y-64607738D01*
X38688164Y-64424785D01*
X38824173Y-64216607D01*
X38924063Y-63988881D01*
X38985108Y-63747821D01*
X38992987Y-63652734D01*
X39005643Y-63500005D01*
X39005643Y-63499994D01*
X38985109Y-63252187D01*
X38985107Y-63252175D01*
X38924063Y-63011118D01*
X38824173Y-62783393D01*
X38688166Y-62575217D01*
X38666557Y-62551744D01*
X38519744Y-62392262D01*
X38323509Y-62239526D01*
X38323507Y-62239525D01*
X38323506Y-62239524D01*
X38104811Y-62121172D01*
X38104802Y-62121169D01*
X37869617Y-62040429D01*
X37835924Y-62034807D01*
X37773039Y-62004356D01*
X37768653Y-62000179D01*
X37666819Y-61898345D01*
X37633334Y-61837022D01*
X37630500Y-61810664D01*
X37630500Y-57366289D01*
X37650185Y-57299250D01*
X37650691Y-57298468D01*
X37675092Y-57261119D01*
X37704173Y-57216607D01*
X37804063Y-56988881D01*
X37844673Y-56828513D01*
X37877195Y-56771277D01*
X38953828Y-55694646D01*
X39069524Y-55535405D01*
X39158884Y-55360026D01*
X39219709Y-55172826D01*
X39227891Y-55121169D01*
X39250500Y-54978422D01*
X39250500Y-54873208D01*
X39270185Y-54806169D01*
X39322989Y-54760414D01*
X39392147Y-54750470D01*
X39437254Y-54766260D01*
X39529810Y-54820574D01*
X39748874Y-54903245D01*
X39978759Y-54947705D01*
X40031378Y-54950500D01*
X40031386Y-54950500D01*
X41968614Y-54950500D01*
X41968622Y-54950500D01*
X42021241Y-54947705D01*
X42251126Y-54903245D01*
X42470190Y-54820574D01*
X42672132Y-54702070D01*
X42851142Y-54551142D01*
X43000074Y-54374500D01*
X43002065Y-54372138D01*
X43002065Y-54372137D01*
X43002070Y-54372132D01*
X43120574Y-54170190D01*
X43203245Y-53951126D01*
X43247705Y-53721241D01*
X43250500Y-53668622D01*
X43250500Y-51731378D01*
X43247705Y-51678759D01*
X43203245Y-51448874D01*
X43120574Y-51229810D01*
X43002070Y-51027868D01*
X43002065Y-51027861D01*
X42851143Y-50848858D01*
X42851141Y-50848856D01*
X42672138Y-50697934D01*
X42672131Y-50697929D01*
X42470189Y-50579425D01*
X42371240Y-50542084D01*
X42259709Y-50499994D01*
X46994357Y-50499994D01*
X46994357Y-50500005D01*
X47014890Y-50747812D01*
X47014892Y-50747824D01*
X47075936Y-50988881D01*
X47175826Y-51216606D01*
X47311833Y-51424782D01*
X47311836Y-51424785D01*
X47480256Y-51607738D01*
X47676491Y-51760474D01*
X47895190Y-51878828D01*
X48130386Y-51959571D01*
X48375665Y-52000500D01*
X48624335Y-52000500D01*
X48869614Y-51959571D01*
X49104810Y-51878828D01*
X49323509Y-51760474D01*
X49519744Y-51607738D01*
X49688164Y-51424785D01*
X49824173Y-51216607D01*
X49924063Y-50988881D01*
X49964673Y-50828513D01*
X49997195Y-50771277D01*
X53453828Y-47314646D01*
X53569524Y-47155405D01*
X53614398Y-47067334D01*
X53658884Y-46980025D01*
X53704019Y-46841116D01*
X53719709Y-46792827D01*
X53734115Y-46701870D01*
X53750500Y-46598422D01*
X53750500Y-45885998D01*
X53770185Y-45818959D01*
X53780205Y-45805472D01*
X53798836Y-45783659D01*
X53930466Y-45568859D01*
X54026873Y-45336111D01*
X54085683Y-45091148D01*
X54105449Y-44840000D01*
X54085683Y-44588852D01*
X54026873Y-44343889D01*
X53992588Y-44261117D01*
X53930466Y-44111140D01*
X53798839Y-43896346D01*
X53798838Y-43896343D01*
X53702369Y-43783393D01*
X53635224Y-43704776D01*
X53483528Y-43575215D01*
X53443656Y-43541161D01*
X53443653Y-43541160D01*
X53228859Y-43409533D01*
X52996110Y-43313126D01*
X52751151Y-43254317D01*
X52500000Y-43234551D01*
X52248848Y-43254317D01*
X52003889Y-43313126D01*
X51771140Y-43409533D01*
X51556346Y-43541160D01*
X51556343Y-43541161D01*
X51364776Y-43704776D01*
X51201161Y-43896343D01*
X51201160Y-43896346D01*
X51069533Y-44111140D01*
X50973126Y-44343889D01*
X50914317Y-44588848D01*
X50894551Y-44839999D01*
X50914317Y-45091151D01*
X50973126Y-45336110D01*
X51069533Y-45568859D01*
X51186607Y-45759905D01*
X51201164Y-45783659D01*
X51219789Y-45805467D01*
X51248360Y-45869226D01*
X51249500Y-45885998D01*
X51249500Y-45930663D01*
X51229815Y-45997702D01*
X51213181Y-46018344D01*
X48231345Y-49000179D01*
X48170022Y-49033664D01*
X48164075Y-49034807D01*
X48130382Y-49040429D01*
X47895197Y-49121169D01*
X47895188Y-49121172D01*
X47676493Y-49239524D01*
X47480257Y-49392261D01*
X47311833Y-49575217D01*
X47175826Y-49783393D01*
X47075936Y-50011118D01*
X47014892Y-50252175D01*
X47014890Y-50252187D01*
X46994357Y-50499994D01*
X42259709Y-50499994D01*
X42251126Y-50496755D01*
X42251121Y-50496754D01*
X42251116Y-50496752D01*
X42248470Y-50496240D01*
X42247451Y-50495713D01*
X42246050Y-50495317D01*
X42246130Y-50495031D01*
X42186392Y-50464177D01*
X42151503Y-50403641D01*
X42154881Y-50333853D01*
X42195452Y-50276970D01*
X42260337Y-50251052D01*
X42272009Y-50250499D01*
X45797872Y-50250499D01*
X45857483Y-50244091D01*
X45992331Y-50193796D01*
X46107546Y-50107546D01*
X46193796Y-49992331D01*
X46244091Y-49857483D01*
X46250500Y-49797873D01*
X46250499Y-47569335D01*
X46270184Y-47502297D01*
X46286818Y-47481655D01*
X47061655Y-46706819D01*
X47122978Y-46673334D01*
X47149336Y-46670500D01*
X47636659Y-46670500D01*
X47695676Y-46685445D01*
X47792124Y-46737640D01*
X47905190Y-46798828D01*
X48140386Y-46879571D01*
X48385665Y-46920500D01*
X48634335Y-46920500D01*
X48879614Y-46879571D01*
X49114810Y-46798828D01*
X49333509Y-46680474D01*
X49529744Y-46527738D01*
X49698164Y-46344785D01*
X49834173Y-46136607D01*
X49934063Y-45908881D01*
X49995108Y-45667821D01*
X49995109Y-45667812D01*
X50015643Y-45420005D01*
X50015643Y-45419994D01*
X49995109Y-45172187D01*
X49995107Y-45172175D01*
X49934063Y-44931118D01*
X49834173Y-44703393D01*
X49698166Y-44495217D01*
X49649166Y-44441989D01*
X49529744Y-44312262D01*
X49333509Y-44159526D01*
X49333507Y-44159525D01*
X49333506Y-44159524D01*
X49114811Y-44041172D01*
X49114802Y-44041169D01*
X48879616Y-43960429D01*
X48634335Y-43919500D01*
X48385665Y-43919500D01*
X48140383Y-43960429D01*
X47905197Y-44041169D01*
X47905183Y-44041175D01*
X47695676Y-44154555D01*
X47636659Y-44169500D01*
X46481578Y-44169500D01*
X46287173Y-44200290D01*
X46099969Y-44261117D01*
X45924594Y-44350476D01*
X45833741Y-44416485D01*
X45765354Y-44466172D01*
X45765352Y-44466174D01*
X45765351Y-44466174D01*
X44518344Y-45713181D01*
X44457021Y-45746666D01*
X44430663Y-45749500D01*
X42202129Y-45749500D01*
X42202123Y-45749501D01*
X42142516Y-45755908D01*
X42007671Y-45806202D01*
X42007664Y-45806206D01*
X41892455Y-45892452D01*
X41892452Y-45892455D01*
X41806206Y-46007664D01*
X41806202Y-46007671D01*
X41755908Y-46142517D01*
X41749501Y-46202116D01*
X41749500Y-46202135D01*
X41749500Y-49797870D01*
X41749501Y-49797876D01*
X41755908Y-49857483D01*
X41806202Y-49992328D01*
X41806206Y-49992335D01*
X41892452Y-50107544D01*
X41892455Y-50107547D01*
X42007664Y-50193793D01*
X42007673Y-50193798D01*
X42054937Y-50211426D01*
X42110871Y-50253296D01*
X42135289Y-50318760D01*
X42120438Y-50387033D01*
X42071033Y-50436439D01*
X42005028Y-50451433D01*
X41968657Y-50449501D01*
X41968628Y-50449500D01*
X41968622Y-50449500D01*
X40031378Y-50449500D01*
X40031370Y-50449500D01*
X40031347Y-50449501D01*
X39978756Y-50452295D01*
X39978755Y-50452295D01*
X39748878Y-50496754D01*
X39748876Y-50496754D01*
X39748874Y-50496755D01*
X39674933Y-50524659D01*
X39529810Y-50579425D01*
X39437258Y-50633737D01*
X39369476Y-50650689D01*
X39303289Y-50628304D01*
X39259711Y-50573690D01*
X39250500Y-50526791D01*
X39250500Y-50225984D01*
X39270185Y-50158945D01*
X39322988Y-50113190D01*
X39369626Y-50092007D01*
X39554654Y-49963819D01*
X39713819Y-49804654D01*
X39842007Y-49619626D01*
X39935096Y-49414683D01*
X39990096Y-49196412D01*
X40000500Y-49064217D01*
X40000499Y-46935784D01*
X39990096Y-46803588D01*
X39988896Y-46798827D01*
X39935097Y-46585321D01*
X39935096Y-46585318D01*
X39932453Y-46579500D01*
X39842007Y-46380374D01*
X39810297Y-46334603D01*
X39713825Y-46195354D01*
X39713822Y-46195350D01*
X39713819Y-46195346D01*
X39554654Y-46036181D01*
X39554650Y-46036178D01*
X39554645Y-46036174D01*
X39369632Y-45907997D01*
X39369630Y-45907995D01*
X39369626Y-45907993D01*
X39335411Y-45892452D01*
X39164681Y-45814903D01*
X39164678Y-45814902D01*
X38946420Y-45759905D01*
X38946413Y-45759904D01*
X38895638Y-45755908D01*
X38814217Y-45749500D01*
X38814215Y-45749500D01*
X37185791Y-45749500D01*
X37185776Y-45749501D01*
X37053586Y-45759904D01*
X37053579Y-45759905D01*
X36835321Y-45814902D01*
X36835318Y-45814903D01*
X36630377Y-45907991D01*
X36630367Y-45907997D01*
X36445354Y-46036174D01*
X36445342Y-46036184D01*
X36286184Y-46195342D01*
X36286174Y-46195354D01*
X36157997Y-46380367D01*
X36157991Y-46380377D01*
X36064903Y-46585318D01*
X36064902Y-46585321D01*
X36009905Y-46803579D01*
X36009904Y-46803586D01*
X35999500Y-46935777D01*
X35999500Y-49064208D01*
X35999501Y-49064223D01*
X36009904Y-49196413D01*
X36009905Y-49196420D01*
X36064902Y-49414678D01*
X36064903Y-49414681D01*
X36157991Y-49619622D01*
X36157997Y-49619632D01*
X36286174Y-49804645D01*
X36286178Y-49804650D01*
X36286181Y-49804654D01*
X36445346Y-49963819D01*
X36445350Y-49963822D01*
X36445354Y-49963825D01*
X36513618Y-50011118D01*
X36630374Y-50092007D01*
X36676783Y-50113086D01*
X36729677Y-50158730D01*
X36749500Y-50225729D01*
X36749500Y-54310663D01*
X36729815Y-54377702D01*
X36713181Y-54398344D01*
X36111345Y-55000179D01*
X36050022Y-55033664D01*
X36044075Y-55034807D01*
X36010382Y-55040429D01*
X35775197Y-55121169D01*
X35775188Y-55121172D01*
X35556493Y-55239524D01*
X35360257Y-55392261D01*
X35191833Y-55575217D01*
X35055826Y-55783393D01*
X34955936Y-56011118D01*
X34894892Y-56252175D01*
X34894890Y-56252187D01*
X34874357Y-56499994D01*
X34874357Y-56500005D01*
X34894890Y-56747812D01*
X34894892Y-56747824D01*
X34955936Y-56988881D01*
X35055826Y-57216606D01*
X35109309Y-57298468D01*
X35129496Y-57365357D01*
X35129500Y-57366289D01*
X35129500Y-62478422D01*
X35160290Y-62672826D01*
X35221117Y-62860030D01*
X35282259Y-62980026D01*
X35310476Y-63035405D01*
X35426172Y-63194646D01*
X35426174Y-63194648D01*
X35643845Y-63412319D01*
X35677330Y-63473642D01*
X35672346Y-63543334D01*
X35643845Y-63587681D01*
X35046174Y-64185351D01*
X35046174Y-64185352D01*
X35046172Y-64185354D01*
X35000756Y-64247864D01*
X34930476Y-64344594D01*
X34841117Y-64519969D01*
X34825077Y-64569336D01*
X34800884Y-64643796D01*
X34795981Y-64658885D01*
X34780291Y-64707170D01*
X34780291Y-64707173D01*
X34749500Y-64901577D01*
X32250500Y-64901577D01*
X32250500Y-41874500D01*
X32270185Y-41807461D01*
X32322989Y-41761706D01*
X32374500Y-41750500D01*
X125375500Y-41750500D01*
X125442539Y-41770185D01*
G37*
%TD.AperFunction*%
%TA.AperFunction,NonConductor*%
G36*
X60917703Y-47270185D02*
G01*
X60938345Y-47286819D01*
X61753822Y-48102296D01*
X61787307Y-48163619D01*
X61782323Y-48233311D01*
X61740451Y-48289244D01*
X61674987Y-48313661D01*
X61627822Y-48307908D01*
X61542826Y-48280290D01*
X61348422Y-48249500D01*
X61348417Y-48249500D01*
X58348417Y-48249500D01*
X58151583Y-48249500D01*
X58151578Y-48249500D01*
X57957173Y-48280290D01*
X57769969Y-48341117D01*
X57594594Y-48430476D01*
X57503741Y-48496485D01*
X57435354Y-48546172D01*
X57435352Y-48546174D01*
X57435351Y-48546174D01*
X56212181Y-49769345D01*
X56150858Y-49802830D01*
X56081166Y-49797846D01*
X56025233Y-49755974D01*
X56000816Y-49690510D01*
X56000500Y-49681664D01*
X56000500Y-49319335D01*
X56020185Y-49252296D01*
X56036814Y-49231659D01*
X57836330Y-47432142D01*
X57897651Y-47398659D01*
X57964272Y-47402544D01*
X58130386Y-47459571D01*
X58375665Y-47500500D01*
X58624335Y-47500500D01*
X58869614Y-47459571D01*
X59104810Y-47378828D01*
X59274828Y-47286819D01*
X59314324Y-47265445D01*
X59373341Y-47250500D01*
X60850664Y-47250500D01*
X60917703Y-47270185D01*
G37*
%TD.AperFunction*%
%TA.AperFunction,NonConductor*%
G36*
X74973170Y-48338774D02*
G01*
X74981398Y-48346294D01*
X75120213Y-48485109D01*
X75292179Y-48610048D01*
X75292181Y-48610049D01*
X75292184Y-48610051D01*
X75481588Y-48706557D01*
X75683757Y-48772246D01*
X75893713Y-48805500D01*
X75893714Y-48805500D01*
X76106280Y-48805500D01*
X76106287Y-48805500D01*
X76126510Y-48802296D01*
X76195798Y-48811249D01*
X76233588Y-48837088D01*
X77562713Y-50166213D01*
X77596198Y-50227536D01*
X77591214Y-50297228D01*
X77549342Y-50353161D01*
X77515295Y-50371175D01*
X77332404Y-50433962D01*
X77332395Y-50433965D01*
X77113700Y-50552317D01*
X76917464Y-50705054D01*
X76749040Y-50888010D01*
X76613033Y-51096186D01*
X76513143Y-51323911D01*
X76452099Y-51564968D01*
X76452097Y-51564980D01*
X76431795Y-51810000D01*
X76431564Y-51812793D01*
X76432656Y-51825967D01*
X76434825Y-51852147D01*
X76420743Y-51920583D01*
X76371897Y-51970542D01*
X76303796Y-51986162D01*
X76238060Y-51962484D01*
X76223567Y-51950067D01*
X74436819Y-50163319D01*
X74403334Y-50101996D01*
X74400500Y-50075638D01*
X74400500Y-48820638D01*
X74420185Y-48753599D01*
X74459401Y-48715100D01*
X74568656Y-48647712D01*
X74692712Y-48523656D01*
X74784814Y-48374334D01*
X74784814Y-48374331D01*
X74788178Y-48368879D01*
X74840126Y-48322154D01*
X74909088Y-48310931D01*
X74973170Y-48338774D01*
G37*
%TD.AperFunction*%
%TA.AperFunction,NonConductor*%
G36*
X84092539Y-46475185D02*
G01*
X84138294Y-46527989D01*
X84149500Y-46579500D01*
X84149500Y-48105001D01*
X84149501Y-48105018D01*
X84160000Y-48207796D01*
X84160001Y-48207799D01*
X84215185Y-48374331D01*
X84215187Y-48374336D01*
X84230723Y-48399524D01*
X84307288Y-48523656D01*
X84431344Y-48647712D01*
X84540597Y-48715099D01*
X84587321Y-48767047D01*
X84599500Y-48820638D01*
X84599500Y-49918696D01*
X84634103Y-50092658D01*
X84634105Y-50092666D01*
X84660093Y-50155406D01*
X84701984Y-50256542D01*
X84701988Y-50256549D01*
X84739235Y-50312294D01*
X84739236Y-50312294D01*
X84800537Y-50404038D01*
X84800540Y-50404041D01*
X87003181Y-52606681D01*
X87036666Y-52668004D01*
X87039500Y-52694362D01*
X87039500Y-53209241D01*
X87019815Y-53276280D01*
X87003181Y-53296922D01*
X86946673Y-53353430D01*
X86885350Y-53386915D01*
X86815658Y-53381931D01*
X86759725Y-53340059D01*
X86742810Y-53309082D01*
X86693797Y-53177671D01*
X86693793Y-53177664D01*
X86607547Y-53062455D01*
X86607544Y-53062452D01*
X86492335Y-52976206D01*
X86492328Y-52976202D01*
X86357482Y-52925908D01*
X86357483Y-52925908D01*
X86297883Y-52919501D01*
X86297881Y-52919500D01*
X86297873Y-52919500D01*
X86297865Y-52919500D01*
X84774500Y-52919500D01*
X84707461Y-52899815D01*
X84661706Y-52847011D01*
X84650500Y-52795500D01*
X84650500Y-52131578D01*
X84636940Y-52045965D01*
X84623562Y-51961501D01*
X84619709Y-51937173D01*
X84589257Y-51843453D01*
X84558884Y-51749975D01*
X84558882Y-51749972D01*
X84558882Y-51749970D01*
X84505061Y-51644341D01*
X84469524Y-51574595D01*
X84353828Y-51415354D01*
X84214646Y-51276172D01*
X80356155Y-47417681D01*
X80322670Y-47356358D01*
X80327654Y-47286666D01*
X80356155Y-47242319D01*
X81106655Y-46491819D01*
X81167978Y-46458334D01*
X81194336Y-46455500D01*
X84025500Y-46455500D01*
X84092539Y-46475185D01*
G37*
%TD.AperFunction*%
%TA.AperFunction,NonConductor*%
G36*
X98105703Y-50448371D02*
G01*
X98139060Y-50494629D01*
X98139728Y-50496240D01*
X98153490Y-50529464D01*
X98153489Y-50529464D01*
X98153490Y-50529465D01*
X98201984Y-50646542D01*
X98201985Y-50646543D01*
X98201987Y-50646547D01*
X98250872Y-50719707D01*
X98250872Y-50719708D01*
X98300537Y-50794038D01*
X98300540Y-50794041D01*
X100214319Y-52707819D01*
X100247804Y-52769142D01*
X100242820Y-52838834D01*
X100200948Y-52894767D01*
X100135484Y-52919184D01*
X100126638Y-52919500D01*
X98852129Y-52919500D01*
X98852123Y-52919501D01*
X98792516Y-52925908D01*
X98657671Y-52976202D01*
X98657664Y-52976206D01*
X98542455Y-53062452D01*
X98542452Y-53062455D01*
X98456206Y-53177664D01*
X98456203Y-53177669D01*
X98407189Y-53309083D01*
X98365317Y-53365016D01*
X98299853Y-53389433D01*
X98231580Y-53374581D01*
X98203325Y-53353429D01*
X98146818Y-53296921D01*
X98113334Y-53235598D01*
X98110500Y-53209241D01*
X98110500Y-51391308D01*
X98110499Y-51391307D01*
X98104012Y-51358691D01*
X98075895Y-51217334D01*
X98014670Y-51069524D01*
X98008014Y-51053455D01*
X98008009Y-51053446D01*
X97921398Y-50923823D01*
X97900520Y-50857145D01*
X97900500Y-50854932D01*
X97900500Y-50542084D01*
X97920185Y-50475045D01*
X97972989Y-50429290D01*
X98042147Y-50419346D01*
X98105703Y-50448371D01*
G37*
%TD.AperFunction*%
%TA.AperFunction,NonConductor*%
G36*
X86973170Y-48338774D02*
G01*
X86981398Y-48346294D01*
X87074318Y-48439214D01*
X87107803Y-48500537D01*
X87108254Y-48502704D01*
X87134103Y-48632658D01*
X87134105Y-48632666D01*
X87164712Y-48706557D01*
X87164712Y-48706558D01*
X87201984Y-48796542D01*
X87201985Y-48796544D01*
X87234088Y-48844590D01*
X87234089Y-48844591D01*
X87234092Y-48844595D01*
X87283813Y-48919008D01*
X87300537Y-48944038D01*
X87300538Y-48944039D01*
X89911478Y-51554978D01*
X89944963Y-51616301D01*
X89947374Y-51652898D01*
X89934358Y-51809994D01*
X89934357Y-51810005D01*
X89954890Y-52057812D01*
X89954892Y-52057824D01*
X90015936Y-52298881D01*
X90115826Y-52526606D01*
X90251836Y-52734786D01*
X90259440Y-52743046D01*
X90290362Y-52805700D01*
X90282501Y-52875127D01*
X90238354Y-52929282D01*
X90200304Y-52946803D01*
X90016341Y-52996095D01*
X90016335Y-52996098D01*
X89802171Y-53095964D01*
X89802169Y-53095965D01*
X89608597Y-53231505D01*
X89441505Y-53398597D01*
X89311575Y-53584158D01*
X89256998Y-53627783D01*
X89187500Y-53634977D01*
X89125145Y-53603454D01*
X89108425Y-53584158D01*
X88978494Y-53398597D01*
X88876819Y-53296922D01*
X88843334Y-53235599D01*
X88840500Y-53209241D01*
X88840500Y-52181308D01*
X88840499Y-52181307D01*
X88834379Y-52150536D01*
X88805895Y-52007334D01*
X88771953Y-51925393D01*
X88738013Y-51843453D01*
X88717522Y-51812787D01*
X88667517Y-51737949D01*
X88639462Y-51695961D01*
X86436819Y-49493318D01*
X86403334Y-49431995D01*
X86400500Y-49405637D01*
X86400500Y-48820638D01*
X86420185Y-48753599D01*
X86459401Y-48715100D01*
X86568656Y-48647712D01*
X86692712Y-48523656D01*
X86784814Y-48374334D01*
X86784814Y-48374331D01*
X86788178Y-48368879D01*
X86840126Y-48322154D01*
X86909088Y-48310931D01*
X86973170Y-48338774D01*
G37*
%TD.AperFunction*%
%TA.AperFunction,NonConductor*%
G36*
X76950662Y-52946371D02*
G01*
X77110111Y-53070475D01*
X77113698Y-53073267D01*
X77113700Y-53073268D01*
X77113703Y-53073270D01*
X77155638Y-53095964D01*
X77332397Y-53191621D01*
X77332398Y-53191621D01*
X77332841Y-53191861D01*
X77382432Y-53241080D01*
X77397540Y-53309297D01*
X77373370Y-53374853D01*
X77361508Y-53388594D01*
X77351506Y-53398596D01*
X77221575Y-53584158D01*
X77166998Y-53627783D01*
X77097500Y-53634977D01*
X77035145Y-53603454D01*
X77018425Y-53584158D01*
X76888494Y-53398597D01*
X76786819Y-53296922D01*
X76753334Y-53235599D01*
X76750500Y-53209241D01*
X76750500Y-53044224D01*
X76770185Y-52977185D01*
X76822989Y-52931430D01*
X76892147Y-52921486D01*
X76950662Y-52946371D01*
G37*
%TD.AperFunction*%
%TA.AperFunction,NonConductor*%
G36*
X95842539Y-45025185D02*
G01*
X95888294Y-45077989D01*
X95899500Y-45129500D01*
X95899500Y-46455001D01*
X95899501Y-46455018D01*
X95910000Y-46557796D01*
X95910001Y-46557799D01*
X95951419Y-46682789D01*
X95965186Y-46724334D01*
X96037217Y-46841116D01*
X96057289Y-46873657D01*
X96063181Y-46879549D01*
X96096666Y-46940872D01*
X96099500Y-46967230D01*
X96099500Y-51358696D01*
X96134103Y-51532659D01*
X96134104Y-51532663D01*
X96134105Y-51532666D01*
X96151473Y-51574594D01*
X96167741Y-51613868D01*
X96167740Y-51613868D01*
X96167741Y-51613869D01*
X96201987Y-51696547D01*
X96201989Y-51696552D01*
X96240442Y-51754099D01*
X96240447Y-51754106D01*
X96288603Y-51826177D01*
X96309480Y-51892853D01*
X96309500Y-51895066D01*
X96309500Y-53209241D01*
X96289815Y-53276280D01*
X96273181Y-53296922D01*
X96171505Y-53398597D01*
X96041575Y-53584158D01*
X95986998Y-53627783D01*
X95917500Y-53634977D01*
X95855145Y-53603454D01*
X95838425Y-53584158D01*
X95708494Y-53398597D01*
X95541402Y-53231506D01*
X95541395Y-53231501D01*
X95529254Y-53223000D01*
X95464518Y-53177671D01*
X95347834Y-53095967D01*
X95347830Y-53095965D01*
X95347828Y-53095964D01*
X95133663Y-52996097D01*
X95133659Y-52996096D01*
X95133655Y-52996094D01*
X94905413Y-52934938D01*
X94905403Y-52934936D01*
X94670001Y-52914341D01*
X94669999Y-52914341D01*
X94434596Y-52934936D01*
X94434586Y-52934938D01*
X94206344Y-52996094D01*
X94206335Y-52996098D01*
X93992171Y-53095964D01*
X93992169Y-53095965D01*
X93798597Y-53231505D01*
X93631505Y-53398597D01*
X93495965Y-53592169D01*
X93495964Y-53592171D01*
X93396098Y-53806335D01*
X93396094Y-53806344D01*
X93334938Y-54034586D01*
X93334936Y-54034596D01*
X93314341Y-54269999D01*
X93314341Y-54270000D01*
X93334936Y-54505403D01*
X93334938Y-54505413D01*
X93396094Y-54733655D01*
X93396096Y-54733659D01*
X93396097Y-54733663D01*
X93413080Y-54770082D01*
X93447126Y-54843095D01*
X93457618Y-54912173D01*
X93429098Y-54975957D01*
X93370621Y-55014196D01*
X93334744Y-55019500D01*
X91815256Y-55019500D01*
X91748217Y-54999815D01*
X91702462Y-54947011D01*
X91692518Y-54877853D01*
X91702874Y-54843095D01*
X91713375Y-54820575D01*
X91753903Y-54733663D01*
X91815063Y-54505408D01*
X91835659Y-54270000D01*
X91835260Y-54265445D01*
X91828097Y-54183564D01*
X91815063Y-54034592D01*
X91753903Y-53806337D01*
X91654035Y-53592171D01*
X91648424Y-53584158D01*
X91580838Y-53487634D01*
X91558511Y-53421428D01*
X91575521Y-53353661D01*
X91626469Y-53305848D01*
X91662002Y-53294202D01*
X91809614Y-53269571D01*
X92044810Y-53188828D01*
X92263509Y-53070474D01*
X92459744Y-52917738D01*
X92628164Y-52734785D01*
X92764173Y-52526607D01*
X92864063Y-52298881D01*
X92925108Y-52057821D01*
X92925109Y-52057812D01*
X92945643Y-51810005D01*
X92945643Y-51809994D01*
X92925109Y-51562187D01*
X92925107Y-51562175D01*
X92864063Y-51321118D01*
X92764173Y-51093393D01*
X92628166Y-50885217D01*
X92571790Y-50823977D01*
X92459744Y-50702262D01*
X92263509Y-50549526D01*
X92263507Y-50549525D01*
X92263506Y-50549524D01*
X92044811Y-50431172D01*
X92044802Y-50431169D01*
X91809616Y-50350429D01*
X91564335Y-50309500D01*
X91315665Y-50309500D01*
X91315664Y-50309500D01*
X91290635Y-50313676D01*
X91221270Y-50305293D01*
X91182547Y-50279048D01*
X89777692Y-48874192D01*
X89744207Y-48812869D01*
X89749191Y-48743177D01*
X89791063Y-48687244D01*
X89856527Y-48662827D01*
X89921667Y-48676025D01*
X89981588Y-48706557D01*
X90183757Y-48772246D01*
X90393713Y-48805500D01*
X90393714Y-48805500D01*
X90606286Y-48805500D01*
X90606287Y-48805500D01*
X90816243Y-48772246D01*
X91018412Y-48706557D01*
X91207816Y-48610051D01*
X91295739Y-48546172D01*
X91379786Y-48485109D01*
X91379788Y-48485106D01*
X91379792Y-48485104D01*
X91530104Y-48334792D01*
X91530106Y-48334788D01*
X91530109Y-48334786D01*
X91655048Y-48162820D01*
X91655047Y-48162820D01*
X91655051Y-48162816D01*
X91751557Y-47973412D01*
X91763924Y-47935352D01*
X91772125Y-47910108D01*
X91803241Y-47814344D01*
X91833488Y-47764984D01*
X94556655Y-45041819D01*
X94617978Y-45008334D01*
X94644336Y-45005500D01*
X95775500Y-45005500D01*
X95842539Y-45025185D01*
G37*
%TD.AperFunction*%
%TA.AperFunction,NonConductor*%
G36*
X77204855Y-54936546D02*
G01*
X77221575Y-54955842D01*
X77311764Y-55084646D01*
X77351505Y-55141401D01*
X77518599Y-55308495D01*
X77562912Y-55339523D01*
X77712165Y-55444032D01*
X77712167Y-55444033D01*
X77712170Y-55444035D01*
X77926337Y-55543903D01*
X77926343Y-55543904D01*
X77926344Y-55543905D01*
X77981285Y-55558626D01*
X78154592Y-55605063D01*
X78331034Y-55620500D01*
X78389999Y-55625659D01*
X78390000Y-55625659D01*
X78390001Y-55625659D01*
X78448966Y-55620500D01*
X78625408Y-55605063D01*
X78853663Y-55543903D01*
X79067830Y-55444035D01*
X79154378Y-55383433D01*
X79220582Y-55361107D01*
X79288350Y-55378117D01*
X79336163Y-55429065D01*
X79349500Y-55485009D01*
X79349500Y-56450692D01*
X79329815Y-56517731D01*
X79277011Y-56563486D01*
X79207853Y-56573430D01*
X79149338Y-56548546D01*
X79141115Y-56542146D01*
X79073509Y-56489526D01*
X78945376Y-56420184D01*
X78854811Y-56371172D01*
X78854802Y-56371169D01*
X78619616Y-56290429D01*
X78374335Y-56249500D01*
X78125665Y-56249500D01*
X77880383Y-56290429D01*
X77645197Y-56371169D01*
X77645188Y-56371172D01*
X77426493Y-56489524D01*
X77230256Y-56642262D01*
X77186211Y-56690106D01*
X77126323Y-56726095D01*
X77056485Y-56723993D01*
X77007302Y-56693802D01*
X76105690Y-55792190D01*
X76072205Y-55730867D01*
X76077189Y-55661175D01*
X76119061Y-55605242D01*
X76161278Y-55584734D01*
X76308699Y-55545233D01*
X76313663Y-55543903D01*
X76527830Y-55444035D01*
X76721401Y-55308495D01*
X76888495Y-55141401D01*
X77018425Y-54955842D01*
X77073002Y-54912217D01*
X77142500Y-54905023D01*
X77204855Y-54936546D01*
G37*
%TD.AperFunction*%
%TA.AperFunction,NonConductor*%
G36*
X100442539Y-55640184D02*
G01*
X100488294Y-55692988D01*
X100499500Y-55744499D01*
X100499500Y-61014059D01*
X100479815Y-61081098D01*
X100427011Y-61126853D01*
X100357853Y-61136797D01*
X100294297Y-61107772D01*
X100284271Y-61098042D01*
X100269747Y-61082265D01*
X100269744Y-61082262D01*
X100164696Y-61000500D01*
X100073509Y-60929526D01*
X100073507Y-60929525D01*
X100073506Y-60929524D01*
X99854811Y-60811172D01*
X99854802Y-60811169D01*
X99619616Y-60730429D01*
X99374335Y-60689500D01*
X99125665Y-60689500D01*
X98880383Y-60730429D01*
X98645197Y-60811169D01*
X98645183Y-60811175D01*
X98435676Y-60924555D01*
X98376659Y-60939500D01*
X96998341Y-60939500D01*
X96939324Y-60924555D01*
X96729816Y-60811175D01*
X96729813Y-60811174D01*
X96729810Y-60811172D01*
X96729804Y-60811170D01*
X96729802Y-60811169D01*
X96494617Y-60730429D01*
X96460924Y-60724807D01*
X96398039Y-60694356D01*
X96393653Y-60690179D01*
X94789648Y-59086174D01*
X94789646Y-59086172D01*
X94630405Y-58970476D01*
X94455030Y-58881117D01*
X94267826Y-58820290D01*
X94073422Y-58789500D01*
X94073417Y-58789500D01*
X90961583Y-58789500D01*
X90961578Y-58789500D01*
X90767173Y-58820290D01*
X90579969Y-58881117D01*
X90404594Y-58970476D01*
X90349541Y-59010475D01*
X90245354Y-59086172D01*
X90245352Y-59086174D01*
X90245351Y-59086174D01*
X87837681Y-61493845D01*
X87776358Y-61527330D01*
X87706666Y-61522346D01*
X87662319Y-61493845D01*
X85630655Y-59462181D01*
X85597170Y-59400858D01*
X85602154Y-59331166D01*
X85644026Y-59275233D01*
X85709490Y-59250816D01*
X85718336Y-59250500D01*
X85874335Y-59250500D01*
X86119614Y-59209571D01*
X86354810Y-59128828D01*
X86573509Y-59010474D01*
X86769744Y-58857738D01*
X86938164Y-58674785D01*
X87074173Y-58466607D01*
X87174063Y-58238881D01*
X87235108Y-57997821D01*
X87235109Y-57997812D01*
X87255643Y-57750005D01*
X87255643Y-57749994D01*
X87235109Y-57502187D01*
X87235107Y-57502175D01*
X87174063Y-57261118D01*
X87074172Y-57033391D01*
X87060407Y-57012322D01*
X87040219Y-56945433D01*
X87059398Y-56878247D01*
X87111857Y-56832096D01*
X87164215Y-56820500D01*
X98188693Y-56820500D01*
X98188694Y-56820499D01*
X98362666Y-56785895D01*
X98462217Y-56744659D01*
X98526547Y-56718013D01*
X98639916Y-56642262D01*
X98639918Y-56642261D01*
X98646720Y-56637715D01*
X98674036Y-56619464D01*
X99636680Y-55656817D01*
X99698003Y-55623333D01*
X99724361Y-55620499D01*
X100375500Y-55620499D01*
X100442539Y-55640184D01*
G37*
%TD.AperFunction*%
%TA.AperFunction,NonConductor*%
G36*
X58455703Y-53771045D02*
G01*
X58478309Y-53796937D01*
X58561833Y-53924782D01*
X58561835Y-53924784D01*
X58561836Y-53924785D01*
X58730256Y-54107738D01*
X58926491Y-54260474D01*
X58926493Y-54260475D01*
X59145182Y-54378824D01*
X59145190Y-54378828D01*
X59380386Y-54459571D01*
X59625665Y-54500500D01*
X59874335Y-54500500D01*
X60119614Y-54459571D01*
X60354810Y-54378828D01*
X60501058Y-54299682D01*
X60564324Y-54265445D01*
X60623341Y-54250500D01*
X61375500Y-54250500D01*
X61442539Y-54270185D01*
X61488294Y-54322989D01*
X61499500Y-54374500D01*
X61499500Y-59444872D01*
X61482467Y-59502877D01*
X61496956Y-59530136D01*
X61499500Y-59555127D01*
X61499500Y-60680664D01*
X61479815Y-60747703D01*
X61463181Y-60768345D01*
X56546174Y-65685351D01*
X56546173Y-65685352D01*
X56474818Y-65783564D01*
X56419487Y-65826229D01*
X56349874Y-65832208D01*
X56288079Y-65799602D01*
X56253722Y-65738763D01*
X56250500Y-65710678D01*
X56250500Y-63901577D01*
X56219709Y-63707173D01*
X56158882Y-63519970D01*
X56105888Y-63415964D01*
X56069524Y-63344595D01*
X56035480Y-63297738D01*
X56035480Y-63297737D01*
X56035479Y-63297737D01*
X56035478Y-63297736D01*
X55953829Y-63185355D01*
X55856155Y-63087681D01*
X55822670Y-63026358D01*
X55827654Y-62956666D01*
X55856155Y-62912319D01*
X57981655Y-60786819D01*
X58042978Y-60753334D01*
X58069336Y-60750500D01*
X58876659Y-60750500D01*
X58935676Y-60765445D01*
X59020178Y-60811175D01*
X59145190Y-60878828D01*
X59380386Y-60959571D01*
X59625665Y-61000500D01*
X59874335Y-61000500D01*
X60119614Y-60959571D01*
X60354810Y-60878828D01*
X60573509Y-60760474D01*
X60769744Y-60607738D01*
X60938164Y-60424785D01*
X61074173Y-60216607D01*
X61174063Y-59988881D01*
X61235108Y-59747821D01*
X61251924Y-59544887D01*
X61269340Y-59499751D01*
X61256523Y-59479807D01*
X61251924Y-59455112D01*
X61235109Y-59252187D01*
X61235107Y-59252175D01*
X61174063Y-59011118D01*
X61074173Y-58783393D01*
X60938166Y-58575217D01*
X60911423Y-58546167D01*
X60769744Y-58392262D01*
X60573509Y-58239526D01*
X60573507Y-58239525D01*
X60573506Y-58239524D01*
X60354811Y-58121172D01*
X60354802Y-58121169D01*
X60119617Y-58040429D01*
X60085924Y-58034807D01*
X60023039Y-58004356D01*
X60018653Y-58000179D01*
X58286819Y-56268345D01*
X58253334Y-56207022D01*
X58250500Y-56180664D01*
X58250500Y-53864758D01*
X58270185Y-53797719D01*
X58322989Y-53751964D01*
X58392147Y-53742020D01*
X58455703Y-53771045D01*
G37*
%TD.AperFunction*%
%TA.AperFunction,NonConductor*%
G36*
X94609735Y-62522678D02*
G01*
X94664221Y-62566417D01*
X94682704Y-62606887D01*
X94700935Y-62678878D01*
X94800826Y-62906606D01*
X94936833Y-63114782D01*
X94936836Y-63114785D01*
X95105256Y-63297738D01*
X95301491Y-63450474D01*
X95301493Y-63450475D01*
X95520182Y-63568824D01*
X95520190Y-63568828D01*
X95755386Y-63649571D01*
X96000665Y-63690500D01*
X96249335Y-63690500D01*
X96494614Y-63649571D01*
X96729810Y-63568828D01*
X96903117Y-63475039D01*
X96939324Y-63455445D01*
X96998341Y-63440500D01*
X98376659Y-63440500D01*
X98435676Y-63455445D01*
X98471883Y-63475039D01*
X98645190Y-63568828D01*
X98880386Y-63649571D01*
X99125665Y-63690500D01*
X99374335Y-63690500D01*
X99619614Y-63649571D01*
X99854810Y-63568828D01*
X100073509Y-63450474D01*
X100269744Y-63297738D01*
X100284270Y-63281958D01*
X100344155Y-63245967D01*
X100413993Y-63248066D01*
X100471610Y-63287589D01*
X100498713Y-63351988D01*
X100499500Y-63365940D01*
X100499500Y-68634059D01*
X100479815Y-68701098D01*
X100427011Y-68746853D01*
X100357853Y-68756797D01*
X100294297Y-68727772D01*
X100284271Y-68718042D01*
X100269747Y-68702265D01*
X100269744Y-68702262D01*
X100182117Y-68634059D01*
X100073509Y-68549526D01*
X100073507Y-68549525D01*
X100073506Y-68549524D01*
X99854811Y-68431172D01*
X99854802Y-68431169D01*
X99619616Y-68350429D01*
X99374335Y-68309500D01*
X99125665Y-68309500D01*
X98880383Y-68350429D01*
X98645197Y-68431169D01*
X98645188Y-68431172D01*
X98426493Y-68549524D01*
X98230257Y-68702261D01*
X98230256Y-68702262D01*
X98076317Y-68869483D01*
X98016432Y-68905473D01*
X97985089Y-68909500D01*
X97389911Y-68909500D01*
X97322872Y-68889815D01*
X97298684Y-68869485D01*
X97144744Y-68702262D01*
X97073337Y-68646683D01*
X97032524Y-68589972D01*
X97025500Y-68548830D01*
X97025500Y-67226308D01*
X97017353Y-67185355D01*
X97017353Y-67185352D01*
X96999837Y-67097293D01*
X96990894Y-67052334D01*
X96988342Y-67046172D01*
X96923016Y-66888459D01*
X96923009Y-66888446D01*
X96824465Y-66740966D01*
X96765162Y-66681663D01*
X96699035Y-66615536D01*
X93936819Y-63853319D01*
X93903334Y-63791996D01*
X93900500Y-63765638D01*
X93900500Y-63451169D01*
X93920185Y-63384130D01*
X93948338Y-63353315D01*
X93950043Y-63351988D01*
X94019744Y-63297738D01*
X94188164Y-63114785D01*
X94324173Y-62906607D01*
X94424063Y-62678881D01*
X94442294Y-62606887D01*
X94477832Y-62546734D01*
X94540252Y-62515341D01*
X94609735Y-62522678D01*
G37*
%TD.AperFunction*%
%TA.AperFunction,NonConductor*%
G36*
X92305703Y-64769649D02*
G01*
X92312181Y-64775681D01*
X95188181Y-67651680D01*
X95221666Y-67713003D01*
X95224500Y-67739361D01*
X95224500Y-68548830D01*
X95204815Y-68615869D01*
X95176663Y-68646683D01*
X95105258Y-68702260D01*
X95105256Y-68702261D01*
X95105256Y-68702262D01*
X95084952Y-68724317D01*
X94936833Y-68885217D01*
X94800826Y-69093393D01*
X94700937Y-69321117D01*
X94682706Y-69393111D01*
X94647166Y-69453266D01*
X94584745Y-69484658D01*
X94515262Y-69477320D01*
X94460777Y-69433581D01*
X94442294Y-69393111D01*
X94424062Y-69321117D01*
X94404003Y-69275388D01*
X94324173Y-69093393D01*
X94218130Y-68931081D01*
X94188166Y-68885217D01*
X94131936Y-68824135D01*
X94019744Y-68702262D01*
X93823509Y-68549526D01*
X93823507Y-68549525D01*
X93823506Y-68549524D01*
X93604811Y-68431172D01*
X93604802Y-68431169D01*
X93369616Y-68350429D01*
X93124335Y-68309500D01*
X92875665Y-68309500D01*
X92630383Y-68350429D01*
X92395197Y-68431169D01*
X92395183Y-68431175D01*
X92283517Y-68491606D01*
X92215189Y-68506201D01*
X92149817Y-68481538D01*
X92108156Y-68425448D01*
X92100500Y-68382551D01*
X92100500Y-64863362D01*
X92120185Y-64796323D01*
X92172989Y-64750568D01*
X92242147Y-64740624D01*
X92305703Y-64769649D01*
G37*
%TD.AperFunction*%
%TA.AperFunction,NonConductor*%
G36*
X105105703Y-49654623D02*
G01*
X105112181Y-49660655D01*
X107713181Y-52261655D01*
X107746666Y-52322978D01*
X107749500Y-52349336D01*
X107749500Y-69375500D01*
X107729815Y-69442539D01*
X107677011Y-69488294D01*
X107625500Y-69499500D01*
X107623341Y-69499500D01*
X107564324Y-69484555D01*
X107354816Y-69371175D01*
X107354813Y-69371174D01*
X107354810Y-69371172D01*
X107354804Y-69371170D01*
X107354802Y-69371169D01*
X107119616Y-69290429D01*
X106874335Y-69249500D01*
X106625665Y-69249500D01*
X106380383Y-69290429D01*
X106145197Y-69371169D01*
X106145188Y-69371172D01*
X105926493Y-69489524D01*
X105730257Y-69642261D01*
X105561833Y-69825217D01*
X105425826Y-70033393D01*
X105325936Y-70261118D01*
X105264892Y-70502175D01*
X105264890Y-70502187D01*
X105244357Y-70749994D01*
X105244357Y-70749996D01*
X105249701Y-70814500D01*
X105235618Y-70882936D01*
X105186773Y-70932894D01*
X105118671Y-70948514D01*
X105052936Y-70924836D01*
X105034901Y-70908727D01*
X105019744Y-70892262D01*
X104988657Y-70868066D01*
X104948337Y-70836683D01*
X104907524Y-70779972D01*
X104900500Y-70738830D01*
X104900500Y-49748336D01*
X104920185Y-49681297D01*
X104972989Y-49635542D01*
X105042147Y-49625598D01*
X105105703Y-49654623D01*
G37*
%TD.AperFunction*%
%TA.AperFunction,NonConductor*%
G36*
X98052128Y-70730185D02*
G01*
X98076316Y-70750514D01*
X98099392Y-70775582D01*
X98130314Y-70838236D01*
X98122454Y-70907662D01*
X98084325Y-70957417D01*
X97923516Y-71082580D01*
X97923514Y-71082581D01*
X97923514Y-71082582D01*
X97769575Y-71249803D01*
X97709690Y-71285793D01*
X97678347Y-71289820D01*
X97027892Y-71289820D01*
X96960853Y-71270135D01*
X96915098Y-71217331D01*
X96905154Y-71148173D01*
X96934179Y-71084617D01*
X96951724Y-71067971D01*
X97144744Y-70917738D01*
X97298682Y-70750516D01*
X97358568Y-70714527D01*
X97389911Y-70710500D01*
X97985089Y-70710500D01*
X98052128Y-70730185D01*
G37*
%TD.AperFunction*%
%TA.AperFunction,NonConductor*%
G36*
X100413993Y-70868066D02*
G01*
X100471610Y-70907589D01*
X100498713Y-70971988D01*
X100499500Y-70985940D01*
X100499500Y-71412873D01*
X100479815Y-71479912D01*
X100427011Y-71525667D01*
X100357853Y-71535611D01*
X100294297Y-71506586D01*
X100270968Y-71477527D01*
X100270236Y-71478006D01*
X100131421Y-71265533D01*
X100093866Y-71224737D01*
X100062944Y-71162083D01*
X100070805Y-71092656D01*
X100108934Y-71042902D01*
X100230203Y-70948514D01*
X100269744Y-70917738D01*
X100284270Y-70901958D01*
X100344155Y-70865967D01*
X100413993Y-70868066D01*
G37*
%TD.AperFunction*%
%TA.AperFunction,NonConductor*%
G36*
X100105703Y-46701870D02*
G01*
X100124815Y-46722694D01*
X100160586Y-46771928D01*
X100283072Y-46894414D01*
X100423212Y-46996232D01*
X100496133Y-47033387D01*
X100577550Y-47074871D01*
X100577552Y-47074871D01*
X100577555Y-47074873D01*
X100742299Y-47128402D01*
X100770948Y-47132939D01*
X100834081Y-47162866D01*
X100839231Y-47167731D01*
X101951791Y-48280291D01*
X103063181Y-49391680D01*
X103096666Y-49453003D01*
X103099500Y-49479361D01*
X103099500Y-70738830D01*
X103079815Y-70805869D01*
X103051663Y-70836683D01*
X102980258Y-70892260D01*
X102811833Y-71075217D01*
X102675826Y-71283393D01*
X102575936Y-71511118D01*
X102544706Y-71634446D01*
X102509166Y-71694602D01*
X102446746Y-71725994D01*
X102377262Y-71718656D01*
X102322777Y-71674917D01*
X102300588Y-71608664D01*
X102300500Y-71604006D01*
X102300500Y-52531307D01*
X102293837Y-52497812D01*
X102289057Y-52473782D01*
X102265895Y-52357334D01*
X102208555Y-52218904D01*
X102198013Y-52193453D01*
X102198012Y-52193451D01*
X102198011Y-52193449D01*
X102099464Y-52045965D01*
X102039661Y-51986162D01*
X101974035Y-51920536D01*
X100959463Y-50905964D01*
X99936819Y-49883319D01*
X99903334Y-49821996D01*
X99900500Y-49795638D01*
X99900500Y-46795583D01*
X99920185Y-46728544D01*
X99972989Y-46682789D01*
X100042147Y-46672845D01*
X100105703Y-46701870D01*
G37*
%TD.AperFunction*%
%TA.AperFunction,NonConductor*%
G36*
X50955703Y-56346389D02*
G01*
X50973762Y-56365786D01*
X51042454Y-56457546D01*
X51085171Y-56489524D01*
X51157664Y-56543793D01*
X51157671Y-56543797D01*
X51292517Y-56594091D01*
X51292516Y-56594091D01*
X51299444Y-56594835D01*
X51352127Y-56600500D01*
X52831663Y-56600499D01*
X52898702Y-56620184D01*
X52944457Y-56672987D01*
X52954401Y-56742146D01*
X52925376Y-56805702D01*
X52919344Y-56812180D01*
X49546174Y-60185351D01*
X49546172Y-60185354D01*
X49496485Y-60253741D01*
X49430476Y-60344594D01*
X49341117Y-60519972D01*
X49341067Y-60520126D01*
X49280290Y-60707173D01*
X49249500Y-60901577D01*
X49249500Y-61953271D01*
X49241682Y-61996604D01*
X49205908Y-62092517D01*
X49202828Y-62121169D01*
X49199501Y-62152123D01*
X49199500Y-62152135D01*
X49199500Y-62480663D01*
X49179815Y-62547702D01*
X49163181Y-62568344D01*
X45046174Y-66685351D01*
X45046172Y-66685354D01*
X45042427Y-66690509D01*
X44930476Y-66844594D01*
X44841115Y-67019973D01*
X44841114Y-67019976D01*
X44794351Y-67163902D01*
X44780291Y-67207172D01*
X44780290Y-67207177D01*
X44749500Y-67401577D01*
X44749500Y-69625500D01*
X44729815Y-69692539D01*
X44677011Y-69738294D01*
X44625500Y-69749500D01*
X42306579Y-69749500D01*
X42227973Y-69761950D01*
X42208321Y-69765063D01*
X42208320Y-69765063D01*
X42112174Y-69780290D01*
X42112173Y-69780290D01*
X41924969Y-69841117D01*
X41749594Y-69930476D01*
X41688072Y-69975175D01*
X41590355Y-70046171D01*
X41590353Y-70046173D01*
X41590352Y-70046173D01*
X40129104Y-71507420D01*
X40067781Y-71540905D01*
X40060834Y-71542210D01*
X40057261Y-71542776D01*
X39839744Y-71613450D01*
X39635961Y-71717283D01*
X39447386Y-71854292D01*
X39381579Y-71877772D01*
X39313525Y-71861947D01*
X39264830Y-71811841D01*
X39250500Y-71753974D01*
X39250500Y-68569335D01*
X39270185Y-68502296D01*
X39286814Y-68481659D01*
X42731655Y-65036817D01*
X42792978Y-65003333D01*
X42819336Y-65000499D01*
X43547871Y-65000499D01*
X43547872Y-65000499D01*
X43607483Y-64994091D01*
X43742331Y-64943796D01*
X43857546Y-64857546D01*
X43943796Y-64742331D01*
X43994091Y-64607483D01*
X44000500Y-64547873D01*
X44000499Y-63819334D01*
X44020183Y-63752296D01*
X44036813Y-63731659D01*
X50453828Y-57314646D01*
X50569524Y-57155405D01*
X50658884Y-56980026D01*
X50719709Y-56792826D01*
X50743556Y-56642262D01*
X50747167Y-56619462D01*
X50750500Y-56598420D01*
X50750500Y-56440102D01*
X50770185Y-56373063D01*
X50822989Y-56327308D01*
X50892147Y-56317364D01*
X50955703Y-56346389D01*
G37*
%TD.AperFunction*%
%TA.AperFunction,NonConductor*%
G36*
X55961421Y-57451086D02*
G01*
X55975316Y-57467122D01*
X56046172Y-57564646D01*
X56046174Y-57564648D01*
X56780975Y-58299449D01*
X56814460Y-58360772D01*
X56809476Y-58430464D01*
X56767604Y-58486397D01*
X56766180Y-58487447D01*
X56685360Y-58546167D01*
X56685351Y-58546174D01*
X53390509Y-61841015D01*
X53355242Y-61865712D01*
X53347264Y-61869432D01*
X53160858Y-61999954D01*
X52999954Y-62160858D01*
X52869432Y-62347265D01*
X52869431Y-62347267D01*
X52773261Y-62553502D01*
X52773258Y-62553511D01*
X52714366Y-62773302D01*
X52714364Y-62773313D01*
X52694532Y-62999998D01*
X52694532Y-63000001D01*
X52714364Y-63226686D01*
X52714366Y-63226697D01*
X52773258Y-63446488D01*
X52773261Y-63446497D01*
X52869431Y-63652732D01*
X52869432Y-63652734D01*
X52999954Y-63839141D01*
X53160858Y-64000045D01*
X53347262Y-64130566D01*
X53347264Y-64130566D01*
X53347266Y-64130568D01*
X53354563Y-64133970D01*
X53355233Y-64134283D01*
X53390511Y-64158985D01*
X53713181Y-64481655D01*
X53746666Y-64542978D01*
X53749500Y-64569336D01*
X53749500Y-67885241D01*
X53729815Y-67952280D01*
X53677011Y-67998035D01*
X53607853Y-68007979D01*
X53544297Y-67978954D01*
X53521691Y-67953063D01*
X53519665Y-67949962D01*
X53438164Y-67825215D01*
X53269744Y-67642262D01*
X53073509Y-67489526D01*
X53073507Y-67489525D01*
X53073506Y-67489524D01*
X52854811Y-67371172D01*
X52854802Y-67371169D01*
X52619616Y-67290429D01*
X52374335Y-67249500D01*
X52125665Y-67249500D01*
X51880383Y-67290429D01*
X51645197Y-67371169D01*
X51645188Y-67371172D01*
X51426493Y-67489524D01*
X51230257Y-67642261D01*
X51061833Y-67825217D01*
X50925826Y-68033393D01*
X50825936Y-68261118D01*
X50764892Y-68502175D01*
X50764890Y-68502187D01*
X50744357Y-68749994D01*
X50744357Y-68750005D01*
X50764890Y-68997812D01*
X50764892Y-68997824D01*
X50825936Y-69238881D01*
X50919975Y-69453266D01*
X50925827Y-69466607D01*
X51029309Y-69624999D01*
X51049496Y-69691887D01*
X51049500Y-69692819D01*
X51049500Y-71193053D01*
X51029815Y-71260092D01*
X51021602Y-71271413D01*
X50960305Y-71346587D01*
X50866089Y-71526954D01*
X50831503Y-71647830D01*
X50811238Y-71718656D01*
X50810114Y-71722583D01*
X50810113Y-71722586D01*
X50804236Y-71788692D01*
X50799791Y-71838696D01*
X50799500Y-71841966D01*
X50799500Y-71925500D01*
X50779815Y-71992539D01*
X50727011Y-72038294D01*
X50675500Y-72049500D01*
X47464869Y-72049500D01*
X47397830Y-72029815D01*
X47352075Y-71977011D01*
X47342131Y-71907853D01*
X47364746Y-71855809D01*
X47363412Y-71854956D01*
X47367027Y-71849299D01*
X47367030Y-71849296D01*
X47451641Y-71678693D01*
X47497600Y-71493889D01*
X47500500Y-71451123D01*
X47500499Y-70548878D01*
X47497600Y-70506111D01*
X47451641Y-70321307D01*
X47367030Y-70150704D01*
X47325146Y-70098597D01*
X47277852Y-70039760D01*
X47251194Y-69975175D01*
X47250500Y-69962073D01*
X47250500Y-68069335D01*
X47270185Y-68002296D01*
X47286814Y-67981659D01*
X50931655Y-64336817D01*
X50992978Y-64303333D01*
X51019336Y-64300499D01*
X51347871Y-64300499D01*
X51347872Y-64300499D01*
X51407483Y-64294091D01*
X51542331Y-64243796D01*
X51657546Y-64157546D01*
X51743796Y-64042331D01*
X51794091Y-63907483D01*
X51800500Y-63847873D01*
X51800499Y-62152128D01*
X51794091Y-62092517D01*
X51780546Y-62056202D01*
X51758318Y-61996604D01*
X51750500Y-61953271D01*
X51750500Y-61569336D01*
X51770185Y-61502297D01*
X51786819Y-61481655D01*
X53738338Y-59530136D01*
X55703829Y-57564645D01*
X55774682Y-57467123D01*
X55830012Y-57424459D01*
X55899626Y-57418480D01*
X55961421Y-57451086D01*
G37*
%TD.AperFunction*%
%TA.AperFunction,NonConductor*%
G36*
X44602170Y-72270185D02*
G01*
X44647925Y-72322989D01*
X44657869Y-72392147D01*
X44635253Y-72444190D01*
X44636588Y-72445044D01*
X44632967Y-72450707D01*
X44548360Y-72621302D01*
X44502400Y-72806107D01*
X44499500Y-72848879D01*
X44499500Y-73751122D01*
X44499501Y-73751125D01*
X44502399Y-73793886D01*
X44502399Y-73793887D01*
X44510190Y-73825215D01*
X44547108Y-73973664D01*
X44548360Y-73978696D01*
X44632967Y-74149292D01*
X44636588Y-74154956D01*
X44635115Y-74155897D01*
X44658437Y-74212396D01*
X44645947Y-74281140D01*
X44598274Y-74332219D01*
X44535131Y-74349500D01*
X41433641Y-74349500D01*
X41366602Y-74329815D01*
X41320847Y-74277011D01*
X41310903Y-74207853D01*
X41339928Y-74144297D01*
X41360752Y-74125183D01*
X41439066Y-74068286D01*
X41600786Y-73906566D01*
X41735217Y-73721538D01*
X41839048Y-73517758D01*
X41909722Y-73300245D01*
X41910285Y-73296689D01*
X41940206Y-73233553D01*
X41945061Y-73228411D01*
X42886655Y-72286819D01*
X42947978Y-72253334D01*
X42974336Y-72250500D01*
X44535131Y-72250500D01*
X44602170Y-72270185D01*
G37*
%TD.AperFunction*%
%TA.AperFunction,NonConductor*%
G36*
X92283518Y-71128394D02*
G01*
X92395179Y-71188823D01*
X92395185Y-71188825D01*
X92395190Y-71188828D01*
X92630386Y-71269571D01*
X92875665Y-71310500D01*
X93124336Y-71310500D01*
X93130595Y-71309455D01*
X93149358Y-71306324D01*
X93218722Y-71314704D01*
X93257451Y-71340951D01*
X94806280Y-72889781D01*
X94806284Y-72889784D01*
X94858667Y-72924785D01*
X94953768Y-72988330D01*
X94953769Y-72988330D01*
X94953773Y-72988333D01*
X94999260Y-73007174D01*
X95117654Y-73056215D01*
X95267773Y-73086075D01*
X95291623Y-73090819D01*
X95291627Y-73090820D01*
X95291628Y-73090820D01*
X95291629Y-73090820D01*
X97678347Y-73090820D01*
X97745386Y-73110505D01*
X97769573Y-73130834D01*
X97923514Y-73298058D01*
X98119749Y-73450794D01*
X98206631Y-73497812D01*
X98294602Y-73545420D01*
X98338448Y-73569148D01*
X98573644Y-73649891D01*
X98818923Y-73690820D01*
X99067593Y-73690820D01*
X99312872Y-73649891D01*
X99548068Y-73569148D01*
X99766767Y-73450794D01*
X99963002Y-73298058D01*
X100131422Y-73115105D01*
X100267431Y-72906927D01*
X100270236Y-72902634D01*
X100271619Y-72903537D01*
X100315658Y-72859162D01*
X100383874Y-72844049D01*
X100449431Y-72868216D01*
X100491515Y-72923989D01*
X100499500Y-72967766D01*
X100499500Y-75086811D01*
X100479815Y-75153850D01*
X100427011Y-75199605D01*
X100357853Y-75209549D01*
X100294297Y-75180524D01*
X100284271Y-75170794D01*
X100121954Y-74994472D01*
X100121951Y-74994469D01*
X100050864Y-74939140D01*
X99925716Y-74841733D01*
X99925714Y-74841732D01*
X99925713Y-74841731D01*
X99707018Y-74723379D01*
X99707009Y-74723376D01*
X99471823Y-74642636D01*
X99226542Y-74601707D01*
X98977872Y-74601707D01*
X98732590Y-74642636D01*
X98497404Y-74723376D01*
X98497395Y-74723379D01*
X98278700Y-74841731D01*
X98093129Y-74986167D01*
X98082463Y-74994469D01*
X97928524Y-75161690D01*
X97868639Y-75197680D01*
X97837296Y-75201707D01*
X96026569Y-75201707D01*
X95959530Y-75182022D01*
X95938888Y-75165388D01*
X92136819Y-71363319D01*
X92103334Y-71301996D01*
X92100500Y-71275638D01*
X92100500Y-71237448D01*
X92120185Y-71170409D01*
X92172989Y-71124654D01*
X92242147Y-71114710D01*
X92283518Y-71128394D01*
G37*
%TD.AperFunction*%
%TA.AperFunction,NonConductor*%
G36*
X50742540Y-74570185D02*
G01*
X50788295Y-74622989D01*
X50799501Y-74674500D01*
X50799501Y-74758034D01*
X50810113Y-74877415D01*
X50866090Y-75073046D01*
X50868421Y-75078881D01*
X50865837Y-75079913D01*
X50877096Y-75136580D01*
X50851500Y-75201593D01*
X50794818Y-75242446D01*
X50753592Y-75249500D01*
X47623199Y-75249500D01*
X47556160Y-75229815D01*
X47510405Y-75177011D01*
X47499483Y-75133886D01*
X47497600Y-75106113D01*
X47497600Y-75106112D01*
X47492800Y-75086811D01*
X47451641Y-74921307D01*
X47429154Y-74875965D01*
X47367032Y-74750707D01*
X47363412Y-74745044D01*
X47364884Y-74744102D01*
X47341563Y-74687604D01*
X47354053Y-74618860D01*
X47401726Y-74567781D01*
X47464869Y-74550500D01*
X50675501Y-74550500D01*
X50742540Y-74570185D01*
G37*
%TD.AperFunction*%
%TA.AperFunction,NonConductor*%
G36*
X86402844Y-71359714D02*
G01*
X86458777Y-71401586D01*
X86473542Y-71428880D01*
X86473809Y-71428756D01*
X86475890Y-71433219D01*
X86476027Y-71433472D01*
X86476093Y-71433653D01*
X86476096Y-71433659D01*
X86476097Y-71433663D01*
X86559933Y-71613450D01*
X86575965Y-71647830D01*
X86575967Y-71647834D01*
X86675814Y-71790429D01*
X86694493Y-71817106D01*
X86711501Y-71841395D01*
X86711506Y-71841402D01*
X86878597Y-72008493D01*
X86878603Y-72008498D01*
X87064158Y-72138425D01*
X87107783Y-72193002D01*
X87114977Y-72262500D01*
X87083454Y-72324855D01*
X87064158Y-72341575D01*
X86878597Y-72471505D01*
X86711505Y-72638597D01*
X86575965Y-72832169D01*
X86575964Y-72832171D01*
X86476098Y-73046335D01*
X86476094Y-73046344D01*
X86414938Y-73274586D01*
X86414936Y-73274596D01*
X86394341Y-73509999D01*
X86394341Y-73510000D01*
X86414936Y-73745403D01*
X86414938Y-73745413D01*
X86476094Y-73973655D01*
X86476096Y-73973659D01*
X86476097Y-73973663D01*
X86478443Y-73978693D01*
X86575965Y-74187830D01*
X86575967Y-74187834D01*
X86711501Y-74381395D01*
X86711506Y-74381402D01*
X86878597Y-74548493D01*
X86878603Y-74548498D01*
X87064158Y-74678425D01*
X87107783Y-74733002D01*
X87114977Y-74802500D01*
X87083454Y-74864855D01*
X87064158Y-74881575D01*
X86878597Y-75011505D01*
X86711505Y-75178597D01*
X86575965Y-75372169D01*
X86575964Y-75372171D01*
X86476098Y-75586335D01*
X86476095Y-75586341D01*
X86435265Y-75738723D01*
X86398900Y-75798383D01*
X86336053Y-75828912D01*
X86266677Y-75820617D01*
X86227809Y-75794310D01*
X86019843Y-75586344D01*
X85723543Y-75290043D01*
X85690058Y-75228720D01*
X85691018Y-75171923D01*
X85735108Y-74997821D01*
X85736074Y-74986166D01*
X85755643Y-74750005D01*
X85755643Y-74749994D01*
X85735109Y-74502187D01*
X85735107Y-74502175D01*
X85674063Y-74261118D01*
X85574173Y-74033393D01*
X85438166Y-73825217D01*
X85369959Y-73751125D01*
X85269744Y-73642262D01*
X85073509Y-73489526D01*
X85073507Y-73489525D01*
X85073506Y-73489524D01*
X84854811Y-73371172D01*
X84854802Y-73371169D01*
X84621387Y-73291037D01*
X84564372Y-73250652D01*
X84538241Y-73185852D01*
X84551292Y-73117212D01*
X84573966Y-73086078D01*
X86271831Y-71388213D01*
X86333152Y-71354730D01*
X86402844Y-71359714D01*
G37*
%TD.AperFunction*%
%TA.AperFunction,NonConductor*%
G36*
X72068834Y-47302152D02*
G01*
X72124767Y-47344024D01*
X72149184Y-47409488D01*
X72149500Y-47418334D01*
X72149500Y-48105001D01*
X72149501Y-48105019D01*
X72160000Y-48207796D01*
X72160001Y-48207799D01*
X72215185Y-48374331D01*
X72215187Y-48374336D01*
X72230723Y-48399524D01*
X72307288Y-48523656D01*
X72431344Y-48647712D01*
X72540597Y-48715099D01*
X72587321Y-48767047D01*
X72599500Y-48820638D01*
X72599500Y-50588696D01*
X72634103Y-50762658D01*
X72634105Y-50762666D01*
X72659501Y-50823977D01*
X72701984Y-50926542D01*
X72701985Y-50926544D01*
X72737717Y-50980021D01*
X72737718Y-50980022D01*
X72737721Y-50980026D01*
X72769683Y-51027861D01*
X72800537Y-51074038D01*
X74478315Y-52751816D01*
X74511800Y-52813139D01*
X74506816Y-52882831D01*
X74464944Y-52938764D01*
X74399480Y-52963181D01*
X74347301Y-52955679D01*
X74267482Y-52925908D01*
X74267483Y-52925908D01*
X74207883Y-52919501D01*
X74207881Y-52919500D01*
X74207873Y-52919500D01*
X74207864Y-52919500D01*
X72412129Y-52919500D01*
X72412123Y-52919501D01*
X72352516Y-52925908D01*
X72217671Y-52976202D01*
X72217668Y-52976204D01*
X72192872Y-52994767D01*
X72127408Y-53019184D01*
X72118561Y-53019500D01*
X72089336Y-53019500D01*
X72022297Y-52999815D01*
X72001655Y-52983181D01*
X70997197Y-51978723D01*
X70964672Y-51921482D01*
X70924063Y-51761119D01*
X70824173Y-51533393D01*
X70753216Y-51424785D01*
X70688166Y-51325217D01*
X70602036Y-51231655D01*
X70519744Y-51142262D01*
X70323509Y-50989526D01*
X70323507Y-50989525D01*
X70323506Y-50989524D01*
X70104811Y-50871172D01*
X70104802Y-50871169D01*
X69869616Y-50790429D01*
X69624335Y-50749500D01*
X69375665Y-50749500D01*
X69130383Y-50790429D01*
X68895197Y-50871169D01*
X68895188Y-50871172D01*
X68676493Y-50989524D01*
X68480257Y-51142261D01*
X68311833Y-51325217D01*
X68175826Y-51533393D01*
X68075936Y-51761118D01*
X68014892Y-52002175D01*
X68014890Y-52002187D01*
X67994357Y-52249994D01*
X67994357Y-52250005D01*
X68014890Y-52497812D01*
X68014892Y-52497824D01*
X68075936Y-52738881D01*
X68175826Y-52966606D01*
X68311833Y-53174782D01*
X68343555Y-53209241D01*
X68480256Y-53357738D01*
X68676491Y-53510474D01*
X68676493Y-53510475D01*
X68888735Y-53625335D01*
X68895190Y-53628828D01*
X69011715Y-53668831D01*
X69130380Y-53709569D01*
X69130385Y-53709571D01*
X69164073Y-53715192D01*
X69226959Y-53745641D01*
X69231346Y-53749820D01*
X70566171Y-55084645D01*
X70566172Y-55084646D01*
X70705354Y-55223828D01*
X70864595Y-55339524D01*
X70940339Y-55378117D01*
X71039979Y-55428886D01*
X71124223Y-55456258D01*
X71166346Y-55469944D01*
X71166347Y-55469945D01*
X71166348Y-55469945D01*
X71227173Y-55489709D01*
X71300076Y-55501255D01*
X71421578Y-55520500D01*
X71421583Y-55520500D01*
X71618416Y-55520500D01*
X72118561Y-55520500D01*
X72185600Y-55540185D01*
X72192872Y-55545233D01*
X72217668Y-55563795D01*
X72217671Y-55563797D01*
X72352517Y-55614091D01*
X72352516Y-55614091D01*
X72359444Y-55614835D01*
X72412127Y-55620500D01*
X73335637Y-55620499D01*
X73402676Y-55640183D01*
X73423318Y-55656818D01*
X76215964Y-58449464D01*
X76241618Y-58466605D01*
X76241620Y-58466607D01*
X76241621Y-58466607D01*
X76363453Y-58548013D01*
X76445393Y-58581953D01*
X76527334Y-58615895D01*
X76701303Y-58650499D01*
X76701307Y-58650500D01*
X76701308Y-58650500D01*
X76701309Y-58650500D01*
X76985089Y-58650500D01*
X77052128Y-58670185D01*
X77076315Y-58690514D01*
X77230256Y-58857738D01*
X77426491Y-59010474D01*
X77645190Y-59128828D01*
X77880386Y-59209571D01*
X78125665Y-59250500D01*
X78374335Y-59250500D01*
X78619614Y-59209571D01*
X78854810Y-59128828D01*
X79073509Y-59010474D01*
X79149338Y-58951454D01*
X79214332Y-58925811D01*
X79282872Y-58939377D01*
X79333196Y-58987846D01*
X79349500Y-59049307D01*
X79349500Y-71325637D01*
X79329815Y-71392676D01*
X79313181Y-71413318D01*
X73226495Y-77500003D01*
X73165172Y-77533488D01*
X73095480Y-77528504D01*
X73067695Y-77513899D01*
X72935839Y-77421573D01*
X72892217Y-77366998D01*
X72885024Y-77297499D01*
X72916546Y-77235145D01*
X72935842Y-77218425D01*
X72997526Y-77175233D01*
X73121401Y-77088495D01*
X73288495Y-76921401D01*
X73424035Y-76727830D01*
X73523903Y-76513663D01*
X73585063Y-76285408D01*
X73605659Y-76050000D01*
X73585063Y-75814592D01*
X73523903Y-75586337D01*
X73424035Y-75372171D01*
X73407634Y-75348747D01*
X73288494Y-75178597D01*
X73121402Y-75011506D01*
X73121396Y-75011501D01*
X72935842Y-74881575D01*
X72892217Y-74826998D01*
X72885023Y-74757500D01*
X72916546Y-74695145D01*
X72935842Y-74678425D01*
X73006671Y-74628830D01*
X73121401Y-74548495D01*
X73288495Y-74381401D01*
X73424035Y-74187830D01*
X73523903Y-73973663D01*
X73585063Y-73745408D01*
X73605659Y-73510000D01*
X73604593Y-73497821D01*
X73594183Y-73378828D01*
X73585063Y-73274592D01*
X73523903Y-73046337D01*
X73424035Y-72832171D01*
X73374284Y-72761118D01*
X73288494Y-72638597D01*
X73121402Y-72471506D01*
X73121396Y-72471501D01*
X72935842Y-72341575D01*
X72892217Y-72286998D01*
X72885023Y-72217500D01*
X72916546Y-72155145D01*
X72935842Y-72138425D01*
X72958026Y-72122891D01*
X73121401Y-72008495D01*
X73288495Y-71841401D01*
X73424035Y-71647830D01*
X73523903Y-71433663D01*
X73529355Y-71413318D01*
X73552848Y-71325637D01*
X73585063Y-71205408D01*
X73605659Y-70970000D01*
X73585063Y-70734592D01*
X73523903Y-70506337D01*
X73424035Y-70292171D01*
X73402293Y-70261119D01*
X73288494Y-70098597D01*
X73121402Y-69931506D01*
X73121396Y-69931501D01*
X72935842Y-69801575D01*
X72892217Y-69746998D01*
X72885023Y-69677500D01*
X72916546Y-69615145D01*
X72935842Y-69598425D01*
X72960867Y-69580902D01*
X73121401Y-69468495D01*
X73288495Y-69301401D01*
X73424035Y-69107830D01*
X73523903Y-68893663D01*
X73585063Y-68665408D01*
X73605659Y-68430000D01*
X73585063Y-68194592D01*
X73523903Y-67966337D01*
X73424035Y-67752171D01*
X73415066Y-67739361D01*
X73288494Y-67558597D01*
X73121402Y-67391506D01*
X73121396Y-67391501D01*
X72935842Y-67261575D01*
X72892217Y-67206998D01*
X72885023Y-67137500D01*
X72916546Y-67075145D01*
X72935842Y-67058425D01*
X72990753Y-67019976D01*
X73121401Y-66928495D01*
X73288495Y-66761401D01*
X73424035Y-66567830D01*
X73523903Y-66353663D01*
X73585063Y-66125408D01*
X73605659Y-65890000D01*
X73604011Y-65871169D01*
X73593732Y-65753676D01*
X73585063Y-65654592D01*
X73523903Y-65426337D01*
X73424035Y-65212171D01*
X73288495Y-65018599D01*
X73166567Y-64896671D01*
X73133084Y-64835351D01*
X73138068Y-64765659D01*
X73179939Y-64709725D01*
X73210915Y-64692810D01*
X73342331Y-64643796D01*
X73457546Y-64557546D01*
X73543796Y-64442331D01*
X73594091Y-64307483D01*
X73600500Y-64247873D01*
X73600499Y-62452128D01*
X73594091Y-62392517D01*
X73577213Y-62347266D01*
X73543797Y-62257671D01*
X73543793Y-62257664D01*
X73457547Y-62142455D01*
X73457544Y-62142452D01*
X73342335Y-62056206D01*
X73342328Y-62056202D01*
X73207482Y-62005908D01*
X73207483Y-62005908D01*
X73147883Y-61999501D01*
X73147881Y-61999500D01*
X73147873Y-61999500D01*
X73147864Y-61999500D01*
X71352129Y-61999500D01*
X71352123Y-61999501D01*
X71292516Y-62005908D01*
X71157671Y-62056202D01*
X71157664Y-62056206D01*
X71042455Y-62142452D01*
X71042452Y-62142455D01*
X70956206Y-62257664D01*
X70956202Y-62257671D01*
X70905908Y-62392517D01*
X70901038Y-62437821D01*
X70899501Y-62452123D01*
X70899500Y-62452135D01*
X70899500Y-64247870D01*
X70899501Y-64247876D01*
X70905908Y-64307483D01*
X70956202Y-64442328D01*
X70956206Y-64442335D01*
X71042452Y-64557544D01*
X71042455Y-64557547D01*
X71157664Y-64643793D01*
X71157671Y-64643797D01*
X71289081Y-64692810D01*
X71345015Y-64734681D01*
X71369432Y-64800145D01*
X71354580Y-64868418D01*
X71333430Y-64896673D01*
X71211503Y-65018600D01*
X71075965Y-65212169D01*
X71075964Y-65212171D01*
X70976098Y-65426335D01*
X70976094Y-65426344D01*
X70914938Y-65654586D01*
X70914936Y-65654596D01*
X70894341Y-65889999D01*
X70894341Y-65890000D01*
X70914936Y-66125403D01*
X70914938Y-66125413D01*
X70976094Y-66353655D01*
X70976096Y-66353659D01*
X70976097Y-66353663D01*
X71059907Y-66533393D01*
X71075965Y-66567830D01*
X71075967Y-66567834D01*
X71211501Y-66761395D01*
X71211506Y-66761402D01*
X71378597Y-66928493D01*
X71378603Y-66928498D01*
X71564158Y-67058425D01*
X71607783Y-67113002D01*
X71614977Y-67182500D01*
X71583454Y-67244855D01*
X71564158Y-67261575D01*
X71378597Y-67391505D01*
X71211505Y-67558597D01*
X71075965Y-67752169D01*
X71075964Y-67752171D01*
X70976098Y-67966335D01*
X70976094Y-67966344D01*
X70914938Y-68194586D01*
X70914936Y-68194596D01*
X70894341Y-68429999D01*
X70894341Y-68430000D01*
X70914936Y-68665403D01*
X70914938Y-68665413D01*
X70976094Y-68893655D01*
X70976096Y-68893659D01*
X70976097Y-68893663D01*
X71015936Y-68979097D01*
X71075965Y-69107830D01*
X71075967Y-69107834D01*
X71167728Y-69238881D01*
X71193290Y-69275388D01*
X71211501Y-69301395D01*
X71211506Y-69301402D01*
X71378597Y-69468493D01*
X71378603Y-69468498D01*
X71564158Y-69598425D01*
X71607783Y-69653002D01*
X71614977Y-69722500D01*
X71583454Y-69784855D01*
X71564158Y-69801575D01*
X71378597Y-69931505D01*
X71211505Y-70098597D01*
X71075965Y-70292169D01*
X71075964Y-70292171D01*
X70982401Y-70492816D01*
X70976202Y-70506113D01*
X70976098Y-70506335D01*
X70976094Y-70506344D01*
X70914938Y-70734586D01*
X70914936Y-70734596D01*
X70894341Y-70969999D01*
X70894341Y-70970000D01*
X70914936Y-71205403D01*
X70914938Y-71205413D01*
X70974782Y-71428756D01*
X70976097Y-71433663D01*
X71059933Y-71613450D01*
X71075965Y-71647830D01*
X71075967Y-71647834D01*
X71175814Y-71790429D01*
X71194493Y-71817106D01*
X71211501Y-71841395D01*
X71211506Y-71841402D01*
X71378597Y-72008493D01*
X71378603Y-72008498D01*
X71564158Y-72138425D01*
X71607783Y-72193002D01*
X71614977Y-72262500D01*
X71583454Y-72324855D01*
X71564158Y-72341575D01*
X71378597Y-72471505D01*
X71211505Y-72638597D01*
X71075965Y-72832169D01*
X71075964Y-72832171D01*
X70976098Y-73046335D01*
X70976094Y-73046344D01*
X70914938Y-73274586D01*
X70914936Y-73274596D01*
X70894341Y-73509999D01*
X70894341Y-73510000D01*
X70914936Y-73745403D01*
X70914938Y-73745413D01*
X70976094Y-73973655D01*
X70976096Y-73973659D01*
X70976097Y-73973663D01*
X70978443Y-73978693D01*
X71075965Y-74187830D01*
X71075967Y-74187834D01*
X71211501Y-74381395D01*
X71211506Y-74381402D01*
X71378597Y-74548493D01*
X71378603Y-74548498D01*
X71564158Y-74678425D01*
X71607783Y-74733002D01*
X71614977Y-74802500D01*
X71583454Y-74864855D01*
X71564158Y-74881575D01*
X71378600Y-75011503D01*
X71348393Y-75041711D01*
X71276921Y-75113182D01*
X71215601Y-75146666D01*
X71189242Y-75149500D01*
X56861303Y-75149500D01*
X56687341Y-75184103D01*
X56687333Y-75184105D01*
X56631641Y-75207174D01*
X56523455Y-75251985D01*
X56523447Y-75251990D01*
X56445320Y-75304194D01*
X56445318Y-75304195D01*
X56383644Y-75345403D01*
X56316967Y-75366280D01*
X56249587Y-75347794D01*
X56202897Y-75295815D01*
X56191722Y-75226845D01*
X56196822Y-75203986D01*
X56219709Y-75133550D01*
X56235044Y-75036727D01*
X56240357Y-75003182D01*
X56240357Y-75003181D01*
X56250500Y-74939140D01*
X56250500Y-69925940D01*
X56270185Y-69858901D01*
X56322989Y-69813146D01*
X56392147Y-69803202D01*
X56455703Y-69832227D01*
X56465725Y-69841953D01*
X56480256Y-69857738D01*
X56676491Y-70010474D01*
X56895190Y-70128828D01*
X57130386Y-70209571D01*
X57375665Y-70250500D01*
X57624335Y-70250500D01*
X57869614Y-70209571D01*
X58104810Y-70128828D01*
X58323509Y-70010474D01*
X58519744Y-69857738D01*
X58534270Y-69841958D01*
X58594155Y-69805967D01*
X58663993Y-69808066D01*
X58721610Y-69847589D01*
X58748713Y-69911988D01*
X58749500Y-69925940D01*
X58749500Y-70930663D01*
X58729815Y-70997702D01*
X58713181Y-71018344D01*
X57981345Y-71750179D01*
X57920022Y-71783664D01*
X57914075Y-71784807D01*
X57880382Y-71790429D01*
X57645197Y-71871169D01*
X57645188Y-71871172D01*
X57426493Y-71989524D01*
X57230257Y-72142261D01*
X57061833Y-72325217D01*
X56925826Y-72533393D01*
X56825936Y-72761118D01*
X56764892Y-73002175D01*
X56764890Y-73002187D01*
X56744357Y-73249994D01*
X56744357Y-73250005D01*
X56764890Y-73497812D01*
X56764892Y-73497824D01*
X56825936Y-73738881D01*
X56925826Y-73966606D01*
X57061833Y-74174782D01*
X57061836Y-74174785D01*
X57230256Y-74357738D01*
X57426491Y-74510474D01*
X57645190Y-74628828D01*
X57880386Y-74709571D01*
X58125665Y-74750500D01*
X58374335Y-74750500D01*
X58619614Y-74709571D01*
X58854810Y-74628828D01*
X59073509Y-74510474D01*
X59269744Y-74357738D01*
X59438164Y-74174785D01*
X59574173Y-73966607D01*
X59674063Y-73738881D01*
X59714673Y-73578514D01*
X59747195Y-73521278D01*
X60953829Y-72314646D01*
X61069524Y-72155405D01*
X61158884Y-71980026D01*
X61219709Y-71792826D01*
X61236070Y-71689526D01*
X61248119Y-71613452D01*
X61250500Y-71598421D01*
X61250500Y-70135258D01*
X63249500Y-70135258D01*
X63249500Y-70364741D01*
X63273743Y-70548874D01*
X63279452Y-70592238D01*
X63317594Y-70734586D01*
X63338842Y-70813887D01*
X63426650Y-71025876D01*
X63426656Y-71025888D01*
X63530304Y-71205413D01*
X63541392Y-71224617D01*
X63681081Y-71406661D01*
X63681089Y-71406670D01*
X63843330Y-71568911D01*
X63843338Y-71568918D01*
X64025382Y-71708607D01*
X64025385Y-71708608D01*
X64025388Y-71708611D01*
X64224112Y-71823344D01*
X64224117Y-71823346D01*
X64224123Y-71823349D01*
X64315480Y-71861190D01*
X64436113Y-71911158D01*
X64657762Y-71970548D01*
X64874312Y-71999057D01*
X64881422Y-71999994D01*
X64885266Y-72000500D01*
X64885273Y-72000500D01*
X65114727Y-72000500D01*
X65114734Y-72000500D01*
X65342238Y-71970548D01*
X65563887Y-71911158D01*
X65775888Y-71823344D01*
X65974612Y-71708611D01*
X66156661Y-71568919D01*
X66156665Y-71568914D01*
X66156670Y-71568911D01*
X66318911Y-71406670D01*
X66318914Y-71406665D01*
X66318919Y-71406661D01*
X66458611Y-71224612D01*
X66573344Y-71025888D01*
X66661158Y-70813887D01*
X66720548Y-70592238D01*
X66750500Y-70364734D01*
X66750500Y-70135266D01*
X66720548Y-69907762D01*
X66661158Y-69686113D01*
X66579728Y-69489524D01*
X66573349Y-69474123D01*
X66573346Y-69474117D01*
X66573344Y-69474112D01*
X66458611Y-69275388D01*
X66458608Y-69275385D01*
X66458607Y-69275382D01*
X66318918Y-69093338D01*
X66318911Y-69093330D01*
X66156670Y-68931089D01*
X66156661Y-68931081D01*
X65974617Y-68791392D01*
X65775890Y-68676657D01*
X65775876Y-68676650D01*
X65563887Y-68588842D01*
X65342238Y-68529452D01*
X65304215Y-68524446D01*
X65114741Y-68499500D01*
X65114734Y-68499500D01*
X64885266Y-68499500D01*
X64885258Y-68499500D01*
X64668715Y-68528009D01*
X64657762Y-68529452D01*
X64582844Y-68549526D01*
X64436112Y-68588842D01*
X64224123Y-68676650D01*
X64224109Y-68676657D01*
X64025382Y-68791392D01*
X63843338Y-68931081D01*
X63681081Y-69093338D01*
X63541392Y-69275382D01*
X63426657Y-69474109D01*
X63426650Y-69474123D01*
X63338842Y-69686112D01*
X63279453Y-69907759D01*
X63279451Y-69907770D01*
X63249500Y-70135258D01*
X61250500Y-70135258D01*
X61250500Y-68069336D01*
X61270185Y-68002297D01*
X61286819Y-67981655D01*
X63613888Y-65654586D01*
X65953828Y-63314646D01*
X66069524Y-63155405D01*
X66158884Y-62980026D01*
X66219709Y-62792826D01*
X66235267Y-62694595D01*
X66238715Y-62672826D01*
X66250500Y-62598421D01*
X66250500Y-54857763D01*
X66270185Y-54790724D01*
X66286815Y-54770086D01*
X66670083Y-54386817D01*
X66731406Y-54353333D01*
X66757764Y-54350499D01*
X66897871Y-54350499D01*
X66897872Y-54350499D01*
X66957483Y-54344091D01*
X67092331Y-54293796D01*
X67207546Y-54207546D01*
X67293796Y-54092331D01*
X67344091Y-53957483D01*
X67350500Y-53897873D01*
X67350499Y-52102128D01*
X67344091Y-52042517D01*
X67342810Y-52039083D01*
X67293797Y-51907671D01*
X67293793Y-51907664D01*
X67207547Y-51792455D01*
X67207544Y-51792452D01*
X67092335Y-51706206D01*
X67092328Y-51706202D01*
X66957482Y-51655908D01*
X66957483Y-51655908D01*
X66897883Y-51649501D01*
X66897881Y-51649500D01*
X66897873Y-51649500D01*
X66897864Y-51649500D01*
X65102129Y-51649500D01*
X65102123Y-51649501D01*
X65042516Y-51655908D01*
X64907671Y-51706202D01*
X64907664Y-51706206D01*
X64792455Y-51792452D01*
X64792452Y-51792455D01*
X64706206Y-51907664D01*
X64706203Y-51907669D01*
X64657189Y-52039083D01*
X64615317Y-52095016D01*
X64549853Y-52119433D01*
X64481580Y-52104581D01*
X64453326Y-52083430D01*
X64331402Y-51961506D01*
X64331395Y-51961501D01*
X64328637Y-51959570D01*
X64274242Y-51921482D01*
X64137834Y-51825967D01*
X64137830Y-51825965D01*
X63923663Y-51726097D01*
X63923659Y-51726096D01*
X63923655Y-51726094D01*
X63695413Y-51664938D01*
X63695403Y-51664936D01*
X63460001Y-51644341D01*
X63459999Y-51644341D01*
X63224596Y-51664936D01*
X63224586Y-51664938D01*
X62996344Y-51726094D01*
X62996330Y-51726099D01*
X62971063Y-51737882D01*
X62918659Y-51749500D01*
X60623341Y-51749500D01*
X60564324Y-51734555D01*
X60354812Y-51621173D01*
X60354802Y-51621169D01*
X60119616Y-51540429D01*
X59874335Y-51499500D01*
X59625665Y-51499500D01*
X59380383Y-51540429D01*
X59145197Y-51621169D01*
X59145188Y-51621172D01*
X58926493Y-51739524D01*
X58747517Y-51878827D01*
X58730256Y-51892262D01*
X58716073Y-51907669D01*
X58561836Y-52075215D01*
X58478309Y-52203063D01*
X58425162Y-52248419D01*
X58355931Y-52257843D01*
X58292595Y-52228341D01*
X58255264Y-52169281D01*
X58250500Y-52135241D01*
X58250500Y-51319336D01*
X58270185Y-51252297D01*
X58286819Y-51231655D01*
X58731655Y-50786819D01*
X58792978Y-50753334D01*
X58819336Y-50750500D01*
X60680663Y-50750500D01*
X60747702Y-50770185D01*
X60768344Y-50786819D01*
X60935355Y-50953830D01*
X60935360Y-50953834D01*
X61037260Y-51027868D01*
X61094595Y-51069524D01*
X61269974Y-51158884D01*
X61447624Y-51216606D01*
X61447627Y-51216607D01*
X61447629Y-51216608D01*
X61449861Y-51217333D01*
X61457174Y-51219709D01*
X61532599Y-51231655D01*
X61651578Y-51250500D01*
X61651583Y-51250500D01*
X67598422Y-51250500D01*
X67792826Y-51219709D01*
X67800135Y-51217334D01*
X67980026Y-51158884D01*
X68155405Y-51069524D01*
X68314646Y-50953828D01*
X71937821Y-47330651D01*
X71999142Y-47297168D01*
X72068834Y-47302152D01*
G37*
%TD.AperFunction*%
%TA.AperFunction,NonConductor*%
G36*
X43886203Y-76870185D02*
G01*
X43931958Y-76922989D01*
X43941902Y-76992147D01*
X43912877Y-77055703D01*
X43906845Y-77062181D01*
X42157180Y-78811845D01*
X42095857Y-78845330D01*
X42026165Y-78840346D01*
X41970232Y-78798474D01*
X41945815Y-78733010D01*
X41945499Y-78724189D01*
X41945499Y-77039628D01*
X41939923Y-76987753D01*
X41952330Y-76918993D01*
X41999941Y-76867857D01*
X42063213Y-76850500D01*
X43819164Y-76850500D01*
X43886203Y-76870185D01*
G37*
%TD.AperFunction*%
%TA.AperFunction,NonConductor*%
G36*
X116935703Y-78175435D02*
G01*
X116942181Y-78181467D01*
X117291395Y-78530681D01*
X117324880Y-78592004D01*
X117319896Y-78661696D01*
X117294944Y-78702345D01*
X117191229Y-78815010D01*
X117131342Y-78851000D01*
X117061504Y-78848900D01*
X117008770Y-78815011D01*
X116849744Y-78642262D01*
X116785173Y-78592004D01*
X116778337Y-78586683D01*
X116737524Y-78529972D01*
X116730500Y-78488830D01*
X116730500Y-78269148D01*
X116750185Y-78202109D01*
X116802989Y-78156354D01*
X116872147Y-78146410D01*
X116935703Y-78175435D01*
G37*
%TD.AperFunction*%
%TA.AperFunction,NonConductor*%
G36*
X113386890Y-77170185D02*
G01*
X113407532Y-77186819D01*
X114103635Y-77882922D01*
X114751395Y-78530681D01*
X114784880Y-78592004D01*
X114779896Y-78661696D01*
X114754944Y-78702345D01*
X114651229Y-78815010D01*
X114591342Y-78851000D01*
X114521504Y-78848900D01*
X114468770Y-78815011D01*
X114309744Y-78642262D01*
X114113509Y-78489526D01*
X114113507Y-78489525D01*
X114113506Y-78489524D01*
X113894811Y-78371172D01*
X113894802Y-78371169D01*
X113659616Y-78290429D01*
X113414335Y-78249500D01*
X113165665Y-78249500D01*
X113160537Y-78249500D01*
X113160537Y-78247133D01*
X113101764Y-78235023D01*
X113072311Y-78213226D01*
X112221267Y-77362181D01*
X112187782Y-77300858D01*
X112192766Y-77231166D01*
X112234638Y-77175233D01*
X112300102Y-77150816D01*
X112308948Y-77150500D01*
X113319851Y-77150500D01*
X113386890Y-77170185D01*
G37*
%TD.AperFunction*%
%TA.AperFunction,NonConductor*%
G36*
X105697062Y-71825163D02*
G01*
X105715097Y-71841271D01*
X105730256Y-71857738D01*
X105926491Y-72010474D01*
X106145190Y-72128828D01*
X106380386Y-72209571D01*
X106625665Y-72250500D01*
X106874334Y-72250500D01*
X106874335Y-72250500D01*
X106965536Y-72235281D01*
X107034898Y-72243663D01*
X107088720Y-72288215D01*
X107109911Y-72354794D01*
X107099500Y-72407398D01*
X107075936Y-72461118D01*
X107014892Y-72702175D01*
X107014890Y-72702187D01*
X106994357Y-72949994D01*
X106994357Y-72950005D01*
X107014890Y-73197812D01*
X107014892Y-73197824D01*
X107075936Y-73438881D01*
X107177887Y-73671304D01*
X107176881Y-73671745D01*
X107190356Y-73734802D01*
X107165698Y-73800176D01*
X107109610Y-73841841D01*
X107066705Y-73849500D01*
X106411304Y-73849500D01*
X106237341Y-73884103D01*
X106237333Y-73884105D01*
X106164945Y-73914090D01*
X106164944Y-73914090D01*
X106073459Y-73951983D01*
X106073447Y-73951990D01*
X105951621Y-74033393D01*
X105951620Y-74033393D01*
X105925969Y-74050532D01*
X105925961Y-74050538D01*
X99783319Y-80193181D01*
X99721996Y-80226666D01*
X99695638Y-80229500D01*
X99093362Y-80229500D01*
X99026323Y-80209815D01*
X98980568Y-80157011D01*
X98970624Y-80087853D01*
X98999649Y-80024297D01*
X99005681Y-80017819D01*
X102099460Y-76924039D01*
X102099459Y-76924039D01*
X102099463Y-76924036D01*
X102104016Y-76917222D01*
X102198013Y-76776547D01*
X102265894Y-76612666D01*
X102300500Y-76438691D01*
X102300500Y-72395993D01*
X102320185Y-72328954D01*
X102372989Y-72283199D01*
X102442147Y-72273255D01*
X102505703Y-72302280D01*
X102543477Y-72361058D01*
X102544705Y-72365550D01*
X102552414Y-72395993D01*
X102575937Y-72488881D01*
X102675826Y-72716606D01*
X102811833Y-72924782D01*
X102835048Y-72950000D01*
X102980256Y-73107738D01*
X103176491Y-73260474D01*
X103395190Y-73378828D01*
X103630386Y-73459571D01*
X103875665Y-73500500D01*
X104124335Y-73500500D01*
X104369614Y-73459571D01*
X104604810Y-73378828D01*
X104823509Y-73260474D01*
X105019744Y-73107738D01*
X105188164Y-72924785D01*
X105324173Y-72716607D01*
X105424063Y-72488881D01*
X105485108Y-72247821D01*
X105486304Y-72233393D01*
X105505643Y-72000005D01*
X105505643Y-71999994D01*
X105500299Y-71935501D01*
X105514380Y-71867065D01*
X105563225Y-71817106D01*
X105631326Y-71801485D01*
X105697062Y-71825163D01*
G37*
%TD.AperFunction*%
%TA.AperFunction,NonConductor*%
G36*
X91560297Y-61410689D02*
G01*
X91616230Y-61452561D01*
X91640647Y-61518025D01*
X91630519Y-61576680D01*
X91575937Y-61701116D01*
X91514892Y-61942175D01*
X91514890Y-61942187D01*
X91494357Y-62189994D01*
X91494357Y-62190000D01*
X91505767Y-62327706D01*
X91507374Y-62347100D01*
X91493292Y-62415536D01*
X91471478Y-62445020D01*
X90500537Y-63415961D01*
X90461064Y-63475039D01*
X90461063Y-63475040D01*
X90401990Y-63563447D01*
X90401983Y-63563459D01*
X90369110Y-63642825D01*
X90369110Y-63642826D01*
X90334105Y-63727332D01*
X90330030Y-63747821D01*
X90299661Y-63900500D01*
X90299660Y-63900505D01*
X90299500Y-63901306D01*
X90299500Y-71788696D01*
X90334103Y-71962658D01*
X90334105Y-71962666D01*
X90368046Y-72044606D01*
X90368046Y-72044607D01*
X90401984Y-72126542D01*
X90401985Y-72126543D01*
X90401987Y-72126547D01*
X90446392Y-72193002D01*
X90452163Y-72201639D01*
X90452163Y-72201640D01*
X90500537Y-72274038D01*
X95028165Y-76801666D01*
X95028169Y-76801669D01*
X95028171Y-76801671D01*
X95050485Y-76816581D01*
X95061644Y-76824037D01*
X95175657Y-76900218D01*
X95175660Y-76900220D01*
X95213499Y-76915893D01*
X95213500Y-76915894D01*
X95213501Y-76915894D01*
X95339541Y-76968102D01*
X95513510Y-77002706D01*
X95513514Y-77002707D01*
X95513515Y-77002707D01*
X95513516Y-77002707D01*
X97837296Y-77002707D01*
X97904335Y-77022392D01*
X97928522Y-77042721D01*
X98082463Y-77209945D01*
X98278698Y-77362681D01*
X98497397Y-77481035D01*
X98650187Y-77533488D01*
X98680295Y-77543824D01*
X98737310Y-77584209D01*
X98763441Y-77649009D01*
X98750390Y-77717649D01*
X98727713Y-77748786D01*
X98083319Y-78393181D01*
X98021996Y-78426666D01*
X97995638Y-78429500D01*
X97014911Y-78429500D01*
X96947872Y-78409815D01*
X96923684Y-78389485D01*
X96769744Y-78222262D01*
X96573509Y-78069526D01*
X96573507Y-78069525D01*
X96573506Y-78069524D01*
X96354811Y-77951172D01*
X96354802Y-77951169D01*
X96119616Y-77870429D01*
X95874335Y-77829500D01*
X95625665Y-77829500D01*
X95380383Y-77870429D01*
X95145197Y-77951169D01*
X95145188Y-77951172D01*
X94926493Y-78069524D01*
X94730257Y-78222261D01*
X94561833Y-78405217D01*
X94425826Y-78613393D01*
X94325936Y-78841118D01*
X94264892Y-79082175D01*
X94264890Y-79082187D01*
X94244357Y-79329994D01*
X94244357Y-79330005D01*
X94264890Y-79577812D01*
X94264892Y-79577824D01*
X94325936Y-79818881D01*
X94427887Y-80051304D01*
X94426881Y-80051745D01*
X94440356Y-80114802D01*
X94415698Y-80180176D01*
X94359610Y-80221841D01*
X94316705Y-80229500D01*
X88810758Y-80229500D01*
X88743719Y-80209815D01*
X88723077Y-80193181D01*
X88621402Y-80091506D01*
X88621396Y-80091501D01*
X88435842Y-79961575D01*
X88392217Y-79906998D01*
X88385023Y-79837500D01*
X88416546Y-79775145D01*
X88435842Y-79758425D01*
X88458026Y-79742891D01*
X88621401Y-79628495D01*
X88788495Y-79461401D01*
X88924035Y-79267830D01*
X89023903Y-79053663D01*
X89085063Y-78825408D01*
X89105659Y-78590000D01*
X89085063Y-78354592D01*
X89031946Y-78156354D01*
X89023905Y-78126344D01*
X89023904Y-78126343D01*
X89023903Y-78126337D01*
X88924035Y-77912171D01*
X88919214Y-77905285D01*
X88788494Y-77718597D01*
X88621402Y-77551506D01*
X88621396Y-77551501D01*
X88435842Y-77421575D01*
X88392217Y-77366998D01*
X88385023Y-77297500D01*
X88416546Y-77235145D01*
X88435842Y-77218425D01*
X88497526Y-77175233D01*
X88621401Y-77088495D01*
X88788495Y-76921401D01*
X88924035Y-76727830D01*
X89023903Y-76513663D01*
X89085063Y-76285408D01*
X89105659Y-76050000D01*
X89085063Y-75814592D01*
X89023903Y-75586337D01*
X88924035Y-75372171D01*
X88907634Y-75348747D01*
X88788494Y-75178597D01*
X88621402Y-75011506D01*
X88621396Y-75011501D01*
X88435842Y-74881575D01*
X88392217Y-74826998D01*
X88385023Y-74757500D01*
X88416546Y-74695145D01*
X88435842Y-74678425D01*
X88506671Y-74628830D01*
X88621401Y-74548495D01*
X88788495Y-74381401D01*
X88924035Y-74187830D01*
X89023903Y-73973663D01*
X89085063Y-73745408D01*
X89105659Y-73510000D01*
X89104593Y-73497821D01*
X89094183Y-73378828D01*
X89085063Y-73274592D01*
X89023903Y-73046337D01*
X88924035Y-72832171D01*
X88874284Y-72761118D01*
X88788494Y-72638597D01*
X88621402Y-72471506D01*
X88621396Y-72471501D01*
X88435842Y-72341575D01*
X88392217Y-72286998D01*
X88385023Y-72217500D01*
X88416546Y-72155145D01*
X88435842Y-72138425D01*
X88458026Y-72122891D01*
X88621401Y-72008495D01*
X88788495Y-71841401D01*
X88924035Y-71647830D01*
X89023903Y-71433663D01*
X89029355Y-71413318D01*
X89052848Y-71325637D01*
X89085063Y-71205408D01*
X89105659Y-70970000D01*
X89085063Y-70734592D01*
X89023903Y-70506337D01*
X88924035Y-70292171D01*
X88902293Y-70261119D01*
X88788494Y-70098597D01*
X88621402Y-69931506D01*
X88621396Y-69931501D01*
X88435842Y-69801575D01*
X88392217Y-69746998D01*
X88385023Y-69677500D01*
X88416546Y-69615145D01*
X88435842Y-69598425D01*
X88460867Y-69580902D01*
X88621401Y-69468495D01*
X88788495Y-69301401D01*
X88924035Y-69107830D01*
X89023903Y-68893663D01*
X89085063Y-68665408D01*
X89105659Y-68430000D01*
X89085063Y-68194592D01*
X89023903Y-67966337D01*
X88924035Y-67752171D01*
X88915066Y-67739361D01*
X88788494Y-67558597D01*
X88621402Y-67391506D01*
X88621396Y-67391501D01*
X88435842Y-67261575D01*
X88392217Y-67206998D01*
X88385023Y-67137500D01*
X88416546Y-67075145D01*
X88435842Y-67058425D01*
X88490753Y-67019976D01*
X88621401Y-66928495D01*
X88788495Y-66761401D01*
X88924035Y-66567830D01*
X89023903Y-66353663D01*
X89085063Y-66125408D01*
X89105659Y-65890000D01*
X89104011Y-65871169D01*
X89093732Y-65753676D01*
X89085063Y-65654592D01*
X89023903Y-65426337D01*
X89012118Y-65401063D01*
X89000500Y-65348659D01*
X89000500Y-64541438D01*
X89020185Y-64474399D01*
X89025234Y-64467126D01*
X89043796Y-64442331D01*
X89094091Y-64307483D01*
X89100500Y-64247873D01*
X89100499Y-63819334D01*
X89120183Y-63752296D01*
X89136813Y-63731659D01*
X91429286Y-61439187D01*
X91490605Y-61405705D01*
X91560297Y-61410689D01*
G37*
%TD.AperFunction*%
%TA.AperFunction,NonConductor*%
G36*
X106669305Y-80456706D02*
G01*
X106725238Y-80498578D01*
X106749547Y-80562648D01*
X106764890Y-80747812D01*
X106764892Y-80747824D01*
X106791047Y-80851105D01*
X106788422Y-80920925D01*
X106748466Y-80978242D01*
X106683864Y-81004859D01*
X106650435Y-81003854D01*
X106624339Y-80999500D01*
X106624335Y-80999500D01*
X106375665Y-80999500D01*
X106375661Y-80999500D01*
X106335348Y-81006226D01*
X106265984Y-80997843D01*
X106212163Y-80953289D01*
X106190973Y-80886709D01*
X106209143Y-80819244D01*
X106227255Y-80796242D01*
X106538293Y-80485204D01*
X106599613Y-80451722D01*
X106669305Y-80456706D01*
G37*
%TD.AperFunction*%
%TA.AperFunction,NonConductor*%
G36*
X117138495Y-80651099D02*
G01*
X117191228Y-80684988D01*
X117350256Y-80857738D01*
X117407312Y-80902147D01*
X117448125Y-80958857D01*
X117451800Y-81028630D01*
X117417169Y-81089313D01*
X117407317Y-81097848D01*
X117367283Y-81129008D01*
X117350257Y-81142261D01*
X117191230Y-81315010D01*
X117131342Y-81351001D01*
X117061504Y-81348900D01*
X117008770Y-81315010D01*
X116873197Y-81167739D01*
X116849744Y-81142262D01*
X116792685Y-81097851D01*
X116751874Y-81041143D01*
X116748199Y-80971370D01*
X116782830Y-80910687D01*
X116792675Y-80902156D01*
X116849744Y-80857738D01*
X117008771Y-80684988D01*
X117068657Y-80648999D01*
X117138495Y-80651099D01*
G37*
%TD.AperFunction*%
%TA.AperFunction,NonConductor*%
G36*
X114598495Y-80651099D02*
G01*
X114651228Y-80684988D01*
X114810256Y-80857738D01*
X114867312Y-80902147D01*
X114908125Y-80958857D01*
X114911800Y-81028630D01*
X114877169Y-81089313D01*
X114867317Y-81097848D01*
X114827283Y-81129008D01*
X114810257Y-81142261D01*
X114651230Y-81315010D01*
X114591342Y-81351001D01*
X114521504Y-81348900D01*
X114468770Y-81315010D01*
X114333197Y-81167739D01*
X114309744Y-81142262D01*
X114252685Y-81097851D01*
X114211874Y-81041143D01*
X114208199Y-80971370D01*
X114242830Y-80910687D01*
X114252675Y-80902156D01*
X114309744Y-80857738D01*
X114468771Y-80684988D01*
X114528657Y-80648999D01*
X114598495Y-80651099D01*
G37*
%TD.AperFunction*%
%TA.AperFunction,NonConductor*%
G36*
X120070333Y-79614638D02*
G01*
X120084827Y-79627056D01*
X120213181Y-79755410D01*
X120246666Y-79816733D01*
X120249500Y-79843091D01*
X120249500Y-82156908D01*
X120229815Y-82223947D01*
X120213181Y-82244589D01*
X120084827Y-82372943D01*
X120023504Y-82406428D01*
X119953812Y-82401444D01*
X119897879Y-82359572D01*
X119873462Y-82294108D01*
X119873570Y-82275022D01*
X119875643Y-82250005D01*
X119875643Y-82249994D01*
X119855109Y-82002187D01*
X119855107Y-82002175D01*
X119794063Y-81761118D01*
X119694173Y-81533393D01*
X119558166Y-81325217D01*
X119413197Y-81167739D01*
X119389744Y-81142262D01*
X119332685Y-81097851D01*
X119291874Y-81041143D01*
X119288199Y-80971370D01*
X119322830Y-80910687D01*
X119332675Y-80902156D01*
X119389744Y-80857738D01*
X119558164Y-80674785D01*
X119694173Y-80466607D01*
X119794063Y-80238881D01*
X119855108Y-79997821D01*
X119855109Y-79997812D01*
X119875643Y-79750005D01*
X119875643Y-79749994D01*
X119873570Y-79724977D01*
X119887651Y-79656541D01*
X119936496Y-79606582D01*
X120004597Y-79590961D01*
X120070333Y-79614638D01*
G37*
%TD.AperFunction*%
%TA.AperFunction,NonConductor*%
G36*
X99713677Y-82050185D02*
G01*
X99759432Y-82102989D01*
X99769376Y-82172147D01*
X99740351Y-82235703D01*
X99734319Y-82242181D01*
X99243319Y-82733181D01*
X99181996Y-82766666D01*
X99155638Y-82769500D01*
X88810758Y-82769500D01*
X88743719Y-82749815D01*
X88723077Y-82733181D01*
X88621402Y-82631506D01*
X88621396Y-82631501D01*
X88435842Y-82501575D01*
X88392217Y-82446998D01*
X88385023Y-82377500D01*
X88416546Y-82315145D01*
X88435842Y-82298425D01*
X88505008Y-82249994D01*
X88621401Y-82168495D01*
X88723077Y-82066819D01*
X88784400Y-82033334D01*
X88810758Y-82030500D01*
X99646638Y-82030500D01*
X99713677Y-82050185D01*
G37*
%TD.AperFunction*%
%TA.AperFunction,NonConductor*%
G36*
X117138495Y-83151099D02*
G01*
X117191228Y-83184988D01*
X117220335Y-83216606D01*
X117294944Y-83297653D01*
X117325866Y-83360308D01*
X117318006Y-83429734D01*
X117291395Y-83469317D01*
X116942181Y-83818531D01*
X116880858Y-83852016D01*
X116811166Y-83847032D01*
X116755233Y-83805160D01*
X116730816Y-83739696D01*
X116730500Y-83730850D01*
X116730500Y-83511169D01*
X116750185Y-83444130D01*
X116778338Y-83413315D01*
X116786805Y-83406725D01*
X116849744Y-83357738D01*
X117008771Y-83184988D01*
X117068657Y-83148999D01*
X117138495Y-83151099D01*
G37*
%TD.AperFunction*%
%TA.AperFunction,NonConductor*%
G36*
X114598495Y-83151099D02*
G01*
X114651228Y-83184988D01*
X114754944Y-83297653D01*
X114785866Y-83360306D01*
X114778006Y-83429733D01*
X114751395Y-83469316D01*
X114402181Y-83818531D01*
X114340858Y-83852016D01*
X114271167Y-83847032D01*
X114215233Y-83805161D01*
X114190816Y-83739696D01*
X114190500Y-83730850D01*
X114190500Y-83511169D01*
X114210185Y-83444130D01*
X114238338Y-83413315D01*
X114246805Y-83406725D01*
X114309744Y-83357738D01*
X114468771Y-83184988D01*
X114528657Y-83148999D01*
X114598495Y-83151099D01*
G37*
%TD.AperFunction*%
%TA.AperFunction,NonConductor*%
G36*
X111697891Y-83770184D02*
G01*
X111743646Y-83822988D01*
X111753590Y-83892146D01*
X111724565Y-83955702D01*
X111718533Y-83962180D01*
X111567532Y-84113181D01*
X111506209Y-84146666D01*
X111479851Y-84149500D01*
X107059461Y-84149500D01*
X106992422Y-84129815D01*
X106946667Y-84077011D01*
X106936723Y-84007853D01*
X106965748Y-83944297D01*
X107019185Y-83908223D01*
X107022103Y-83907221D01*
X107062373Y-83900500D01*
X110448422Y-83900500D01*
X110642826Y-83869709D01*
X110697279Y-83852016D01*
X110830026Y-83808884D01*
X110875458Y-83785735D01*
X110918088Y-83764014D01*
X110974383Y-83750499D01*
X111630852Y-83750499D01*
X111697891Y-83770184D01*
G37*
%TD.AperFunction*%
%TA.AperFunction,NonConductor*%
G36*
X53824888Y-77733758D02*
G01*
X53855717Y-77796458D01*
X53847753Y-77865873D01*
X53821214Y-77905285D01*
X46663319Y-85063181D01*
X46601996Y-85096666D01*
X46575638Y-85099500D01*
X42740638Y-85099500D01*
X42673599Y-85079815D01*
X42635099Y-85040597D01*
X42632242Y-85035965D01*
X42567712Y-84931344D01*
X42443656Y-84807288D01*
X42294334Y-84715186D01*
X42127797Y-84660001D01*
X42127795Y-84660000D01*
X42025010Y-84649500D01*
X40474998Y-84649500D01*
X40474981Y-84649501D01*
X40372203Y-84660000D01*
X40372200Y-84660001D01*
X40205668Y-84715185D01*
X40205663Y-84715187D01*
X40056342Y-84807289D01*
X39932289Y-84931342D01*
X39840187Y-85080663D01*
X39840185Y-85080668D01*
X39787206Y-85240549D01*
X39747433Y-85297994D01*
X39682917Y-85324817D01*
X39614142Y-85312502D01*
X39562942Y-85264959D01*
X39545500Y-85201545D01*
X39545500Y-81517000D01*
X39565185Y-81449961D01*
X39617989Y-81404206D01*
X39669500Y-81393000D01*
X42693422Y-81393000D01*
X42887826Y-81362209D01*
X43075026Y-81301384D01*
X43250405Y-81212024D01*
X43409646Y-81096328D01*
X46719154Y-77786818D01*
X46780477Y-77753334D01*
X46806835Y-77750500D01*
X53439146Y-77750500D01*
X53633550Y-77719709D01*
X53695214Y-77699673D01*
X53765055Y-77697678D01*
X53824888Y-77733758D01*
G37*
%TD.AperFunction*%
%TA.AperFunction,NonConductor*%
G36*
X104928722Y-82197290D02*
G01*
X104984655Y-82239162D01*
X105009072Y-82304626D01*
X105008964Y-82323712D01*
X104994357Y-82499994D01*
X104994357Y-82500005D01*
X105014890Y-82747812D01*
X105014892Y-82747824D01*
X105075936Y-82988881D01*
X105175826Y-83216606D01*
X105311833Y-83424782D01*
X105328698Y-83443102D01*
X105480256Y-83607738D01*
X105676491Y-83760474D01*
X105759065Y-83805161D01*
X105878339Y-83869709D01*
X105895190Y-83878828D01*
X105933984Y-83892146D01*
X105980802Y-83908219D01*
X106037817Y-83948604D01*
X106063948Y-84013404D01*
X106050897Y-84082044D01*
X106002808Y-84132731D01*
X105940539Y-84149500D01*
X105611306Y-84149500D01*
X105437340Y-84184104D01*
X105437332Y-84184106D01*
X105273459Y-84251983D01*
X105273447Y-84251990D01*
X105130019Y-84347826D01*
X105130015Y-84347830D01*
X105125964Y-84350537D01*
X105125960Y-84350540D01*
X104163319Y-85313181D01*
X104101996Y-85346666D01*
X104075638Y-85349500D01*
X101973362Y-85349500D01*
X101906323Y-85329815D01*
X101860568Y-85277011D01*
X101850624Y-85207853D01*
X101879649Y-85144297D01*
X101885681Y-85137819D01*
X104034618Y-82988881D01*
X104797707Y-82225790D01*
X104859030Y-82192306D01*
X104928722Y-82197290D01*
G37*
%TD.AperFunction*%
%TA.AperFunction,NonConductor*%
G36*
X71256281Y-76970185D02*
G01*
X71276923Y-76986819D01*
X71378597Y-77088493D01*
X71378603Y-77088498D01*
X71564158Y-77218425D01*
X71607783Y-77273002D01*
X71614977Y-77342500D01*
X71583454Y-77404855D01*
X71564158Y-77421575D01*
X71378600Y-77551503D01*
X71345895Y-77584209D01*
X71276921Y-77653182D01*
X71215601Y-77686666D01*
X71189242Y-77689500D01*
X59821306Y-77689500D01*
X59647341Y-77724103D01*
X59647332Y-77724106D01*
X59483457Y-77791984D01*
X59483456Y-77791985D01*
X59347362Y-77882921D01*
X59347361Y-77882922D01*
X59335961Y-77890538D01*
X59335960Y-77890539D01*
X49663319Y-87563181D01*
X49601996Y-87596666D01*
X49575638Y-87599500D01*
X42435758Y-87599500D01*
X42368719Y-87579815D01*
X42348077Y-87563181D01*
X42266294Y-87481398D01*
X42232809Y-87420075D01*
X42237793Y-87350383D01*
X42279665Y-87294450D01*
X42288879Y-87288178D01*
X42294331Y-87284814D01*
X42294334Y-87284814D01*
X42443656Y-87192712D01*
X42567712Y-87068656D01*
X42635099Y-86959402D01*
X42687047Y-86912679D01*
X42740638Y-86900500D01*
X47088693Y-86900500D01*
X47088694Y-86900499D01*
X47262666Y-86865895D01*
X47363721Y-86824036D01*
X47426547Y-86798013D01*
X47484259Y-86759451D01*
X47527767Y-86730380D01*
X47543190Y-86720074D01*
X47574036Y-86699464D01*
X57286681Y-76986819D01*
X57348004Y-76953334D01*
X57374362Y-76950500D01*
X71189242Y-76950500D01*
X71256281Y-76970185D01*
G37*
%TD.AperFunction*%
%TA.AperFunction,NonConductor*%
G36*
X113377890Y-87170185D02*
G01*
X113423645Y-87222989D01*
X113433589Y-87292147D01*
X113404564Y-87355703D01*
X113398532Y-87362181D01*
X113197532Y-87563181D01*
X113136209Y-87596666D01*
X113109851Y-87599500D01*
X109358359Y-87599500D01*
X109184397Y-87634103D01*
X109184389Y-87634105D01*
X109109145Y-87665273D01*
X109109144Y-87665273D01*
X109020513Y-87701984D01*
X109020511Y-87701985D01*
X108945679Y-87751987D01*
X108873017Y-87800537D01*
X108873014Y-87800540D01*
X108812181Y-87861374D01*
X108750858Y-87894859D01*
X108681166Y-87889875D01*
X108625233Y-87848003D01*
X108600816Y-87782539D01*
X108600500Y-87773693D01*
X108600500Y-87728777D01*
X108620185Y-87661738D01*
X108636819Y-87641096D01*
X109091096Y-87186819D01*
X109152419Y-87153334D01*
X109178777Y-87150500D01*
X113310851Y-87150500D01*
X113377890Y-87170185D01*
G37*
%TD.AperFunction*%
%TA.AperFunction,NonConductor*%
G36*
X39750703Y-86704742D02*
G01*
X39787205Y-86759450D01*
X39829747Y-86887830D01*
X39840185Y-86919331D01*
X39840187Y-86919336D01*
X39858770Y-86949464D01*
X39919555Y-87048013D01*
X39932289Y-87068657D01*
X40056344Y-87192712D01*
X40211120Y-87288178D01*
X40257845Y-87340126D01*
X40269068Y-87409088D01*
X40241224Y-87473171D01*
X40233706Y-87481398D01*
X40094889Y-87620215D01*
X39969951Y-87792179D01*
X39873444Y-87981585D01*
X39873443Y-87981587D01*
X39873443Y-87981588D01*
X39851216Y-88049994D01*
X39807753Y-88183760D01*
X39791973Y-88283393D01*
X39762044Y-88346528D01*
X39702732Y-88383459D01*
X39632870Y-88382461D01*
X39574637Y-88343851D01*
X39546523Y-88279888D01*
X39545500Y-88263995D01*
X39545500Y-86798455D01*
X39565185Y-86731416D01*
X39617989Y-86685661D01*
X39687147Y-86675717D01*
X39750703Y-86704742D01*
G37*
%TD.AperFunction*%
%TA.AperFunction,NonConductor*%
G36*
X92963677Y-84590185D02*
G01*
X93009432Y-84642989D01*
X93019376Y-84712147D01*
X92990351Y-84775703D01*
X92984319Y-84782181D01*
X89272189Y-88494309D01*
X89210866Y-88527794D01*
X89141174Y-88522810D01*
X89085241Y-88480938D01*
X89064733Y-88438720D01*
X89023906Y-88286346D01*
X89023904Y-88286342D01*
X89023903Y-88286337D01*
X88924035Y-88072171D01*
X88908515Y-88050005D01*
X88788494Y-87878597D01*
X88621402Y-87711506D01*
X88621396Y-87711501D01*
X88435842Y-87581575D01*
X88392217Y-87526998D01*
X88385023Y-87457500D01*
X88416546Y-87395145D01*
X88435842Y-87378425D01*
X88475890Y-87350383D01*
X88621401Y-87248495D01*
X88788495Y-87081401D01*
X88924035Y-86887830D01*
X89023903Y-86673663D01*
X89085063Y-86445408D01*
X89105659Y-86210000D01*
X89085063Y-85974592D01*
X89023903Y-85746337D01*
X88924035Y-85532171D01*
X88788495Y-85338599D01*
X88788494Y-85338597D01*
X88621402Y-85171506D01*
X88621396Y-85171501D01*
X88435842Y-85041575D01*
X88392217Y-84986998D01*
X88385023Y-84917500D01*
X88416546Y-84855145D01*
X88435842Y-84838425D01*
X88500964Y-84792826D01*
X88621401Y-84708495D01*
X88723077Y-84606819D01*
X88784400Y-84573334D01*
X88810758Y-84570500D01*
X92896638Y-84570500D01*
X92963677Y-84590185D01*
G37*
%TD.AperFunction*%
%TA.AperFunction,NonConductor*%
G36*
X49290735Y-89420185D02*
G01*
X49336490Y-89472989D01*
X49346434Y-89542147D01*
X49317409Y-89605703D01*
X49311377Y-89612181D01*
X49210377Y-89713181D01*
X49149054Y-89746666D01*
X49122696Y-89749500D01*
X42334029Y-89749500D01*
X42266990Y-89729815D01*
X42221235Y-89677011D01*
X42211291Y-89607853D01*
X42240316Y-89544297D01*
X42253493Y-89531214D01*
X42254789Y-89530106D01*
X42254788Y-89530106D01*
X42254792Y-89530104D01*
X42348077Y-89436819D01*
X42409400Y-89403334D01*
X42435758Y-89400500D01*
X49223696Y-89400500D01*
X49290735Y-89420185D01*
G37*
%TD.AperFunction*%
%TA.AperFunction,NonConductor*%
G36*
X39750703Y-88642291D02*
G01*
X39788477Y-88701069D01*
X39791972Y-88716605D01*
X39807754Y-88816243D01*
X39862719Y-88985408D01*
X39873444Y-89018414D01*
X39969951Y-89207820D01*
X40094890Y-89379786D01*
X40245210Y-89530106D01*
X40246507Y-89531214D01*
X40246862Y-89531758D01*
X40248653Y-89533549D01*
X40248276Y-89533925D01*
X40284698Y-89589723D01*
X40285193Y-89659591D01*
X40247836Y-89718635D01*
X40184488Y-89748110D01*
X40165971Y-89749500D01*
X39669500Y-89749500D01*
X39602461Y-89729815D01*
X39556706Y-89677011D01*
X39545500Y-89625500D01*
X39545500Y-88736004D01*
X39565185Y-88668965D01*
X39617989Y-88623210D01*
X39687147Y-88613266D01*
X39750703Y-88642291D01*
G37*
%TD.AperFunction*%
%TA.AperFunction,NonConductor*%
G36*
X97633744Y-87170185D02*
G01*
X97679499Y-87222989D01*
X97689443Y-87292147D01*
X97677420Y-87328491D01*
X97677887Y-87328696D01*
X97575936Y-87561118D01*
X97514892Y-87802175D01*
X97514890Y-87802187D01*
X97494357Y-88049994D01*
X97494357Y-88050005D01*
X97514890Y-88297812D01*
X97514892Y-88297824D01*
X97575936Y-88538881D01*
X97675826Y-88766606D01*
X97811833Y-88974782D01*
X97821615Y-88985408D01*
X97980256Y-89157738D01*
X98044602Y-89207820D01*
X98051662Y-89213315D01*
X98092475Y-89270026D01*
X98099500Y-89311169D01*
X98099500Y-89775638D01*
X98079815Y-89842677D01*
X98063181Y-89863319D01*
X97192677Y-90733822D01*
X97131354Y-90767307D01*
X97061662Y-90762323D01*
X97005729Y-90720451D01*
X96981312Y-90654987D01*
X96996164Y-90586714D01*
X97001188Y-90578319D01*
X97011310Y-90562826D01*
X97074173Y-90466607D01*
X97174063Y-90238881D01*
X97235108Y-89997821D01*
X97241687Y-89918425D01*
X97255643Y-89750005D01*
X97255643Y-89749994D01*
X97235109Y-89502187D01*
X97235107Y-89502175D01*
X97174063Y-89261118D01*
X97074173Y-89033393D01*
X96938166Y-88825217D01*
X96885470Y-88767974D01*
X96769744Y-88642262D01*
X96573509Y-88489526D01*
X96573507Y-88489525D01*
X96573506Y-88489524D01*
X96354811Y-88371172D01*
X96354802Y-88371169D01*
X96119616Y-88290429D01*
X95874335Y-88249500D01*
X95625665Y-88249500D01*
X95625662Y-88249500D01*
X95585350Y-88256226D01*
X95515985Y-88247843D01*
X95462164Y-88203289D01*
X95440974Y-88136710D01*
X95459144Y-88069244D01*
X95477257Y-88046241D01*
X96336681Y-87186819D01*
X96398004Y-87153334D01*
X96424362Y-87150500D01*
X97566705Y-87150500D01*
X97633744Y-87170185D01*
G37*
%TD.AperFunction*%
%TA.AperFunction,NonConductor*%
G36*
X94973677Y-85790185D02*
G01*
X95019432Y-85842989D01*
X95029376Y-85912147D01*
X95000351Y-85975703D01*
X94994319Y-85982181D01*
X89278318Y-91698180D01*
X89216995Y-91731665D01*
X89147303Y-91726681D01*
X89091370Y-91684809D01*
X89066953Y-91619345D01*
X89070861Y-91578408D01*
X89085063Y-91525408D01*
X89105659Y-91290000D01*
X89104088Y-91272052D01*
X89117853Y-91203555D01*
X89139932Y-91173566D01*
X94506681Y-85806819D01*
X94568004Y-85773334D01*
X94594362Y-85770500D01*
X94906638Y-85770500D01*
X94973677Y-85790185D01*
G37*
%TD.AperFunction*%
%TA.AperFunction,NonConductor*%
G36*
X110493637Y-89420185D02*
G01*
X110539392Y-89472989D01*
X110549336Y-89542147D01*
X110520311Y-89605703D01*
X110514279Y-89612181D01*
X108096174Y-92030285D01*
X108096174Y-92030286D01*
X108096172Y-92030288D01*
X108067666Y-92069523D01*
X107980476Y-92189528D01*
X107891115Y-92364907D01*
X107891114Y-92364910D01*
X107858908Y-92464034D01*
X107858908Y-92464035D01*
X107839864Y-92522645D01*
X107800426Y-92580320D01*
X107736067Y-92607518D01*
X107667221Y-92595603D01*
X107634252Y-92572007D01*
X107621402Y-92559157D01*
X107621395Y-92559152D01*
X107427834Y-92423618D01*
X107427830Y-92423616D01*
X107351698Y-92388115D01*
X107213663Y-92323748D01*
X107213659Y-92323747D01*
X107213655Y-92323745D01*
X107171222Y-92312376D01*
X107111562Y-92276012D01*
X107081032Y-92213165D01*
X107089326Y-92143789D01*
X107115631Y-92104923D01*
X109783737Y-89436819D01*
X109845060Y-89403334D01*
X109871418Y-89400500D01*
X110426598Y-89400500D01*
X110493637Y-89420185D01*
G37*
%TD.AperFunction*%
%TA.AperFunction,NonConductor*%
G36*
X122418834Y-83678399D02*
G01*
X122474767Y-83720271D01*
X122499184Y-83785735D01*
X122499500Y-83794581D01*
X122499500Y-83930664D01*
X122479815Y-83997703D01*
X122463181Y-84018345D01*
X116296174Y-90185351D01*
X116296174Y-90185352D01*
X116296172Y-90185354D01*
X116257282Y-90238881D01*
X116180476Y-90344594D01*
X116091115Y-90519973D01*
X116091114Y-90519976D01*
X116056489Y-90626545D01*
X116030290Y-90707176D01*
X116030290Y-90707177D01*
X115999500Y-90901577D01*
X115999500Y-93028151D01*
X115979815Y-93095190D01*
X115927011Y-93140945D01*
X115875500Y-93152151D01*
X112319336Y-93152151D01*
X112252297Y-93132466D01*
X112231655Y-93115832D01*
X112158985Y-93043162D01*
X112134283Y-93007884D01*
X112133970Y-93007214D01*
X112130568Y-92999917D01*
X112130566Y-92999915D01*
X112130566Y-92999913D01*
X112000045Y-92813509D01*
X111839141Y-92652605D01*
X111652734Y-92522083D01*
X111652732Y-92522082D01*
X111464458Y-92434288D01*
X111412019Y-92388115D01*
X111392867Y-92320922D01*
X111413083Y-92254041D01*
X111429182Y-92234225D01*
X112126589Y-91536819D01*
X112187912Y-91503334D01*
X112214270Y-91500500D01*
X114074667Y-91500500D01*
X114269071Y-91469709D01*
X114456271Y-91408884D01*
X114631650Y-91319524D01*
X114790891Y-91203828D01*
X122287819Y-83706900D01*
X122349142Y-83673415D01*
X122418834Y-83678399D01*
G37*
%TD.AperFunction*%
%TA.AperFunction,NonConductor*%
G36*
X94178722Y-89447291D02*
G01*
X94234655Y-89489163D01*
X94259072Y-89554627D01*
X94258964Y-89573713D01*
X94244357Y-89749994D01*
X94244357Y-89750005D01*
X94264890Y-89997812D01*
X94264892Y-89997824D01*
X94325936Y-90238881D01*
X94425826Y-90466606D01*
X94564641Y-90679079D01*
X94563110Y-90680079D01*
X94585820Y-90737667D01*
X94572242Y-90806205D01*
X94550003Y-90836496D01*
X89272190Y-96114309D01*
X89210867Y-96147794D01*
X89141175Y-96142810D01*
X89085242Y-96100938D01*
X89064734Y-96058721D01*
X89023905Y-95906344D01*
X89023904Y-95906343D01*
X89023903Y-95906337D01*
X88924035Y-95692171D01*
X88921314Y-95688284D01*
X88788494Y-95498597D01*
X88621402Y-95331506D01*
X88621396Y-95331501D01*
X88435842Y-95201575D01*
X88392217Y-95146998D01*
X88385023Y-95077500D01*
X88416546Y-95015145D01*
X88435842Y-94998425D01*
X88485554Y-94963616D01*
X88621401Y-94868495D01*
X88788495Y-94701401D01*
X88820681Y-94655433D01*
X88853357Y-94623462D01*
X88948781Y-94559702D01*
X88994036Y-94529464D01*
X94047707Y-89475791D01*
X94109030Y-89442307D01*
X94178722Y-89447291D01*
G37*
%TD.AperFunction*%
%TA.AperFunction,NonConductor*%
G36*
X66288263Y-83270185D02*
G01*
X66308905Y-83286819D01*
X66863181Y-83841095D01*
X66896666Y-83902418D01*
X66899500Y-83928776D01*
X66899500Y-96740506D01*
X66879815Y-96807545D01*
X66827011Y-96853300D01*
X66757853Y-96863244D01*
X66713294Y-96845623D01*
X66712420Y-96847138D01*
X66707732Y-96844431D01*
X66501497Y-96748261D01*
X66501488Y-96748258D01*
X66281697Y-96689366D01*
X66281693Y-96689365D01*
X66281692Y-96689365D01*
X66281691Y-96689364D01*
X66281686Y-96689364D01*
X66055002Y-96669532D01*
X66054998Y-96669532D01*
X65828313Y-96689364D01*
X65828302Y-96689366D01*
X65608511Y-96748258D01*
X65608502Y-96748261D01*
X65402267Y-96844431D01*
X65402265Y-96844432D01*
X65215858Y-96974954D01*
X65054954Y-97135858D01*
X64924432Y-97322265D01*
X64924431Y-97322267D01*
X64828261Y-97528502D01*
X64828258Y-97528511D01*
X64769366Y-97748302D01*
X64769364Y-97748312D01*
X64750400Y-97965072D01*
X64724947Y-98030140D01*
X64714553Y-98041945D01*
X63580614Y-99175885D01*
X63519291Y-99209370D01*
X63449599Y-99204386D01*
X63393666Y-99162514D01*
X63369249Y-99097050D01*
X63382449Y-99031908D01*
X63408881Y-98980032D01*
X63408881Y-98980031D01*
X63408884Y-98980026D01*
X63469709Y-98792826D01*
X63488435Y-98674596D01*
X63500500Y-98598422D01*
X63500500Y-88151577D01*
X63469709Y-87957173D01*
X63444178Y-87878599D01*
X63444034Y-87878155D01*
X63419351Y-87802187D01*
X63408886Y-87769978D01*
X63379093Y-87711506D01*
X63319524Y-87594595D01*
X63203828Y-87435354D01*
X60363493Y-84595019D01*
X60330968Y-84537778D01*
X60296479Y-84401584D01*
X60290359Y-84377415D01*
X60190469Y-84149689D01*
X60151969Y-84090760D01*
X60054462Y-83941513D01*
X59996755Y-83878827D01*
X59886040Y-83758558D01*
X59689805Y-83605822D01*
X59689803Y-83605821D01*
X59689802Y-83605820D01*
X59551591Y-83531024D01*
X59471106Y-83487468D01*
X59471104Y-83487467D01*
X59466595Y-83485027D01*
X59467298Y-83483727D01*
X59418962Y-83443102D01*
X59398271Y-83376366D01*
X59416944Y-83309038D01*
X59469054Y-83262494D01*
X59522257Y-83250500D01*
X66221224Y-83250500D01*
X66288263Y-83270185D01*
G37*
%TD.AperFunction*%
%TA.AperFunction,NonConductor*%
G36*
X107548092Y-85970185D02*
G01*
X107593847Y-86022989D01*
X107603791Y-86092147D01*
X107574766Y-86155703D01*
X107568734Y-86162181D01*
X107000540Y-86730373D01*
X107000537Y-86730376D01*
X106985557Y-86752797D01*
X106901990Y-86877861D01*
X106901983Y-86877874D01*
X106872331Y-86949463D01*
X106872331Y-86949464D01*
X106834105Y-87041748D01*
X106832859Y-87048013D01*
X106808187Y-87172051D01*
X106808187Y-87172052D01*
X106799500Y-87215722D01*
X106799500Y-88125637D01*
X106779815Y-88192676D01*
X106763181Y-88213318D01*
X89111017Y-105865481D01*
X89049694Y-105898966D01*
X88980002Y-105893982D01*
X88924069Y-105852110D01*
X88921761Y-105848923D01*
X88788494Y-105658597D01*
X88621402Y-105491506D01*
X88621396Y-105491501D01*
X88435842Y-105361575D01*
X88392217Y-105306998D01*
X88385023Y-105237500D01*
X88416546Y-105175145D01*
X88435842Y-105158425D01*
X88499500Y-105113851D01*
X88621401Y-105028495D01*
X88788495Y-104861401D01*
X88924035Y-104667830D01*
X89023903Y-104453663D01*
X89085063Y-104225408D01*
X89105659Y-103990000D01*
X89085063Y-103754592D01*
X89023903Y-103526337D01*
X88924035Y-103312171D01*
X88788495Y-103118599D01*
X88788494Y-103118597D01*
X88621402Y-102951506D01*
X88621396Y-102951501D01*
X88435842Y-102821575D01*
X88392217Y-102766998D01*
X88385023Y-102697500D01*
X88416546Y-102635145D01*
X88435842Y-102618425D01*
X88612145Y-102494976D01*
X88621401Y-102488495D01*
X88788495Y-102321401D01*
X88924035Y-102127830D01*
X89023903Y-101913663D01*
X89085063Y-101685408D01*
X89105659Y-101450000D01*
X89104088Y-101432052D01*
X89117853Y-101363555D01*
X89139932Y-101333566D01*
X99699464Y-90774035D01*
X99765781Y-90674785D01*
X99798013Y-90626547D01*
X99832691Y-90542826D01*
X99865895Y-90462666D01*
X99900500Y-90288691D01*
X99900500Y-90111308D01*
X99900500Y-89311169D01*
X99920185Y-89244130D01*
X99948338Y-89213315D01*
X99955398Y-89207820D01*
X100019744Y-89157738D01*
X100188164Y-88974785D01*
X100324173Y-88766607D01*
X100424063Y-88538881D01*
X100485108Y-88297821D01*
X100489112Y-88249500D01*
X100505643Y-88050005D01*
X100505643Y-88049994D01*
X100485109Y-87802187D01*
X100485107Y-87802175D01*
X100424063Y-87561118D01*
X100322113Y-87328696D01*
X100323118Y-87328254D01*
X100309644Y-87265198D01*
X100334302Y-87199824D01*
X100390390Y-87158159D01*
X100433295Y-87150500D01*
X104588693Y-87150500D01*
X104588694Y-87150499D01*
X104762666Y-87115895D01*
X104845940Y-87081401D01*
X104926547Y-87048013D01*
X105035070Y-86975500D01*
X105074036Y-86949464D01*
X106036680Y-85986818D01*
X106098003Y-85953334D01*
X106124361Y-85950500D01*
X107481053Y-85950500D01*
X107548092Y-85970185D01*
G37*
%TD.AperFunction*%
%TA.AperFunction,NonConductor*%
G36*
X71256281Y-79510185D02*
G01*
X71276923Y-79526819D01*
X71378597Y-79628493D01*
X71378603Y-79628498D01*
X71564158Y-79758425D01*
X71607783Y-79813002D01*
X71614977Y-79882500D01*
X71583454Y-79944855D01*
X71564158Y-79961575D01*
X71378597Y-80091505D01*
X71211505Y-80258597D01*
X71075965Y-80452169D01*
X71075964Y-80452171D01*
X70976098Y-80666335D01*
X70976094Y-80666344D01*
X70914938Y-80894586D01*
X70914936Y-80894596D01*
X70894341Y-81129999D01*
X70894341Y-81130000D01*
X70914936Y-81365403D01*
X70914938Y-81365413D01*
X70976094Y-81593655D01*
X70976096Y-81593659D01*
X70976097Y-81593663D01*
X71054183Y-81761118D01*
X71075965Y-81807830D01*
X71075967Y-81807834D01*
X71211501Y-82001395D01*
X71211506Y-82001402D01*
X71378597Y-82168493D01*
X71378603Y-82168498D01*
X71564158Y-82298425D01*
X71607783Y-82353002D01*
X71614977Y-82422500D01*
X71583454Y-82484855D01*
X71564158Y-82501575D01*
X71378597Y-82631505D01*
X71211505Y-82798597D01*
X71075965Y-82992169D01*
X71075964Y-82992171D01*
X70976098Y-83206335D01*
X70976094Y-83206344D01*
X70914938Y-83434586D01*
X70914936Y-83434596D01*
X70894341Y-83669999D01*
X70894341Y-83670000D01*
X70914936Y-83905403D01*
X70914938Y-83905413D01*
X70976094Y-84133655D01*
X70976096Y-84133659D01*
X70976097Y-84133663D01*
X71075964Y-84347827D01*
X71075967Y-84347834D01*
X71211501Y-84541395D01*
X71211506Y-84541402D01*
X71378597Y-84708493D01*
X71378603Y-84708498D01*
X71564158Y-84838425D01*
X71607783Y-84893002D01*
X71614977Y-84962500D01*
X71583454Y-85024855D01*
X71564158Y-85041575D01*
X71378597Y-85171505D01*
X71211505Y-85338597D01*
X71075965Y-85532169D01*
X71075964Y-85532171D01*
X70976098Y-85746335D01*
X70976094Y-85746344D01*
X70914938Y-85974586D01*
X70914936Y-85974596D01*
X70894341Y-86209999D01*
X70894341Y-86210000D01*
X70914936Y-86445403D01*
X70914938Y-86445413D01*
X70976094Y-86673655D01*
X70976096Y-86673659D01*
X70976097Y-86673663D01*
X71046217Y-86824036D01*
X71075965Y-86887830D01*
X71075967Y-86887834D01*
X71211501Y-87081395D01*
X71211505Y-87081401D01*
X71378597Y-87248493D01*
X71378603Y-87248498D01*
X71564158Y-87378425D01*
X71607783Y-87433002D01*
X71614977Y-87502500D01*
X71583454Y-87564855D01*
X71564158Y-87581575D01*
X71378597Y-87711505D01*
X71211505Y-87878597D01*
X71075965Y-88072169D01*
X71075964Y-88072171D01*
X70976098Y-88286335D01*
X70976094Y-88286344D01*
X70914938Y-88514586D01*
X70914936Y-88514596D01*
X70894341Y-88749999D01*
X70894341Y-88750000D01*
X70914936Y-88985403D01*
X70914938Y-88985413D01*
X70976094Y-89213655D01*
X70976096Y-89213659D01*
X70976097Y-89213663D01*
X71063221Y-89400500D01*
X71075965Y-89427830D01*
X71075967Y-89427834D01*
X71211501Y-89621395D01*
X71211506Y-89621402D01*
X71378597Y-89788493D01*
X71378603Y-89788498D01*
X71564158Y-89918425D01*
X71607783Y-89973002D01*
X71614977Y-90042500D01*
X71583454Y-90104855D01*
X71564158Y-90121575D01*
X71378597Y-90251505D01*
X71211505Y-90418597D01*
X71075965Y-90612169D01*
X71075964Y-90612171D01*
X70976098Y-90826335D01*
X70976094Y-90826344D01*
X70914938Y-91054586D01*
X70914936Y-91054596D01*
X70894341Y-91289999D01*
X70894341Y-91290000D01*
X70914936Y-91525403D01*
X70914938Y-91525413D01*
X70976094Y-91753655D01*
X70976096Y-91753659D01*
X70976097Y-91753663D01*
X71069434Y-91953825D01*
X71075965Y-91967830D01*
X71075967Y-91967834D01*
X71211501Y-92161395D01*
X71211505Y-92161401D01*
X71378597Y-92328493D01*
X71378603Y-92328498D01*
X71564158Y-92458425D01*
X71607783Y-92513002D01*
X71614977Y-92582500D01*
X71583454Y-92644855D01*
X71564158Y-92661575D01*
X71378597Y-92791505D01*
X71211505Y-92958597D01*
X71075965Y-93152169D01*
X71075964Y-93152171D01*
X70976098Y-93366335D01*
X70976094Y-93366344D01*
X70914938Y-93594586D01*
X70914936Y-93594596D01*
X70894341Y-93829999D01*
X70894341Y-93830000D01*
X70914936Y-94065403D01*
X70914938Y-94065413D01*
X70976094Y-94293655D01*
X70976096Y-94293659D01*
X70976097Y-94293663D01*
X71057883Y-94469053D01*
X71075965Y-94507830D01*
X71075967Y-94507834D01*
X71211501Y-94701395D01*
X71211506Y-94701402D01*
X71378597Y-94868493D01*
X71378603Y-94868498D01*
X71564158Y-94998425D01*
X71607783Y-95053002D01*
X71614977Y-95122500D01*
X71583454Y-95184855D01*
X71564158Y-95201575D01*
X71378597Y-95331505D01*
X71211505Y-95498597D01*
X71075965Y-95692169D01*
X71075964Y-95692171D01*
X70976098Y-95906335D01*
X70976094Y-95906344D01*
X70914938Y-96134586D01*
X70914936Y-96134596D01*
X70894341Y-96369999D01*
X70894341Y-96370000D01*
X70914936Y-96605403D01*
X70914938Y-96605413D01*
X70976094Y-96833655D01*
X70976096Y-96833659D01*
X70976097Y-96833663D01*
X71057883Y-97009053D01*
X71075965Y-97047830D01*
X71075967Y-97047834D01*
X71211501Y-97241395D01*
X71211506Y-97241402D01*
X71378597Y-97408493D01*
X71378603Y-97408498D01*
X71564158Y-97538425D01*
X71607783Y-97593002D01*
X71614977Y-97662500D01*
X71583454Y-97724855D01*
X71564158Y-97741575D01*
X71378597Y-97871505D01*
X71211505Y-98038597D01*
X71075965Y-98232169D01*
X71075964Y-98232171D01*
X70976098Y-98446335D01*
X70976094Y-98446344D01*
X70914938Y-98674586D01*
X70914936Y-98674596D01*
X70894341Y-98909999D01*
X70894341Y-98910000D01*
X70914936Y-99145403D01*
X70914938Y-99145413D01*
X70976094Y-99373655D01*
X70976096Y-99373659D01*
X70976097Y-99373663D01*
X71031181Y-99491790D01*
X71075965Y-99587830D01*
X71075967Y-99587834D01*
X71211501Y-99781395D01*
X71211506Y-99781402D01*
X71378597Y-99948493D01*
X71378603Y-99948498D01*
X71564158Y-100078425D01*
X71607783Y-100133002D01*
X71614977Y-100202500D01*
X71583454Y-100264855D01*
X71564158Y-100281575D01*
X71378597Y-100411505D01*
X71211505Y-100578597D01*
X71075965Y-100772169D01*
X71075964Y-100772171D01*
X70976098Y-100986335D01*
X70976094Y-100986344D01*
X70914938Y-101214586D01*
X70914936Y-101214596D01*
X70894341Y-101449999D01*
X70894341Y-101450000D01*
X70914936Y-101685403D01*
X70914938Y-101685413D01*
X70976094Y-101913655D01*
X70976096Y-101913659D01*
X70976097Y-101913663D01*
X71004677Y-101974953D01*
X71075965Y-102127830D01*
X71075967Y-102127834D01*
X71211501Y-102321395D01*
X71211506Y-102321402D01*
X71378597Y-102488493D01*
X71378603Y-102488498D01*
X71564158Y-102618425D01*
X71607783Y-102673002D01*
X71614977Y-102742500D01*
X71583454Y-102804855D01*
X71564158Y-102821575D01*
X71378597Y-102951505D01*
X71211505Y-103118597D01*
X71075965Y-103312169D01*
X71075964Y-103312171D01*
X70976098Y-103526335D01*
X70976094Y-103526344D01*
X70914938Y-103754586D01*
X70914936Y-103754596D01*
X70894341Y-103989999D01*
X70894341Y-103990000D01*
X70914936Y-104225403D01*
X70914938Y-104225413D01*
X70976094Y-104453655D01*
X70976096Y-104453659D01*
X70976097Y-104453663D01*
X71017675Y-104542826D01*
X71075965Y-104667830D01*
X71075967Y-104667834D01*
X71211501Y-104861395D01*
X71211506Y-104861402D01*
X71378597Y-105028493D01*
X71378603Y-105028498D01*
X71564158Y-105158425D01*
X71607783Y-105213002D01*
X71614977Y-105282500D01*
X71583454Y-105344855D01*
X71564158Y-105361575D01*
X71378597Y-105491505D01*
X71211505Y-105658597D01*
X71075965Y-105852169D01*
X71075964Y-105852171D01*
X70976098Y-106066335D01*
X70976095Y-106066342D01*
X70968015Y-106096498D01*
X70931649Y-106156159D01*
X70868802Y-106186687D01*
X70799427Y-106178392D01*
X70760559Y-106152085D01*
X67791155Y-103182681D01*
X67757670Y-103121358D01*
X67762654Y-103051666D01*
X67791155Y-103007319D01*
X68369782Y-102428692D01*
X69103828Y-101694646D01*
X69219523Y-101535406D01*
X69259704Y-101456547D01*
X69308884Y-101360025D01*
X69369709Y-101172826D01*
X69399246Y-100986337D01*
X69400500Y-100978422D01*
X69400500Y-83261017D01*
X69369709Y-83066613D01*
X69308882Y-82879410D01*
X69241829Y-82747812D01*
X69219524Y-82704035D01*
X69103828Y-82544794D01*
X68964646Y-82405612D01*
X67605206Y-81046172D01*
X67445965Y-80930476D01*
X67407127Y-80910687D01*
X67270590Y-80841117D01*
X67083386Y-80780290D01*
X66888982Y-80749500D01*
X66888977Y-80749500D01*
X59323361Y-80749500D01*
X59256322Y-80729815D01*
X59210567Y-80677011D01*
X59200623Y-80607853D01*
X59229648Y-80544297D01*
X59235680Y-80537819D01*
X60246680Y-79526819D01*
X60308003Y-79493334D01*
X60334361Y-79490500D01*
X71189242Y-79490500D01*
X71256281Y-79510185D01*
G37*
%TD.AperFunction*%
%TA.AperFunction,NonConductor*%
G36*
X67555702Y-106484622D02*
G01*
X67562180Y-106490654D01*
X68749345Y-107677819D01*
X68782830Y-107739142D01*
X68777846Y-107808834D01*
X68735974Y-107864767D01*
X68670510Y-107889184D01*
X68661664Y-107889500D01*
X67393918Y-107889500D01*
X67326879Y-107869815D01*
X67281124Y-107817011D01*
X67271180Y-107747853D01*
X67290694Y-107700741D01*
X67289546Y-107700114D01*
X67293793Y-107692334D01*
X67293796Y-107692331D01*
X67344091Y-107557483D01*
X67350500Y-107497873D01*
X67350499Y-106578334D01*
X67370183Y-106511296D01*
X67422987Y-106465541D01*
X67492146Y-106455597D01*
X67555702Y-106484622D01*
G37*
%TD.AperFunction*%
%TA.AperFunction,NonConductor*%
G36*
X66838338Y-99102594D02*
G01*
X66886157Y-99153537D01*
X66899500Y-99209493D01*
X66899500Y-100310663D01*
X66879815Y-100377702D01*
X66863181Y-100398344D01*
X65445509Y-101816015D01*
X65410242Y-101840712D01*
X65402264Y-101844432D01*
X65215858Y-101974954D01*
X65054954Y-102135858D01*
X64924432Y-102322265D01*
X64924431Y-102322267D01*
X64828261Y-102528502D01*
X64828258Y-102528511D01*
X64769366Y-102748302D01*
X64769364Y-102748313D01*
X64749532Y-102974998D01*
X64749532Y-102975001D01*
X64769364Y-103201686D01*
X64769366Y-103201697D01*
X64828258Y-103421488D01*
X64828261Y-103421497D01*
X64924433Y-103627736D01*
X64946132Y-103658726D01*
X64962486Y-103691527D01*
X64987446Y-103768344D01*
X64996118Y-103795031D01*
X65085476Y-103970405D01*
X65201172Y-104129646D01*
X65201174Y-104129648D01*
X66109345Y-105037819D01*
X66142830Y-105099142D01*
X66137846Y-105168834D01*
X66095974Y-105224767D01*
X66030510Y-105249184D01*
X66021664Y-105249500D01*
X65102129Y-105249500D01*
X65102123Y-105249501D01*
X65042516Y-105255908D01*
X64907671Y-105306202D01*
X64907664Y-105306206D01*
X64792455Y-105392452D01*
X64792452Y-105392455D01*
X64706206Y-105507664D01*
X64706202Y-105507671D01*
X64655908Y-105642517D01*
X64649501Y-105702116D01*
X64649500Y-105702135D01*
X64649500Y-107497870D01*
X64649501Y-107497876D01*
X64655908Y-107557483D01*
X64706202Y-107692328D01*
X64706206Y-107692335D01*
X64792452Y-107807544D01*
X64792455Y-107807547D01*
X64907664Y-107893793D01*
X64907671Y-107893797D01*
X65039082Y-107942810D01*
X65095016Y-107984681D01*
X65119433Y-108050145D01*
X65104582Y-108118418D01*
X65083431Y-108146672D01*
X65026924Y-108203180D01*
X64965601Y-108236666D01*
X64939242Y-108239500D01*
X64874312Y-108239500D01*
X64807273Y-108219815D01*
X64786631Y-108203181D01*
X63936819Y-107353368D01*
X63903334Y-107292045D01*
X63900500Y-107265687D01*
X63900500Y-101454361D01*
X63920185Y-101387322D01*
X63936819Y-101366680D01*
X64941473Y-100362026D01*
X65988054Y-99315444D01*
X66049375Y-99281961D01*
X66064916Y-99279600D01*
X66281692Y-99260635D01*
X66501496Y-99201739D01*
X66707734Y-99105568D01*
X66707743Y-99105561D01*
X66712420Y-99102862D01*
X66713553Y-99104825D01*
X66770569Y-99085591D01*
X66838338Y-99102594D01*
G37*
%TD.AperFunction*%
%TA.AperFunction,NonConductor*%
G36*
X82955703Y-60324623D02*
G01*
X82962181Y-60330655D01*
X86363181Y-63731655D01*
X86396666Y-63792978D01*
X86399500Y-63819336D01*
X86399500Y-64247870D01*
X86399501Y-64247876D01*
X86405908Y-64307483D01*
X86449978Y-64425638D01*
X86456204Y-64442331D01*
X86463941Y-64452666D01*
X86474766Y-64467126D01*
X86499184Y-64532590D01*
X86499500Y-64541438D01*
X86499500Y-65348659D01*
X86487882Y-65401063D01*
X86476099Y-65426330D01*
X86476094Y-65426344D01*
X86414938Y-65654586D01*
X86414936Y-65654596D01*
X86394341Y-65889999D01*
X86394341Y-65890000D01*
X86414936Y-66125403D01*
X86414938Y-66125413D01*
X86476094Y-66353655D01*
X86476096Y-66353659D01*
X86476097Y-66353663D01*
X86559907Y-66533393D01*
X86575965Y-66567830D01*
X86575967Y-66567834D01*
X86711501Y-66761395D01*
X86711506Y-66761402D01*
X86878597Y-66928493D01*
X86878603Y-66928498D01*
X87041723Y-67042716D01*
X87085348Y-67097293D01*
X87092542Y-67166791D01*
X87061019Y-67229146D01*
X87008920Y-67262221D01*
X86981545Y-67271115D01*
X86806166Y-67360476D01*
X86749588Y-67401583D01*
X86646926Y-67476172D01*
X86646924Y-67476174D01*
X86646923Y-67476174D01*
X79296174Y-74826923D01*
X79296174Y-74826924D01*
X79296172Y-74826926D01*
X79259487Y-74877418D01*
X79180476Y-74986166D01*
X79091117Y-75161543D01*
X79038320Y-75324035D01*
X79038320Y-75324036D01*
X79030290Y-75348747D01*
X78999500Y-75543149D01*
X78999500Y-103680663D01*
X78979815Y-103747702D01*
X78963181Y-103768344D01*
X73798185Y-108933339D01*
X73736862Y-108966824D01*
X73667170Y-108961840D01*
X73611237Y-108919968D01*
X73586976Y-108856464D01*
X73585063Y-108834592D01*
X73523903Y-108606337D01*
X73424035Y-108392171D01*
X73291704Y-108203181D01*
X73288494Y-108198597D01*
X73121402Y-108031506D01*
X73121396Y-108031501D01*
X72935842Y-107901575D01*
X72892217Y-107846998D01*
X72885023Y-107777500D01*
X72916546Y-107715145D01*
X72935842Y-107698425D01*
X72999500Y-107653851D01*
X73121401Y-107568495D01*
X73288495Y-107401401D01*
X73424035Y-107207830D01*
X73523903Y-106993663D01*
X73585063Y-106765408D01*
X73605659Y-106530000D01*
X73585063Y-106294592D01*
X73523903Y-106066337D01*
X73424035Y-105852171D01*
X73423993Y-105852110D01*
X73288494Y-105658597D01*
X73121402Y-105491506D01*
X73121396Y-105491501D01*
X72935842Y-105361575D01*
X72892217Y-105306998D01*
X72885023Y-105237500D01*
X72916546Y-105175145D01*
X72935842Y-105158425D01*
X72999500Y-105113851D01*
X73121401Y-105028495D01*
X73288495Y-104861401D01*
X73424035Y-104667830D01*
X73523903Y-104453663D01*
X73585063Y-104225408D01*
X73605659Y-103990000D01*
X73604088Y-103972052D01*
X73617853Y-103903555D01*
X73639932Y-103873566D01*
X74599463Y-102914036D01*
X74617990Y-102886309D01*
X74698013Y-102766547D01*
X74765894Y-102602666D01*
X74780645Y-102528511D01*
X74787315Y-102494976D01*
X74787315Y-102494974D01*
X74800500Y-102428693D01*
X74800500Y-78524362D01*
X74820185Y-78457323D01*
X74836819Y-78436681D01*
X80949462Y-72324038D01*
X80949464Y-72324036D01*
X80998599Y-72250500D01*
X81048013Y-72176547D01*
X81100637Y-72049501D01*
X81100638Y-72049500D01*
X81108791Y-72029815D01*
X81115895Y-72012666D01*
X81150500Y-71838692D01*
X81150500Y-71661308D01*
X81150500Y-65723362D01*
X81170185Y-65656323D01*
X81222989Y-65610568D01*
X81292147Y-65600624D01*
X81355703Y-65629649D01*
X81362181Y-65635681D01*
X82721478Y-66994978D01*
X82754963Y-67056301D01*
X82757374Y-67092898D01*
X82744358Y-67249994D01*
X82744357Y-67250005D01*
X82764890Y-67497812D01*
X82764892Y-67497824D01*
X82825936Y-67738881D01*
X82925826Y-67966606D01*
X83061833Y-68174782D01*
X83061836Y-68174785D01*
X83230256Y-68357738D01*
X83426491Y-68510474D01*
X83461559Y-68529452D01*
X83609382Y-68609450D01*
X83645190Y-68628828D01*
X83880386Y-68709571D01*
X84125665Y-68750500D01*
X84374335Y-68750500D01*
X84619614Y-68709571D01*
X84854810Y-68628828D01*
X85073509Y-68510474D01*
X85269744Y-68357738D01*
X85438164Y-68174785D01*
X85574173Y-67966607D01*
X85674063Y-67738881D01*
X85735108Y-67497821D01*
X85735109Y-67497812D01*
X85755643Y-67250005D01*
X85755643Y-67249994D01*
X85735109Y-67002187D01*
X85735107Y-67002175D01*
X85674063Y-66761118D01*
X85574173Y-66533393D01*
X85438166Y-66325217D01*
X85416557Y-66301744D01*
X85269744Y-66142262D01*
X85073509Y-65989526D01*
X85073507Y-65989525D01*
X85073506Y-65989524D01*
X84854811Y-65871172D01*
X84854802Y-65871169D01*
X84619616Y-65790429D01*
X84374335Y-65749500D01*
X84125665Y-65749500D01*
X84125664Y-65749500D01*
X84100635Y-65753676D01*
X84031270Y-65745293D01*
X83992547Y-65719048D01*
X82786819Y-64513319D01*
X82753334Y-64451996D01*
X82750500Y-64425638D01*
X82750500Y-60418336D01*
X82770185Y-60351297D01*
X82822989Y-60305542D01*
X82892147Y-60295598D01*
X82955703Y-60324623D01*
G37*
%TD.AperFunction*%
%TA.AperFunction,NonConductor*%
G36*
X105388284Y-93934784D02*
G01*
X105444217Y-93976656D01*
X105464725Y-94018873D01*
X105476094Y-94061306D01*
X105476096Y-94061310D01*
X105476097Y-94061314D01*
X105575965Y-94275481D01*
X105575967Y-94275485D01*
X105711501Y-94469046D01*
X105711506Y-94469053D01*
X105878597Y-94636144D01*
X105878603Y-94636149D01*
X106064158Y-94766076D01*
X106107783Y-94820653D01*
X106114977Y-94890151D01*
X106083454Y-94952506D01*
X106064158Y-94969226D01*
X105878597Y-95099156D01*
X105711505Y-95266248D01*
X105575965Y-95459820D01*
X105575964Y-95459822D01*
X105476098Y-95673986D01*
X105476094Y-95673995D01*
X105414938Y-95902237D01*
X105414936Y-95902247D01*
X105394341Y-96137650D01*
X105394341Y-96137651D01*
X105414936Y-96373054D01*
X105414938Y-96373064D01*
X105476094Y-96601306D01*
X105476096Y-96601310D01*
X105476097Y-96601314D01*
X105542524Y-96743767D01*
X105575965Y-96815481D01*
X105575967Y-96815485D01*
X105711501Y-97009046D01*
X105711506Y-97009053D01*
X105833430Y-97130977D01*
X105866915Y-97192300D01*
X105861931Y-97261992D01*
X105820059Y-97317925D01*
X105789083Y-97334840D01*
X105657669Y-97383854D01*
X105657668Y-97383855D01*
X105632872Y-97402418D01*
X105567408Y-97426835D01*
X105558561Y-97427151D01*
X104723932Y-97427151D01*
X104702938Y-97430475D01*
X104702939Y-97430476D01*
X104529521Y-97457942D01*
X104342318Y-97518768D01*
X104166943Y-97608127D01*
X104092106Y-97662500D01*
X104007703Y-97723823D01*
X104007701Y-97723825D01*
X104007700Y-97723825D01*
X95546174Y-106185351D01*
X95546174Y-106185352D01*
X95546172Y-106185354D01*
X95545204Y-106186687D01*
X95430476Y-106344594D01*
X95341115Y-106519973D01*
X95341114Y-106519976D01*
X95304853Y-106631580D01*
X95280290Y-106707176D01*
X95280290Y-106707177D01*
X95249500Y-106901577D01*
X95249500Y-110180664D01*
X95229815Y-110247703D01*
X95213181Y-110268345D01*
X90518345Y-114963181D01*
X90457022Y-114996666D01*
X90430664Y-114999500D01*
X89963871Y-114999500D01*
X89896832Y-114979815D01*
X89851077Y-114927011D01*
X89841133Y-114857853D01*
X89870158Y-114794297D01*
X89876190Y-114787819D01*
X91299462Y-113364547D01*
X91299464Y-113364545D01*
X91338937Y-113305469D01*
X91348738Y-113290801D01*
X91368421Y-113261342D01*
X91398013Y-113217056D01*
X91450034Y-113091466D01*
X91465895Y-113053175D01*
X91500500Y-112879201D01*
X91500500Y-112701817D01*
X91500500Y-107771417D01*
X91520185Y-107704378D01*
X91536814Y-107683741D01*
X105257271Y-93963283D01*
X105318592Y-93929800D01*
X105388284Y-93934784D01*
G37*
%TD.AperFunction*%
%TA.AperFunction,NonConductor*%
G36*
X82720847Y-75041711D02*
G01*
X82776780Y-75083583D01*
X82797719Y-75127452D01*
X82825937Y-75238882D01*
X82925826Y-75466606D01*
X83061833Y-75674782D01*
X83061836Y-75674785D01*
X83230256Y-75857738D01*
X83426491Y-76010474D01*
X83645190Y-76128828D01*
X83880386Y-76209571D01*
X84100088Y-76246232D01*
X84162973Y-76276682D01*
X84167360Y-76280860D01*
X86360063Y-78473563D01*
X86393548Y-78534886D01*
X86395911Y-78572045D01*
X86394341Y-78590000D01*
X86414936Y-78825403D01*
X86414938Y-78825413D01*
X86476094Y-79053655D01*
X86476096Y-79053659D01*
X86476097Y-79053663D01*
X86489398Y-79082187D01*
X86575965Y-79267830D01*
X86575967Y-79267834D01*
X86711501Y-79461395D01*
X86711506Y-79461402D01*
X86878597Y-79628493D01*
X86878603Y-79628498D01*
X87064158Y-79758425D01*
X87107783Y-79813002D01*
X87114977Y-79882500D01*
X87083454Y-79944855D01*
X87064158Y-79961575D01*
X86878597Y-80091505D01*
X86711505Y-80258597D01*
X86575965Y-80452169D01*
X86575964Y-80452171D01*
X86476098Y-80666335D01*
X86476094Y-80666344D01*
X86414938Y-80894586D01*
X86414936Y-80894596D01*
X86394341Y-81129999D01*
X86394341Y-81130000D01*
X86414936Y-81365403D01*
X86414938Y-81365413D01*
X86476094Y-81593655D01*
X86476096Y-81593659D01*
X86476097Y-81593663D01*
X86554183Y-81761118D01*
X86575965Y-81807830D01*
X86575967Y-81807834D01*
X86711501Y-82001395D01*
X86711506Y-82001402D01*
X86878597Y-82168493D01*
X86878603Y-82168498D01*
X87064158Y-82298425D01*
X87107783Y-82353002D01*
X87114977Y-82422500D01*
X87083454Y-82484855D01*
X87064158Y-82501575D01*
X86878597Y-82631505D01*
X86711505Y-82798597D01*
X86575965Y-82992169D01*
X86575964Y-82992171D01*
X86476098Y-83206335D01*
X86476094Y-83206344D01*
X86414938Y-83434586D01*
X86414936Y-83434596D01*
X86394341Y-83669999D01*
X86394341Y-83670000D01*
X86414936Y-83905403D01*
X86414938Y-83905413D01*
X86476094Y-84133655D01*
X86476096Y-84133659D01*
X86476097Y-84133663D01*
X86575964Y-84347827D01*
X86575967Y-84347834D01*
X86711501Y-84541395D01*
X86711506Y-84541402D01*
X86878597Y-84708493D01*
X86878603Y-84708498D01*
X87064158Y-84838425D01*
X87107783Y-84893002D01*
X87114977Y-84962500D01*
X87083454Y-85024855D01*
X87064158Y-85041575D01*
X86878597Y-85171505D01*
X86711505Y-85338597D01*
X86575965Y-85532169D01*
X86575964Y-85532171D01*
X86476098Y-85746335D01*
X86476094Y-85746344D01*
X86414938Y-85974586D01*
X86414936Y-85974596D01*
X86394341Y-86209998D01*
X86395911Y-86227952D01*
X86382141Y-86296452D01*
X86360063Y-86326435D01*
X84200535Y-88485964D01*
X84200533Y-88485966D01*
X84181410Y-88514589D01*
X84181408Y-88514592D01*
X84101988Y-88633450D01*
X84101985Y-88633454D01*
X84090447Y-88661309D01*
X84090448Y-88661310D01*
X84034105Y-88797333D01*
X84034103Y-88797341D01*
X84003342Y-88951983D01*
X84003343Y-88951984D01*
X83999500Y-88971305D01*
X83999500Y-112879205D01*
X84034103Y-113053167D01*
X84034106Y-113053179D01*
X84049966Y-113091467D01*
X84101985Y-113217053D01*
X84161063Y-113305469D01*
X84161064Y-113305470D01*
X84200534Y-113364543D01*
X85623810Y-114787819D01*
X85657295Y-114849142D01*
X85652311Y-114918834D01*
X85610439Y-114974767D01*
X85544975Y-114999184D01*
X85536129Y-114999500D01*
X71139336Y-114999500D01*
X71072297Y-114979815D01*
X71051655Y-114963181D01*
X67262358Y-111173884D01*
X67237657Y-111138608D01*
X67174035Y-111002171D01*
X67174034Y-111002169D01*
X67038494Y-110808597D01*
X66871402Y-110641506D01*
X66871401Y-110641505D01*
X66835082Y-110616074D01*
X66791459Y-110561498D01*
X66784266Y-110491999D01*
X66815788Y-110429645D01*
X66876018Y-110394231D01*
X66906207Y-110390500D01*
X68070664Y-110390500D01*
X68137703Y-110410185D01*
X68158345Y-110426819D01*
X70156171Y-112424645D01*
X70156172Y-112424646D01*
X70295354Y-112563828D01*
X70454595Y-112679524D01*
X70498348Y-112701817D01*
X70629979Y-112768886D01*
X70714223Y-112796258D01*
X70756346Y-112809944D01*
X70756347Y-112809945D01*
X70756348Y-112809945D01*
X70817173Y-112829709D01*
X70875103Y-112838884D01*
X71011578Y-112860500D01*
X71011583Y-112860500D01*
X71708659Y-112860500D01*
X71761063Y-112872118D01*
X71786330Y-112883900D01*
X71786332Y-112883900D01*
X71786337Y-112883903D01*
X72014592Y-112945063D01*
X72202918Y-112961539D01*
X72249999Y-112965659D01*
X72250000Y-112965659D01*
X72250001Y-112965659D01*
X72289234Y-112962226D01*
X72485408Y-112945063D01*
X72713663Y-112883903D01*
X72723744Y-112879202D01*
X72738937Y-112872118D01*
X72791341Y-112860500D01*
X72988422Y-112860500D01*
X73182826Y-112829709D01*
X73243656Y-112809944D01*
X73370026Y-112768884D01*
X73545405Y-112679524D01*
X73704646Y-112563828D01*
X81203828Y-105064646D01*
X81319524Y-104905405D01*
X81408884Y-104730026D01*
X81469709Y-104542826D01*
X81483832Y-104453655D01*
X81500500Y-104348421D01*
X81500500Y-76210907D01*
X81520185Y-76143868D01*
X81536814Y-76123231D01*
X82589834Y-75070210D01*
X82651155Y-75036727D01*
X82720847Y-75041711D01*
G37*
%TD.AperFunction*%
D37*
X31750000Y-41250000D02*
X126000000Y-41250000D01*
X126000000Y-118750000D01*
X31750000Y-118750000D01*
X31750000Y-41250000D01*
M02*
